<?xml version="1.0" encoding="UTF-8" standalone="no"?>
<!DOCTYPE svg  PUBLIC '-//W3C//DTD SVG 1.1//EN'  'http://www.w3.org/Graphics/SVG/1.1/DTD/svg11.dtd'>
<svg xmlns="http://www.w3.org/2000/svg">
<defs>
<font id="MercuryLight-Regular" horiz-adv-x="512">
<font-face underline-position="-50" font-weight="300" descent="-200" panose-1="2 0 5 3 0 0 0 2 0 4" units-per-em="1000" unicode-range="U+0020-00FE" bbox="-7 -209 945 923" x-height="498" underline-thickness="50" font-family="MercuryLight" ascent="800" cap-height="727"/>
<missing-glyph horiz-adv-x="1000"/>
<glyph glyph-name=".notdef" horiz-adv-x="1000"/>
<glyph glyph-name=".null" horiz-adv-x="0"/>
<glyph glyph-name="nonmarkingreturn" horiz-adv-x="333"/>
<glyph glyph-name="space" horiz-adv-x="220" unicode=" "/>
<glyph glyph-name="exclam" horiz-adv-x="261" unicode="!" d="M70 60q0 26 17.5 43.5t42.5 17.5q26 0 43.5 -17.5t17.5 -43.5q0 -25 -17.5 -42.5t-43.5 -17.5t-43 17t-17 43zM106 222l-8 487q0 18 18 18h29q18 0 18 -18l-8 -487q0 -18 -18 -18h-14q-17 0 -17 18z"/>
<glyph glyph-name="quotedbl" horiz-adv-x="329" unicode='&quot;' d="M202 501l-7 208q0 18 18 18h37q19 0 19 -18l-6 -208q0 -7 -5 -12.5t-14 -5.5h-25q-7 0 -12 5.5t-5 12.5zM66 501l-6 208q0 18 17 18h38q17 0 17 -18l-6 -208q0 -7 -5 -12.5t-13 -5.5h-24q-8 0 -13 5.5t-5 12.5z"/>
<glyph glyph-name="numbersign" horiz-adv-x="711" unicode="#" d="M270 442l-45 -155h213l45 155h-213zM363 25l61 212h-213l-65 -225q-3 -12 -17 -12q-3 0 -5 1l-13 4q-16 5 -11 20l61 212h-93q-18 0 -18 19v14q0 7 5.5 12t12.5 5h107l45 155h-94q-17 0 -17 19v13q0 18 17 18h108l65 224q3 12 15 12q5 0 7 -1l14 -3q15 -5 10 -22 l-61 -210h213l65 224q3 12 15 12q4 0 6 -1l14 -3q16 -5 11 -22l-61 -210h96q18 0 18 -18v-13q0 -19 -18 -19h-110l-45 -155h98q16 0 16 -17v-14q0 -19 -16 -19h-112l-65 -225q-3 -12 -16 -12q-3 0 -5 1l-14 4q-16 5 -11 20z"/>
<glyph glyph-name="dollar" horiz-adv-x="640" unicode="$" d="M155 549q0 -51 35.5 -81.5t102.5 -52.5q1 -1 4 -1v271q-66 -6 -104 -41t-38 -95zM518 199q0 53 -29.5 84.5t-93.5 47.5l-47 13v-301q79 5 124.5 48t45.5 108zM297 735v62q0 18 17 18h17q17 0 17 -18v-62q89 -7 142 -58t53 -137q0 -8 -5.5 -13t-12.5 -5h-20q-16 0 -16 18 q1 64 -38 102t-103 44v-287l61 -18q81 -24 122 -66t41 -115q0 -88 -62 -145t-162 -62v-174q0 -18 -17 -18h-17q-17 0 -17 18v175q-102 9 -165.5 75.5t-63.5 171.5q0 20 17 20h21q18 0 18 -20q0 -85 46.5 -137t126.5 -60v315l-20 7q-175 56 -175 182q0 80 53.5 129.5 t141.5 57.5z"/>
<glyph glyph-name="percent" horiz-adv-x="649" unicode="%" d="M549 128q0 38 -17.5 64t-47.5 26t-47 -26t-17 -64t17 -63.5t47 -25.5t47.5 26t17.5 63zM368 128q0 57 32.5 97.5t83.5 40.5t83 -40.5t32 -97.5t-32 -96.5t-83 -39.5t-83.5 40t-32.5 96zM79 34l444 686q11 15 27 5l11 -9q6 -4 6 -14q0 -6 -3 -11l-445 -684q-5 -7 -15 -7 q-5 0 -10 3l-10 6q-12 8 -5 25zM230 599q0 37 -18.5 63.5t-46.5 26.5q-29 0 -46.5 -26.5t-17.5 -63.5t17.5 -63.5t46.5 -26.5q28 0 46.5 26.5t18.5 63.5zM50 599q0 56 32.5 96.5t82.5 40.5q52 0 84.5 -40t32.5 -97q0 -56 -32.5 -96t-84.5 -40q-51 0 -83 40t-32 96z"/>
<glyph glyph-name="ampersand" horiz-adv-x="646" unicode="&amp;" d="M207 603q0 -29 25.5 -74t51.5 -77q93 63 93 151q0 39 -24 62.5t-59 23.5q-38 0 -62.5 -23.5t-24.5 -62.5zM266 41q110 0 176 103l-172 244q-80 -46 -119.5 -92t-39.5 -113q0 -66 42 -104t113 -38zM534 14l-62 87q-79 -109 -207 -109q-92 0 -149 52.5t-57 137.5 q0 74 40.5 130t142.5 116q-86 104 -86 174q0 60 38 97t100 37q61 0 97.5 -37t36.5 -96q0 -58 -32.5 -107t-83.5 -84l155 -218q36 85 36 190q0 4 -0.5 12t-0.5 12q-1 8 4 14t14 6h17q18 0 18 -20q0 -153 -55 -260l93 -130q2 -4 2 -7q0 -11 -11 -11h-25q-15 0 -25 14z"/>
<glyph glyph-name="quotesingle" horiz-adv-x="212" unicode="&apos;" d="M76 501l-6 208q0 18 17 18h37q18 0 18 -18l-6 -208q0 -7 -5 -12.5t-13 -5.5h-24q-8 0 -13 5.5t-5 12.5z"/>
<glyph glyph-name="parenleft" horiz-adv-x="362" unicode="(" d="M75 372q0 265 207 442q6 7 14 7q7 0 12 -5l9 -9q5 -5 5 -12t-6 -13q-38 -34 -66.5 -67.5t-59 -83.5t-47 -116t-16.5 -143q0 -78 16.5 -144.5t47 -116.5t59.5 -84t66 -67q6 -5 6 -13q0 -7 -5 -12l-9 -9q-4 -4 -11 -4t-15 6q-207 177 -207 444z"/>
<glyph glyph-name="parenright" horiz-adv-x="356" unicode=")" d="M286 372q0 -263 -206 -444q-8 -6 -16 -6q-6 0 -10 4l-9 9q-5 5 -5 11q0 9 7 14q37 34 65 67t58 83.5t46.5 117.5t16.5 144t-16.5 143t-47 116t-58 83.5t-64.5 67.5q-7 7 -7 14q0 6 5 11l9 9q4 5 11 5q8 0 15 -7q206 -181 206 -442z"/>
<glyph glyph-name="asterisk" horiz-adv-x="449" unicode="*" d="M256 598l104 32q3 1 8 1q15 0 18 -13l6 -19q1 -3 1 -8q0 -13 -15 -18l-102 -35l63 -89q10 -16 -4 -28l-16 -12q-5 -4 -13 -4t-16 8l-66 88l-65 -88q-8 -8 -17 -8q-7 0 -12 4l-15 12q-9 7 -9 16q0 7 4 12l63 89l-103 35q-14 5 -14 18q0 5 1 8l6 19q3 13 17 13q5 0 8 -1 l104 -32l2 108q0 21 20 21h20q20 0 20 -21z"/>
<glyph glyph-name="plus" d="M282 427v-154h153q7 0 12 -5t5 -12v-16q0 -7 -5 -12t-12 -5h-153v-154q0 -17 -17 -17h-17q-18 0 -18 17v154h-153q-17 0 -17 17v16q0 17 17 17h153v154q0 16 18 16h17q17 0 17 -16z" unicode="+"/>
<glyph glyph-name="comma" horiz-adv-x="236" unicode="," d="M42 -65l78 186q5 12 19 12q4 0 8 -2l23 -10q11 -5 11 -17q0 -2 -2 -8l-89 -185q-5 -10 -15 -10q-3 0 -9 2l-17 8q-9 6 -9 16q0 2 2 8z"/>
<glyph glyph-name="hyphen" horiz-adv-x="391" unicode="-" d="M313 230h-235q-18 0 -18 17v18q0 16 18 16h235q18 0 18 -16v-18q0 -17 -18 -17z"/>
<glyph glyph-name="period" horiz-adv-x="220" unicode="." d="M50 60q0 26 17.5 43.5t42.5 17.5t42.5 -17.5t17.5 -43.5t-17 -43t-43 -17t-43 17t-17 43z"/>
<glyph glyph-name="slash" horiz-adv-x="504" unicode="/" d="M43 24l372 702q7 10 17 10q3 0 7 -2l15 -8q9 -4 9 -16q0 -7 -2 -10l-374 -699q-5 -9 -16 -9q-6 0 -9 2l-13 6q-8 5 -8 15q0 6 2 9z"/>
<glyph glyph-name="zero" horiz-adv-x="580" unicode="0" d="M290 667q-86 0 -135.5 -87t-49.5 -228q0 -138 49.5 -224t135.5 -86q85 0 134.5 86t49.5 224q0 141 -49.5 228t-134.5 87zM290 -8q-107 0 -172 97t-65 263q0 167 65 266.5t172 99.5t172 -99.5t65 -266.5q0 -166 -65 -263t-172 -97z"/>
<glyph glyph-name="one" horiz-adv-x="525" unicode="1" d="M454 0h-360q-17 0 -17 17v16q0 16 17 16h154v584q-21 -37 -64 -80t-78 -61q-17 -9 -26 5l-10 13q-3 4 -3 10q0 10 10 14q49 30 87.5 68t74.5 93q12 14 25 14h21q16 0 16 -16v-644h153q17 0 17 -16v-16q0 -17 -17 -17z"/>
<glyph glyph-name="two" horiz-adv-x="580" unicode="2" d="M55 501q0 97 62 157t160 60q94 0 154 -60t60 -156q0 -92 -93 -183l-284 -270h363q17 0 17 -16v-16q0 -17 -17 -17h-408q-18 0 -18 18v22q0 15 13 26l304 292q69 69 69 143q0 75 -44 121t-117 46q-76 0 -121 -46t-45 -121q0 -7 -5 -12.5t-12 -5.5h-18q-20 0 -20 18z"/>
<glyph glyph-name="three" horiz-adv-x="580" unicode="3" d="M31 211q0 19 18 19h19q18 0 18 -19q0 -79 53.5 -124t134.5 -45q82 0 134.5 42.5t52.5 116.5q0 76 -50 116t-127 40h-52q-17 0 -17 16v18q0 16 17 16h54q60 0 101.5 38t41.5 94q0 61 -41 94.5t-111 33.5q-68 0 -110.5 -33.5t-42.5 -90.5q0 -18 -18 -18h-19q-18 0 -18 18 q0 80 60 127.5t148 47.5q92 0 149 -47t57 -132q0 -50 -29 -92t-72 -61q52 -14 93 -59t41 -124q0 -94 -68 -152.5t-175 -58.5q-105 0 -173.5 59t-68.5 160z"/>
<glyph glyph-name="four" horiz-adv-x="575" unicode="4" d="M35 275l313 421q11 13 26 13h28q8 0 13.5 -5t5.5 -12v-432h108q8 0 13 -5.5t5 -13.5v-15q0 -17 -18 -17h-108v-191q0 -8 -5.5 -13t-13.5 -5h-18q-17 0 -17 18v191h-327q-17 0 -17 18v21q0 15 12 27zM83 260h285v380z"/>
<glyph glyph-name="five" horiz-adv-x="580" unicode="5" d="M84 199q13 -67 65.5 -112t129.5 -45q94 0 151 57.5t57 150.5q0 92 -52.5 146t-144.5 54q-57 0 -105.5 -28.5t-76.5 -72.5q-9 -16 -23 -16h-21q-16 0 -13 18l69 343q2 15 19 15h348q17 0 17 -17v-15q0 -18 -17 -18h-322l-50 -239q25 31 76 55t101 24q114 0 181.5 -68 t67.5 -181t-73.5 -185.5t-189.5 -72.5q-58 0 -115.5 26t-96.5 75t-39 107q0 14 15 14h20q19 0 22 -15z"/>
<glyph glyph-name="six" horiz-adv-x="580" unicode="6" d="M455 558q-20 52 -52.5 80t-92.5 29h-2q-93 0 -145 -81.5t-56 -238.5q27 48 83.5 78.5t115.5 30.5q102 0 166 -65.5t64 -167.5q0 -99 -65.5 -165t-167.5 -66q-155 0 -221 136q-24 58 -26 145v50q0 70 6 112q12 84 39.5 143t64 87.5t71.5 40.5t74 12q145 0 195 -143 q7 -15 -10 -21l-18 -7q-17 -6 -23 11zM303 42q78 0 128 51t50 130q0 83 -48.5 132.5t-127.5 49.5q-77 0 -133.5 -50t-57.5 -127q3 -84 54.5 -135t134.5 -51z"/>
<glyph glyph-name="seven" horiz-adv-x="550" unicode="7" d="M207 18q0 110 17.5 209.5t43 167.5t59 125.5t59.5 88.5t50 51h-392q-17 0 -17 16v16q0 7 5 12t12 5h437q8 0 13 -5.5t5 -12.5v-22q0 -16 -13 -27q-29 -24 -56.5 -57t-58.5 -88t-54 -120.5t-38 -159.5t-15 -199q0 -18 -19 -18h-21q-17 0 -17 18z"/>
<glyph glyph-name="eight" horiz-adv-x="580" unicode="8" d="M291 667q-69 0 -112.5 -34t-43.5 -95q0 -59 45 -95t111 -36t110 35.5t44 95.5q0 61 -43 95t-111 34zM291 360q-81 0 -134 -43t-53 -117q0 -75 52.5 -116.5t134.5 -41.5q81 0 133.5 41.5t52.5 116.5q0 74 -52 117t-134 43zM291 -8q-106 0 -174 56.5t-68 151.5 q0 65 36 113.5t93 73.5q-42 21 -69 60t-27 91q0 83 59.5 131.5t149.5 48.5q89 0 148.5 -48.5t59.5 -131.5q0 -50 -27.5 -90t-69.5 -61q58 -24 94 -71.5t36 -115.5q0 -95 -68 -151.5t-173 -56.5z"/>
<glyph glyph-name="nine" horiz-adv-x="580" unicode="9" d="M113 152q20 -52 53 -80.5t92 -29.5h2q93 0 145 81.5t56 238.5q-26 -49 -80 -79t-117 -30q-103 0 -168 65.5t-65 167.5q0 99 66 165.5t169 66.5q155 0 219 -138q25 -59 27 -143v-50q0 -69 -6 -112q-9 -68 -29.5 -120t-45.5 -82t-56.5 -49t-59.5 -25.5t-58 -6.5 q-145 0 -196 141q-7 18 13 23l15 6q19 6 24 -10zM266 667q-80 0 -130 -50.5t-50 -129.5q0 -83 49 -133t129 -50q78 0 133.5 50t55.5 126q-2 84 -53.5 135.5t-133.5 51.5z"/>
<glyph glyph-name="colon" horiz-adv-x="231" unicode=":" d="M55 385q0 25 17.5 42.5t43.5 17.5t43 -17.5t17 -42.5q0 -26 -17 -43t-43 -17t-43.5 17t-17.5 43zM55 60q0 26 17.5 43.5t43.5 17.5q25 0 42.5 -17.5t17.5 -43.5t-17 -43t-43 -17t-43.5 17.5t-17.5 42.5z"/>
<glyph glyph-name="semicolon" horiz-adv-x="233" unicode=";" d="M56 385q0 25 17.5 42.5t43.5 17.5t43.5 -17.5t17.5 -42.5q0 -26 -17.5 -43t-43.5 -17t-43.5 17t-17.5 43zM28 -65l80 186q6 12 17 12q2 0 8 -2l23 -10q11 -5 11 -16q0 -6 -2 -9l-88 -185q-5 -10 -16 -10q-2 0 -8 2l-16 8q-11 6 -11 16q0 2 2 8z"/>
<glyph glyph-name="less" horiz-adv-x="563" unicode="&lt;" d="M65 329l410 269q6 3 11 3q9 0 15 -7l8 -14q3 -4 3 -9q0 -9 -9 -15l-401 -259l401 -259q9 -6 9 -16q0 -6 -3 -10l-8 -13q-6 -7 -15 -7q-5 0 -11 3l-409 269q-16 10 -16 24v18q0 14 15 23z"/>
<glyph glyph-name="equal" d="M435 137h-358q-17 0 -17 17v15q0 7 5 12t12 5h358q7 0 11.5 -5t4.5 -12v-15q0 -17 -16 -17zM435 306h-358q-17 0 -17 17v15q0 7 5 12t12 5h358q7 0 11.5 -5t4.5 -12v-15q0 -17 -16 -17z" unicode="="/>
<glyph glyph-name="greater" horiz-adv-x="562" unicode="&gt;" d="M89 598l410 -269q13 -9 13 -23v-18q0 -14 -14 -24l-409 -269q-6 -3 -12 -3q-8 0 -14 7l-9 13q-3 4 -3 10q0 10 9 16l402 259l-402 259q-9 6 -9 15q0 5 3 9l9 14q6 7 14 7q6 0 12 -3z"/>
<glyph glyph-name="question" horiz-adv-x="506" unicode="?" d="M176 60q0 26 17.5 43.5t42.5 17.5q26 0 44 -17.5t18 -43.5q0 -25 -18 -42.5t-44 -17.5t-43 17t-17 43zM266 222q0 -18 -18 -18h-21q-17 0 -17 18q0 56 31.5 95t88.5 78q81 53 81 136q0 70 -45 113t-113 43q-74 0 -116 -47t-42 -122q0 -18 -18 -18h-20q-17 0 -17 18 q0 93 56.5 155.5t155.5 62.5q93 0 153.5 -57.5t60.5 -147.5q0 -103 -109 -178q-50 -35 -70.5 -63.5t-20.5 -67.5z"/>
<glyph glyph-name="at" horiz-adv-x="738" unicode="@" d="M519 -132h-170q-124 0 -201.5 64t-77.5 185v326q0 127 83.5 205.5t215.5 78.5t215.5 -78.5t83.5 -204.5v-301q0 -42 -25.5 -65.5t-67.5 -23.5q-31 0 -52.5 14.5t-27.5 33.5q-38 -48 -100 -48h-54q-68 0 -108.5 33.5t-40.5 90.5q0 55 39 85t105 30h73q58 0 77 30v7 q0 53 -31 83t-86 30q-105 0 -116 -97q-3 -14 -20 -14h-19q-7 0 -11 4.5t-3 10.5q7 66 51.5 105t117.5 39t119.5 -43t46.5 -118v-193q0 -16 11.5 -26t28.5 -10q21 0 33 12t12 32v299q0 109 -70 173t-181 64q-112 0 -181 -64.5t-69 -172.5v-329q0 -99 62.5 -148t167.5 -49h170 q7 0 12.5 -6t5.5 -14v-12q0 -18 -18 -18zM340 102h56q44 0 67 21t23 51v102q-24 -31 -78 -31h-72q-44 0 -67 -17.5t-23 -49.5q0 -36 24.5 -56t69.5 -20z"/>
<glyph glyph-name="A" horiz-adv-x="674" unicode="A" d="M580 15l-73 195h-341l-73 -195q-5 -15 -22 -15h-23q-13 0 -13 13q0 3 1 5l264 693q5 16 23 16h29q19 0 22 -16l264 -693q1 -2 1 -5q0 -13 -13 -13h-23q-18 0 -23 15zM489 260l-152 402l-154 -402h306z"/>
<glyph glyph-name="B" horiz-adv-x="685" unicode="B" d="M117 727h225q93 0 145.5 -52t52.5 -136q0 -96 -71 -143q67 -13 111.5 -66.5t44.5 -128.5q0 -91 -59 -146t-149 -55h-300q-7 0 -12 5.5t-5 12.5v691q0 18 17 18zM153 678v-275h227q48 8 77.5 45t29.5 91q0 64 -39.5 101.5t-106.5 37.5h-188zM153 48h264q68 0 111 42 t43 111q0 66 -43.5 109.5t-107.5 43.5h-267v-306z"/>
<glyph glyph-name="C" horiz-adv-x="708" unicode="C" d="M587 188q9 16 23 16h22q15 0 15 -14q0 -3 -1 -5q-80 -193 -280 -193q-135 0 -218 106t-83 265q0 167 84.5 270t224.5 103q99 0 166 -53.5t95 -149.5q7 -17 -10 -23l-17 -6q-20 -6 -25 11q-24 78 -77.5 125t-131.5 47q-115 0 -184.5 -89.5t-69.5 -234.5 q0 -138 67.5 -229.5t178.5 -91.5q78 0 136 39t85 107z"/>
<glyph glyph-name="D" horiz-adv-x="719" unicode="D" d="M153 49h156q124 0 208 88t84 225q0 141 -82.5 228.5t-211.5 87.5h-154v-629zM307 0h-190q-7 0 -12 5.5t-5 12.5v691q0 18 17 18h189q156 0 252 -100t96 -265q0 -160 -98.5 -261t-248.5 -101z"/>
<glyph glyph-name="E" horiz-adv-x="607" unicode="E" d="M539 0h-422q-7 0 -12 5.5t-5 12.5v691q0 18 17 18h402q17 0 17 -17v-15q0 -18 -17 -18h-366v-273h291q17 0 17 -17v-15q0 -18 -17 -18h-291v-305h386q18 0 18 -16v-16q0 -17 -18 -17z"/>
<glyph glyph-name="F" horiz-adv-x="558" unicode="F" d="M136 0h-19q-7 0 -12 5.5t-5 12.5v691q0 18 17 18h413q18 0 18 -17v-15q0 -7 -5 -12.5t-13 -5.5h-377v-273h267q17 0 17 -17v-15q0 -18 -17 -18h-267v-337q0 -17 -17 -17z"/>
<glyph glyph-name="G" horiz-adv-x="716" unicode="G" d="M646 347v-26q0 -156 -75.5 -242.5t-206.5 -86.5q-134 0 -216.5 103t-82.5 267q0 161 85.5 267.5t218.5 106.5q201 0 261 -201q6 -17 -11 -22l-18 -6q-7 -3 -14.5 0t-9.5 11q-49 169 -210 169q-111 0 -179 -92t-68 -233q0 -142 66 -231t178 -89q114 0 171.5 72.5 t57.5 191.5v9h-204q-17 0 -17 18v14q0 18 17 18h239q18 0 18 -18z"/>
<glyph glyph-name="H" horiz-adv-x="680" unicode="H" d="M153 385h374v324q0 18 19 18h17q17 0 17 -18v-691q0 -7 -5 -12.5t-12 -5.5h-17q-8 0 -13.5 5t-5.5 13v317h-374v-317q0 -18 -18 -18h-18q-7 0 -12 5.5t-5 12.5v691q0 18 17 18h18q18 0 18 -18v-324z"/>
<glyph glyph-name="I" horiz-adv-x="313" unicode="I" d="M130 18v691q0 18 17 18h18q18 0 18 -18v-691q0 -18 -18 -18h-18q-17 0 -17 18z"/>
<glyph glyph-name="J" horiz-adv-x="515" unicode="J" d="M78 230v-44v-5q0 -65 36 -102t104 -37q67 0 107.5 40t40.5 107v520q0 18 17 18h18q19 0 19 -18v-519q0 -91 -56 -144.5t-145 -53.5q-92 0 -143 51.5t-51 142.5v44q0 18 17 18h18q18 0 18 -18z"/>
<glyph glyph-name="K" horiz-adv-x="629" unicode="K" d="M154 335l350 379q11 13 26 13h35q7 0 9 -6.5t-4 -11.5l-296 -319l322 -372q3 -3 3 -8q0 -10 -9 -10h-34q-15 0 -26 13l-293 336l-83 -87v-244q0 -18 -18 -18h-19q-7 0 -12 5.5t-5 12.5v691q0 18 17 18h19q18 0 18 -18v-374z"/>
<glyph glyph-name="L" horiz-adv-x="525" unicode="L" d="M117 727h19q17 0 17 -17v-661h345q17 0 17 -16v-16q0 -7 -5 -12t-12 -5h-381q-7 0 -12 5.5t-5 12.5v691q0 18 17 18z"/>
<glyph glyph-name="M" horiz-adv-x="870" unicode="M" d="M435 207l252 505q8 15 27 15h38q18 0 18 -18v-691q0 -8 -5 -13t-13 -5h-17q-19 0 -19 18v634l-244 -488q-10 -16 -25 -16h-26q-16 0 -24 16l-244 488v-634q0 -18 -19 -18h-17q-7 0 -12 5.5t-5 12.5v691q0 18 17 18h38q19 0 26 -15z"/>
<glyph glyph-name="N" horiz-adv-x="700" unicode="N" d="M526 15l-373 635v-632q0 -18 -19 -18h-17q-7 0 -12 5.5t-5 12.5v691q0 18 17 18h34q16 0 26 -15l370 -631v628q0 18 18 18h18q17 0 17 -18v-691q0 -18 -17 -18h-32q-17 0 -25 15z"/>
<glyph glyph-name="O" horiz-adv-x="716" unicode="O" d="M359 687q-107 0 -173 -93t-66 -231q0 -141 65.5 -230.5t173.5 -89.5q107 0 172 89.5t65 230.5q0 138 -66 231t-171 93zM359 -8q-131 0 -212.5 105t-81.5 266q0 162 81.5 267.5t212.5 105.5q129 0 210.5 -105.5t81.5 -267.5q0 -161 -81 -266t-211 -105z"/>
<glyph glyph-name="P" horiz-adv-x="651" unicode="P" d="M117 727h265q105 0 167 -59t62 -155t-61.5 -154t-167.5 -58h-228v-283q0 -18 -18 -18h-19q-7 0 -12 5.5t-5 12.5v691q0 18 17 18zM381 677h-227v-327h227q84 0 130 42.5t46 120.5q0 79 -46.5 121.5t-129.5 42.5z"/>
<glyph glyph-name="Q" horiz-adv-x="715" unicode="Q" d="M359 687q-106 0 -172.5 -93.5t-66.5 -231.5q0 -141 65.5 -230t173.5 -89q80 0 139 53l-56 56q-12 12 0 24l12 12q5 5 12 5q9 0 16 -7l51 -51q63 88 63 227q0 138 -66 231.5t-171 93.5zM359 -8q-131 0 -212.5 104.5t-81.5 265.5q0 162 81.5 268t212.5 106 q129 0 210.5 -106t81.5 -268q0 -161 -81 -264l58 -57q11 -12 0 -25l-12 -12q-12 -12 -27 2l-54 53q-73 -67 -176 -67z"/>
<glyph glyph-name="R" horiz-adv-x="665" unicode="R" d="M537 15l-197 300h-186v-297q0 -18 -18 -18h-19q-7 0 -12 5.5t-5 12.5v691q0 18 17 18h257q98 0 159 -58t61 -149q0 -87 -56 -140t-138 -62l202 -299q3 -3 3 -7q0 -12 -11 -12h-31q-17 0 -26 15zM154 677v-312h207q83 0 129.5 40.5t46.5 114.5q0 71 -43.5 114t-120.5 43 h-219z"/>
<glyph glyph-name="S" horiz-adv-x="655" unicode="S" d="M563 540q0 -18 -18 -18h-20q-17 0 -17 18q0 71 -48 109t-128 38q-83 0 -129.5 -36t-46.5 -105q0 -51 36 -80.5t102 -47.5q50 -15 134 -37q82 -20 122 -63.5t40 -117.5q0 -92 -73 -150t-186 -58q-122 0 -194 63t-72 186q0 20 18 20h20q18 0 18 -20q0 -99 54.5 -148.5 t155.5 -49.5q90 0 147 43.5t57 112.5q0 55 -28 86t-95 48q-49 11 -133 36q-177 52 -177 177q0 88 63.5 139t166.5 51q101 0 166 -52.5t65 -143.5z"/>
<glyph glyph-name="T" horiz-adv-x="555" unicode="T" d="M522 677h-217v-659q0 -18 -19 -18h-17q-18 0 -18 18v659h-218q-18 0 -18 18v14q0 18 18 18h489q18 0 18 -18v-14q0 -18 -18 -18z"/>
<glyph glyph-name="U" horiz-adv-x="697" unicode="U" d="M597 709v-470q0 -116 -67 -181.5t-183 -65.5q-114 0 -180.5 65.5t-66.5 180.5v471q0 18 18 18h16q19 0 19 -18v-471q0 -93 52 -145t142 -52q93 0 144.5 51.5t51.5 145.5v471q0 18 19 18h17q18 0 18 -18z"/>
<glyph glyph-name="V" horiz-adv-x="650" unicode="V" d="M603 709l-240 -693q-5 -16 -23 -16h-29q-17 0 -22 16l-242 693q-1 2 -1 6q0 12 12 12h24q18 0 22 -15l222 -647l219 647q6 15 23 15h24q12 0 12 -12q0 -4 -1 -6z"/>
<glyph glyph-name="W" horiz-adv-x="855" unicode="W" d="M561 18l-133 634l-132 -634q-5 -18 -22 -18h-30q-19 0 -24 18l-164 691q-4 18 14 18h22q20 0 23 -15l143 -633l129 630q3 18 22 18h38q19 0 22 -18l130 -630l142 633q3 15 22 15h24q7 0 10.5 -5t1.5 -13l-165 -691q-4 -18 -22 -18h-30q-17 0 -21 18z"/>
<glyph glyph-name="X" horiz-adv-x="659" unicode="X" d="M361 372l236 -354q2 -4 2 -6q0 -12 -13 -12h-27q-14 0 -23 14l-206 311l-208 -311q-9 -14 -22 -14h-28q-12 0 -12 11q0 3 2 7l236 354l-226 337q-4 7 -0.5 12.5t11.5 5.5h27q14 0 22 -14l198 -297l196 297q8 14 22 14h27q8 0 11.5 -5.5t-0.5 -12.5z"/>
<glyph glyph-name="Y" horiz-adv-x="594" unicode="Y" d="M272 18v249l-250 441q-2 4 -2 7q0 12 13 12h23q16 0 24 -14l219 -390l215 390q8 14 24 14h25q11 0 11 -12q0 -3 -2 -7l-246 -441v-249q0 -8 -5.5 -13t-13.5 -5h-18q-17 0 -17 18z"/>
<glyph glyph-name="Z" horiz-adv-x="591" unicode="Z" d="M65 69l409 607h-390q-18 0 -18 19v15q0 17 18 17h431q18 0 18 -17v-22q0 -16 -10 -29l-409 -608h405q17 0 17 -18v-16q0 -17 -17 -17h-446q-18 0 -18 17v23q0 14 10 29z"/>
<glyph glyph-name="bracketleft" horiz-adv-x="378" unicode="[" d="M90 -19v767q0 18 17 18h225q16 0 16 -18v-14q0 -18 -16 -18h-189v-704h189q16 0 16 -17v-14q0 -18 -16 -18h-225q-17 0 -17 18z"/>
<glyph glyph-name="backslash" horiz-adv-x="503" unicode="\" d="M88 726l372 -702q2 -3 2 -9q0 -11 -9 -15l-12 -6q-3 -2 -8 -2q-11 0 -16 9l-374 699q-3 4 -3 10q0 11 9 16l14 8q3 2 9 2q12 0 16 -10z"/>
<glyph glyph-name="bracketright" horiz-adv-x="378" unicode="]" d="M288 748v-767q0 -18 -17 -18h-224q-17 0 -17 18v14q0 17 17 17h187v704h-187q-17 0 -17 18v14q0 18 17 18h224q17 0 17 -18z"/>
<glyph glyph-name="asciicircum" horiz-adv-x="537" unicode="^" d="M434 497l-165 170l-167 -170q-5 -5 -12 -5q-8 0 -13 5l-10 9q-6 6 -6 13q0 8 6 14l189 190q5 5 13 5t13 -5l188 -190q6 -6 6 -14q0 -7 -6 -13l-9 -9q-5 -5 -14 -5q-8 0 -13 5z"/>
<glyph glyph-name="underscore" d="M436 -47h-358q-17 0 -17 17v13q0 17 17 17h358q16 0 16 -17v-13q0 -17 -16 -17z" unicode="_"/>
<glyph glyph-name="grave" horiz-adv-x="400" unicode="`" d="M181 688l60 -121q2 -4 2 -6q0 -10 -10 -10h-21q-16 0 -25 14l-79 119q-3 4 -3 8q0 11 12 11h38q19 0 26 -15z"/>
<glyph glyph-name="a" horiz-adv-x="551" unicode="a" d="M224 44q6 0 16.5 -0.5t15.5 -0.5t15.5 0.5t15.5 0.5q51 2 83 33t32 72v113q-24 -32 -100 -35l-77 -2q-116 -3 -116 -87q0 -44 30 -68t85 -26zM481 50h18q17 0 17 -16v-16q0 -18 -17 -18h-19q-29 0 -50.5 16.5t-24.5 40.5q-37 -57 -119 -62q-5 0 -15.5 -0.5t-15.5 -0.5 t-15.5 0.5t-16.5 0.5q-79 4 -123 41t-44 101q0 66 46 99.5t122 35.5l78 2q78 4 100 36v9q0 64 -38 102.5t-105 38.5q-66 0 -102 -32t-42 -85q-2 -15 -19 -15h-20q-17 0 -15 16q8 72 62 117.5t136 45.5q88 0 140.5 -52.5t52.5 -135.5v-241q0 -12 8 -20t21 -8z"/>
<glyph glyph-name="b" horiz-adv-x="560" unicode="b" d="M131 366v-231q53 -95 156 -95q78 0 123.5 58t45.5 150q0 89 -46.5 149.5t-122.5 60.5q-102 0 -156 -92zM131 61l-1 -42q0 -19 -19 -19h-14q-17 0 -17 19v689q0 19 17 19h16q18 0 18 -19v-270q71 69 157 69q101 0 161.5 -74t60.5 -185q0 -113 -60.5 -184.5t-162.5 -71.5 q-90 0 -156 69z"/>
<glyph glyph-name="c" horiz-adv-x="534" unicode="c" d="M475 354q6 -17 -12 -22l-16 -6q-17 -5 -22 13q-36 119 -151 119q-78 0 -125.5 -60.5t-47.5 -148.5t47.5 -148.5t123.5 -60.5q56 0 98 33.5t62 87.5q7 18 23 18h17q16 0 16 -13q0 -4 -1 -6q-23 -77 -79.5 -122.5t-136.5 -45.5q-101 0 -161 74.5t-60 182.5t62.5 183 t161.5 75q153 0 201 -153z"/>
<glyph glyph-name="d" horiz-adv-x="560" unicode="d" d="M428 135v231q-53 92 -154 92q-78 0 -124 -60t-46 -150q0 -92 45.5 -150t124.5 -58q103 0 154 95zM430 19l-2 41q-63 -68 -154 -68q-103 0 -163.5 71.5t-60.5 184.5q0 112 61 185.5t163 73.5q86 0 154 -68v269q0 19 19 19h16q17 0 17 -19v-689q0 -19 -17 -19h-14 q-19 0 -19 19z"/>
<glyph glyph-name="e" horiz-adv-x="535" unicode="e" d="M463 248h-361q-1 -93 45.5 -150.5t124.5 -57.5q107 0 150 101q7 19 23 19h19q8 0 11.5 -6.5t1.5 -14.5q-23 -69 -77.5 -108t-127.5 -39q-103 0 -162.5 73.5t-59.5 186.5q0 107 62.5 181t162.5 74q89 0 146 -62t59 -149v-28q0 -20 -17 -20zM106 296h324q0 72 -44.5 117.5 t-111.5 45.5q-69 0 -113.5 -46t-54.5 -117z"/>
<glyph glyph-name="f" horiz-adv-x="328" unicode="f" d="M129 449h-84q-19 0 -19 18v12q0 19 19 19h84v131q0 43 29.5 70.5t72.5 27.5h53q19 0 19 -18v-13q0 -8 -5.5 -13.5t-13.5 -5.5h-53q-22 0 -36 -12.5t-14 -35.5v-131h109q8 0 13.5 -5.5t5.5 -13.5v-12q0 -18 -19 -18h-109v-430q0 -19 -19 -19h-15q-18 0 -18 19v430z"/>
<glyph glyph-name="g" horiz-adv-x="560" unicode="g" d="M428 136v230q-23 40 -63 66t-92 26q-78 0 -124 -59.5t-46 -150.5q0 -92 46 -149.5t125 -57.5q52 0 91.5 26.5t62.5 68.5zM73 -52q0 19 19 19h18q18 0 18 -19q3 -108 140 -108q72 0 116 40.5t44 109.5v72q-65 -70 -154 -70q-103 0 -163.5 71.5t-60.5 184.5 q0 112 60.5 185.5t162.5 73.5q87 0 155 -70l1 42q0 8 5.5 13.5t13.5 5.5h15q7 0 12 -5.5t5 -13.5v-488q0 -87 -59 -143.5t-152 -56.5q-89 0 -141 41.5t-55 115.5z"/>
<glyph glyph-name="h" horiz-adv-x="572" unicode="h" d="M439 19v290q0 67 -39 108t-106 41q-59 0 -106 -40t-57 -89v-310q0 -19 -18 -19h-16q-17 0 -17 19v689q0 8 5 13.5t13 5.5h16q17 0 17 -19v-287q68 86 167 86q89 0 141.5 -55.5t52.5 -143.5v-289q0 -8 -6 -13.5t-14 -5.5h-16q-17 0 -17 19z"/>
<glyph glyph-name="i" horiz-adv-x="282" unicode="i" d="M83 651q0 25 17 42.5t42 17.5t42.5 -17.5t17.5 -42.5t-17.5 -42t-42.5 -17t-42 17t-17 42zM116 19v460q0 8 5.5 13.5t12.5 5.5h17q17 0 17 -19v-460q0 -19 -18 -19h-17q-17 0 -17 19z"/>
<glyph glyph-name="j" horiz-adv-x="270" unicode="j" d="M77 651q0 25 17 42.5t42 17.5t42.5 -17.5t17.5 -42.5t-17.5 -42t-42.5 -17t-42 17t-17 42zM29 -143h30q23 0 37 12.5t14 34.5v575q0 8 5 13.5t12 5.5h17q18 0 18 -19v-572q0 -45 -28 -72.5t-75 -27.5h-30q-19 0 -19 18v13q0 19 19 19z"/>
<glyph glyph-name="k" horiz-adv-x="502" unicode="k" d="M131 240l251 243q19 15 34 15h22q13 0 13 -13q0 -7 -5 -11l-207 -197l228 -253q4 -4 4 -11q0 -13 -13 -13h-20q-21 0 -33 14l-201 227l-73 -70v-152q0 -19 -18 -19h-16q-17 0 -17 19v689q0 19 17 19h16q18 0 18 -19v-468z"/>
<glyph glyph-name="l" horiz-adv-x="254" unicode="l" d="M215 0h-42q-42 0 -67 23.5t-25 65.5v619q0 19 18 19h16q17 0 17 -19v-619q0 -18 11 -29t29 -11h44q18 0 18 -17v-13q0 -8 -5.5 -13.5t-13.5 -5.5z"/>
<glyph glyph-name="m" horiz-adv-x="784" unicode="m" d="M652 19v335q0 50 -30.5 77.5t-82.5 27.5q-49 0 -80.5 -29.5t-40.5 -76.5v-334q0 -19 -17 -19h-15q-18 0 -18 19v334q0 46 -31 76t-81 30q-51 0 -85 -31.5t-39 -78.5v-330q0 -19 -19 -19h-16q-17 0 -17 19v460q0 8 5 13.5t12 5.5h16q18 0 18 -19l1 -35q55 63 128 63 q91 0 142 -69q59 69 141 69q72 0 116.5 -41t44.5 -112v-335q0 -19 -19 -19h-15q-8 0 -13 5.5t-5 13.5z"/>
<glyph glyph-name="n" horiz-adv-x="571" unicode="n" d="M439 19v290q0 67 -39 108t-106 41q-59 0 -106 -40t-57 -89v-310q0 -19 -18 -19h-16q-17 0 -17 19v460q0 8 5 13.5t12 5.5h14q19 0 19 -19l1 -58q68 86 167 86q89 0 141 -55.5t52 -143.5v-289q0 -19 -19 -19h-16q-17 0 -17 19z"/>
<glyph glyph-name="o" horiz-adv-x="552" unicode="o" d="M277 459q-77 0 -126.5 -59.5t-49.5 -149.5q0 -88 50 -148.5t126 -60.5q75 0 124.5 60.5t49.5 148.5q0 90 -49.5 149.5t-124.5 59.5zM277 -8q-96 0 -161.5 74t-65.5 184q0 112 65 184.5t162 72.5q96 0 160.5 -72.5t64.5 -184.5q0 -110 -65.5 -184t-159.5 -74z"/>
<glyph glyph-name="p" horiz-adv-x="560" unicode="p" d="M131 366v-231q53 -95 156 -95q78 0 123.5 58t45.5 150q0 90 -46.5 150t-122.5 60q-102 0 -156 -92zM131 60v-234q0 -19 -18 -19h-16q-17 0 -17 19v653q0 8 5 13.5t12 5.5h14q19 0 19 -19l1 -42q70 70 157 70q101 0 161.5 -74t60.5 -185q0 -113 -60.5 -184.5t-162.5 -71.5 q-91 0 -156 68z"/>
<glyph glyph-name="q" horiz-adv-x="560" unicode="q" d="M428 135v231q-53 92 -154 92q-76 0 -123 -60t-47 -150q0 -92 45.5 -150t124.5 -58q103 0 154 95zM428 -174v234q-63 -68 -154 -68q-103 0 -163.5 71.5t-60.5 184.5q0 112 60.5 185.5t162.5 73.5q87 0 155 -70l1 42q0 8 5.5 13.5t14.5 5.5h14q7 0 12 -5.5t5 -13.5v-653 q0 -19 -17 -19h-16q-19 0 -19 19z"/>
<glyph glyph-name="r" horiz-adv-x="344" unicode="r" d="M310 453h-19q-114 0 -159 -100v-334q0 -19 -19 -19h-16q-17 0 -17 19v460q0 8 5 13.5t12 5.5h14q9 0 14.5 -5.5t5.5 -13.5l1 -65q59 93 159 93h19q19 0 19 -20v-16q0 -18 -19 -18z"/>
<glyph glyph-name="s" horiz-adv-x="493" unicode="s" d="M371 358v3q0 46 -34.5 72.5t-92.5 26.5t-90.5 -25.5t-32.5 -66.5q0 -28 20.5 -47.5t55.5 -27.5q57 -13 130 -27q52 -12 84 -44.5t32 -82.5q0 -65 -51.5 -106t-145.5 -41q-86 0 -141 44t-55 105v18q0 7 5 12.5t13 5.5h16q19 0 19 -18v-19q0 -41 40 -71t103 -30 q145 0 145 99q0 64 -75 80q-9 2 -57.5 12t-75.5 17q-45 12 -79 42.5t-34 77.5q0 62 48 101t126 39q81 0 129.5 -40.5t48.5 -105.5v-3q0 -18 -18 -18h-16q-17 0 -17 18z"/>
<glyph glyph-name="t" horiz-adv-x="349" unicode="t" d="M284 0h-53q-43 0 -72 27.5t-29 70.5v351h-92q-18 0 -18 18v12q0 8 5 13.5t13 5.5h92v165q0 7 5 12.5t13 5.5h16q18 0 18 -18v-165h109q8 0 13 -5.5t5 -13.5v-12q0 -18 -18 -18h-109v-353q0 -20 13.5 -33.5t34.5 -13.5h54q19 0 19 -18v-13q0 -18 -19 -18z"/>
<glyph glyph-name="u" horiz-adv-x="569" unicode="u" d="M438 167v312q0 19 18 19h16q17 0 17 -19v-460q0 -19 -17 -19h-15q-18 0 -18 19l-1 57q-27 -39 -69.5 -61.5t-91.5 -22.5q-88 0 -142.5 52t-54.5 137v298q0 19 19 19h15q18 0 18 -19v-298q0 -63 39.5 -102.5t106.5 -39.5q62 0 107.5 39.5t52.5 88.5z"/>
<glyph glyph-name="v" horiz-adv-x="494" unicode="v" d="M214 14l-194 466q-1 2 -1 5q0 13 13 13h21q17 0 24 -15l169 -421l173 421q7 15 23 15h20q13 0 13 -13q0 -3 -1 -5l-194 -466q-6 -14 -22 -14h-22q-16 0 -22 14z"/>
<glyph glyph-name="w" horiz-adv-x="712" unicode="w" d="M469 14l-112 413l-115 -413q-4 -14 -21 -14h-20q-19 0 -23 14l-142 466q-1 2 -1 5q0 13 14 13h20q19 0 23 -15l117 -410l115 409q4 16 20 16h24q17 0 21 -16l115 -410l116 411q4 15 22 15h21q14 0 14 -13q0 -3 -1 -5l-143 -466q-3 -14 -22 -14h-20q-19 0 -22 14z"/>
<glyph glyph-name="x" horiz-adv-x="467" unicode="x" d="M33 20l168 232l-166 226q-2 2 -2 8q0 12 12 12h21q16 0 27 -15l140 -191l140 191q11 15 26 15h22q8 0 10.5 -7.5t-1.5 -12.5l-166 -226l170 -232q2 -2 2 -8q0 -12 -11 -12h-23q-14 0 -26 14l-143 195l-142 -195q-10 -14 -27 -14h-21q-12 0 -12 12q0 6 2 8z"/>
<glyph glyph-name="y" horiz-adv-x="506" unicode="y" d="M58 -201q-17 5 -12 22l4 15q5 18 23 12q18 -7 35 -7q36 0 53 41l60 133l-195 465q-1 2 -1 5q0 13 13 13h21q18 0 24 -15l167 -404l174 404q6 15 23 15h21q13 0 13 -13q0 -3 -1 -5l-274 -619q-32 -69 -100 -69q-24 0 -48 7z"/>
<glyph glyph-name="z" horiz-adv-x="471" unicode="z" d="M425 437l-327 -388h315q20 0 20 -17v-13q0 -19 -20 -19h-359q-19 0 -19 19v19q0 14 12 26l326 385h-312q-18 0 -18 18v12q0 8 5 13.5t13 5.5h356q19 0 19 -19v-16q0 -12 -11 -26z"/>
<glyph glyph-name="braceleft" horiz-adv-x="419" unicode="{" d="M77 343h-5q-17 0 -17 18v14q0 18 17 18h5q35 0 55 19.5t20 53.5v161q0 57 42.5 97.5t100.5 40.5h86q18 0 18 -18v-14q0 -18 -18 -18h-86q-38 0 -64 -25t-26 -63v-161q0 -36 -19 -61.5t-46 -36.5q28 -10 46.5 -35.5t18.5 -62.5v-169q0 -39 26 -64t64 -25h86q18 0 18 -17 v-14q0 -18 -18 -18h-86q-58 0 -100.5 40t-42.5 98v169q0 34 -20 53.5t-55 19.5z"/>
<glyph glyph-name="bar" horiz-adv-x="262" unicode="|" d="M105 -178v887q0 18 17 18h16q19 0 19 -18v-887q0 -7 -5.5 -12.5t-13.5 -5.5h-16q-17 0 -17 18z"/>
<glyph glyph-name="braceright" horiz-adv-x="419" unicode="}" d="M346 343h-5q-35 0 -54 -19.5t-19 -53.5v-169q0 -58 -43 -98t-101 -40h-86q-18 0 -18 18v14q0 17 18 17h86q37 0 63 25t26 64v169q0 37 18.5 62.5t46.5 35.5q-27 11 -46 36.5t-19 61.5v161q0 38 -26 63t-63 25h-86q-18 0 -18 18v14q0 18 18 18h86q58 0 101 -40.5t43 -97.5 v-161q0 -34 19 -53.5t54 -19.5h5q18 0 18 -18v-14q0 -18 -18 -18z"/>
<glyph glyph-name="asciitilde" d="M242 224q-35 24 -54 24q-20 0 -32 -11.5t-12 -30.5t-18 -19h-15q-18 0 -18 19q0 41 26.5 65t67.5 24q35 0 83 -33q34 -26 54 -26q19 0 31.5 12t12.5 31t18 19h16q17 0 17 -19q0 -40 -26.5 -64.5t-67.5 -24.5q-35 0 -83 34z" unicode="~"/>
<glyph glyph-name="uni00A0" horiz-adv-x="220" unicode=" "/>
<glyph glyph-name="exclamdown" horiz-adv-x="262" unicode="¡" d="M70 666q0 25 18.5 43t42.5 18q25 0 43 -18t18 -43q0 -26 -18 -43t-43 -17t-43 17t-18 43zM99 18l8 487q0 19 17 19h14q18 0 18 -19l8 -487q0 -18 -20 -18h-27q-7 0 -12.5 5t-5.5 13z"/>
<glyph glyph-name="cent" horiz-adv-x="531" unicode="¢" d="M104 249q0 -80 36.5 -137t101.5 -69v411q-66 -12 -102 -68.5t-36 -136.5zM242 505v175q0 18 17 18h17q18 0 18 -18v-174q136 -12 178 -152q4 -7 0 -13.5t-12 -8.5l-16 -7q-17 -5 -22 13q-34 106 -128 117v-413q47 7 81.5 39t52.5 80q7 18 23 18h18q17 0 17 -14 q0 -3 -1 -5q-22 -71 -71.5 -115.5t-119.5 -51.5v-173q0 -19 -18 -19h-17q-17 0 -17 19v174q-88 9 -140 82t-52 173t52.5 172t139.5 84z"/>
<glyph glyph-name="sterling" horiz-adv-x="613" unicode="£" d="M545 0h-428q-7 0 -12 5t-5 12v16q0 16 17 16h64v287h-64q-17 0 -17 17v16q0 7 5 11.5t12 4.5h64v158q0 86 54 139.5t138 53.5q85 0 137.5 -54t52.5 -140v-34q0 -16 -17 -16h-20q-7 0 -12 5t-5 12v33q0 64 -36 104.5t-100 40.5q-65 0 -101 -40t-36 -104v-158h130 q7 0 12 -4.5t5 -11.5v-16q0 -17 -17 -17h-130v-287h309q18 0 18 -16v-16q0 -17 -18 -17z"/>
<glyph glyph-name="currency" horiz-adv-x="640" unicode="¤" d="M156 335q0 -69 47.5 -116t116.5 -47q68 0 115.5 47t47.5 116q0 68 -47.5 115.5t-115.5 47.5q-69 0 -116.5 -47t-47.5 -116zM502 116l-50 49q-57 -44 -132 -44t-133 44l-49 -50q-6 -6 -13 -6q-6 0 -12 6l-12 12q-6 6 -6 12q0 7 6 13l50 50q-46 57 -46 133q0 74 45 132 l-49 50q-6 6 -6 13q0 5 5 12l12 12q5 5 13 5t13 -5l49 -50q59 44 133 44t132 -45l50 50q6 6 12 6q7 0 13 -6l12 -12q5 -5 5 -12q0 -8 -5 -13l-50 -50q45 -58 45 -131q0 -74 -46 -133l51 -49q5 -5 5 -13t-5 -13l-12 -12q-5 -5 -12 -5t-13 6z"/>
<glyph glyph-name="yen" horiz-adv-x="634" unicode="¥" d="M375 355h166q16 0 16 -17v-15q0 -17 -16 -17h-196v-288q0 -18 -19 -18h-18q-17 0 -17 18v288h-195q-17 0 -17 17v15q0 17 17 17h164l-198 353q-2 4 -2 7q0 12 13 12h25q17 0 23 -14l197 -365l195 365q8 14 22 14h26q13 0 13 -11q0 -2 -2 -8z"/>
<glyph glyph-name="brokenbar" horiz-adv-x="265" unicode="¦" d="M102 -178v335q0 18 17 18h17q8 0 13.5 -5.5t5.5 -12.5v-335q0 -7 -5.5 -12.5t-13.5 -5.5h-17q-17 0 -17 18zM102 373v336q0 18 17 18h17q19 0 19 -18v-336q0 -7 -5.5 -12.5t-13.5 -5.5h-17q-17 0 -17 18z"/>
<glyph glyph-name="section" horiz-adv-x="599" unicode="§" d="M463 261q0 20 -3.5 36t-12.5 29t-15.5 22t-23.5 19.5t-24.5 15t-29.5 15t-29 14.5l-64 33q-42 20 -68 35q-56 -44 -56 -102q0 -17 3.5 -32.5t7.5 -26.5t14.5 -22t16.5 -17.5t21.5 -15.5t22.5 -13t26.5 -13.5t25.5 -12.5l65 -33q50 -26 66 -36q57 45 57 105zM95 4 q0 18 18 18h20q16 0 16 -18q0 -74 40.5 -114.5t118.5 -40.5q70 0 111 38t41 103q0 55 -37 90t-109 68l-68 32q-38 18 -58 29.5t-48 34.5t-41 54.5t-13 73.5q0 34 21.5 70.5t52.5 61.5q-75 61 -75 139q0 91 60.5 144.5t150.5 53.5q99 0 156 -54.5t57 -153.5q0 -7 -5 -12.5 t-14 -5.5h-18q-7 0 -12.5 5.5t-5.5 12.5q0 75 -40.5 116t-117.5 41q-71 0 -113.5 -38.5t-42.5 -104.5q0 -29 10.5 -52t34 -42t44 -31.5t58.5 -31.5l68 -33q78 -38 104 -62q55 -48 55 -127q0 -36 -22 -73t-54 -63q76 -58 76 -138q0 -90 -58.5 -143.5t-147.5 -53.5 q-98 0 -155.5 55t-57.5 152z"/>
<glyph glyph-name="dieresis" horiz-adv-x="500" unicode="¨" d="M294 624q0 22 15 37t37 15t37 -15t15 -37t-15 -36.5t-37 -14.5t-37 14.5t-15 36.5zM102 624q0 22 14.5 37t36.5 15t37.5 -15t15.5 -37t-15 -36.5t-38 -14.5q-22 0 -36.5 14.5t-14.5 36.5z"/>
<glyph glyph-name="copyright" horiz-adv-x="800" unicode="©" d="M526 295q7 18 22 18h17q9 0 12.5 -5.5t1.5 -13.5q-19 -65 -65.5 -103.5t-114.5 -38.5q-87 0 -138.5 61.5t-51.5 153.5t53.5 153.5t137.5 61.5q66 0 110 -34t62 -93q5 -17 -11 -22l-15 -5q-15 -6 -21 11q-30 95 -126 95q-60 0 -99 -47.5t-39 -119.5q0 -73 37.5 -119.5 t99.5 -46.5q93 0 128 94zM400 692q-134 0 -229 -97t-95 -231q0 -135 95 -231t229 -96q133 0 228 96t95 231q0 134 -95.5 231t-227.5 97zM400 -8q-154 0 -262.5 109t-108.5 263q0 153 108.5 262.5t262.5 109.5q153 0 262 -109.5t109 -262.5q0 -154 -109 -263t-262 -109z"/>
<glyph glyph-name="ordfeminine" horiz-adv-x="462" unicode="ª" d="M398 404q8 0 13.5 -5t5.5 -13v-12q0 -17 -21 -17q-28 0 -47.5 13.5t-24.5 33.5q-11 -20 -39 -33.5t-58 -13.5h-38q-59 0 -94 29.5t-35 79.5q0 48 35 74.5t92 26.5h61q49 0 67 27v4q0 94 -103 94q-90 0 -99 -82q-2 -16 -20 -16h-12q-7 0 -12.5 5t-4.5 12q6 58 45.5 91.5 t103.5 33.5q65 0 106.5 -36t41.5 -102v-162q0 -16 11 -24t26 -8zM189 402h41q40 0 62.5 19t22.5 46v87q-19 -30 -68 -30l-60 -1q-39 0 -58.5 -15.5t-19.5 -40.5q0 -29 21 -47t59 -18z"/>
<glyph glyph-name="guillemotleft" horiz-adv-x="537" unicode="«" d="M315 263l172 -169q5 -7 5 -13t-5 -13l-10 -10q-7 -6 -14 -6t-13 6l-189 190q-12 16 0 27l189 191q7 5 13 5t14 -5l10 -10q5 -7 5 -13q0 -7 -5 -12zM104 263l174 -169q5 -5 5 -13t-5 -13l-11 -10q-5 -6 -12 -6t-15 6l-189 190q-6 8 -6 15t6 12l189 191q8 5 15 5t12 -5 l11 -10q5 -5 5 -13t-5 -12z"/>
<glyph glyph-name="logicalnot" d="M399 59v164h-322q-17 0 -17 17v16q0 17 17 17h358q16 0 16 -17v-197q0 -18 -18 -18h-17q-17 0 -17 18z" unicode="¬"/>
<glyph glyph-name="uni00AD" horiz-adv-x="391" unicode="­" d="M313 230h-235q-18 0 -18 17v18q0 16 18 16h235q18 0 18 -16v-18q0 -17 -18 -17z"/>
<glyph glyph-name="registered" horiz-adv-x="800" unicode="®" d="M499 177l-96 138h-92v-135q0 -17 -18 -17h-15q-7 0 -11.5 5t-4.5 12v380q0 7 4.5 12t11.5 5h152q58 0 99 -37.5t41 -94.5q0 -49 -33 -83t-79 -44l98 -137q4 -5 1 -11.5t-11 -6.5h-22q-17 0 -25 14zM311 362h118q37 0 64 23.5t27 59.5q0 39 -25.5 62.5t-63.5 23.5h-120 v-169zM400 692q-134 0 -229 -97t-95 -231q0 -135 95 -231t229 -96q133 0 228 96t95 231q0 134 -95.5 231t-227.5 97zM400 -8q-154 0 -262.5 109t-108.5 263q0 153 108.5 262.5t262.5 109.5q153 0 262 -109.5t109 -262.5q0 -154 -109 -263t-262 -109z"/>
<glyph glyph-name="macron" horiz-adv-x="500" unicode="¯" d="M367 578h-234q-18 0 -18 18v15q0 17 18 17h234q17 0 17 -17v-15q0 -18 -17 -18z"/>
<glyph glyph-name="degree" horiz-adv-x="383" unicode="°" d="M191 690q-33 0 -55 -23t-22 -58q0 -34 22 -57t55 -23q34 0 57.5 23t23.5 57q0 35 -23.5 58t-57.5 23zM191 736q53 0 90 -37t37 -90q0 -52 -37 -89t-90 -37q-51 0 -88.5 37t-37.5 89t37.5 89.5t88.5 37.5z"/>
<glyph glyph-name="plusminus" d="M435 0h-358q-17 0 -17 17v15q0 16 17 16h358q16 0 16 -16v-15q0 -17 -16 -17zM281 466v-148h154q7 0 11.5 -5.5t4.5 -12.5v-14q0 -17 -16 -17h-154v-150q0 -17 -16 -17h-18q-17 0 -17 17v150h-153q-17 0 -17 17v14q0 7 5 12.5t12 5.5h153v148q0 7 5 12t12 5h18 q16 0 16 -17z" unicode="±"/>
<glyph glyph-name="twosuperior" horiz-adv-x="435" unicode="²" d="M87 421l148 112q25 19 35.5 28.5t20 25.5t9.5 35q0 31 -23.5 50t-64.5 19q-39 0 -63 -19.5t-24 -49.5q0 -8 -5 -13.5t-13 -5.5h-17q-18 0 -18 19q0 48 40 81t100 33q62 0 100 -32t38 -81q0 -23 -6.5 -41t-22 -35t-26 -26t-34.5 -27l-129 -90h211q19 0 19 -17v-13 q0 -17 -19 -17h-254q-19 0 -19 17v18q0 17 17 29z"/>
<glyph glyph-name="threesuperior" horiz-adv-x="435" unicode="³" d="M192 576h31q34 0 55 15t21 39q0 27 -24 44t-65 17q-39 0 -63.5 -16.5t-25.5 -43.5q0 -7 -5 -12.5t-12 -5.5h-17q-17 0 -17 18q0 47 40 76t100 29q62 0 100.5 -29t38.5 -77q0 -24 -15.5 -45t-38.5 -29q33 -10 52.5 -33t19.5 -55q0 -54 -46 -85t-112 -31q-64 0 -112 29 t-48 76q0 15 17 15h18q18 0 20 -16q3 -23 31 -40t74 -17q48 0 77 18t29 51q0 29 -28 45t-64 16h-31q-17 0 -17 17v13q0 17 17 17z"/>
<glyph glyph-name="acute" horiz-adv-x="400" unicode="´" d="M179 567l66 121q9 15 26 15h38q12 0 12 -11q0 -4 -3 -8l-85 -119q-9 -14 -25 -14h-21q-10 0 -10 10q0 2 2 6z"/>
<glyph glyph-name="paragraph" horiz-adv-x="630" unicode="¶" d="M256 727h221q17 0 17 -18v-825q0 -12 9 -20t21 -8h49q17 0 17 -16v-15q0 -18 -17 -18h-50q-35 0 -57.5 20.5t-22.5 56.5v793h-133v-852q0 -18 -18 -18h-18q-18 0 -18 18v476q-107 0 -168 57t-61 154q0 96 62 155.5t167 59.5z"/>
<glyph glyph-name="periodcentered" horiz-adv-x="220" unicode="·" d="M50 279q0 26 17.5 43.5t42.5 17.5t42.5 -17.5t17.5 -43.5q0 -25 -17 -42.5t-43 -17.5t-43 17.5t-17 42.5z"/>
<glyph glyph-name="cedilla" horiz-adv-x="500" unicode="¸" d="M228 -74v84q0 20 18 20h16q18 0 18 -19v-84q0 -44 -27.5 -69t-71.5 -25h-39q-18 0 -18 18v13q0 19 19 19h39q46 0 46 43z"/>
<glyph glyph-name="onesuperior" horiz-adv-x="435" unicode="¹" d="M247 404h99q17 0 17 -16v-15q0 -16 -17 -16h-251q-17 0 -17 16v15q0 16 17 16h100v249q-30 -54 -90 -89q-17 -8 -25 3l-8 12q-3 6 -3 10q0 9 9 15q58 38 107 107q10 16 24 16h19q19 0 19 -18v-305z"/>
<glyph glyph-name="ordmasculine" horiz-adv-x="462" unicode="º" d="M353 546q0 61 -33.5 102.5t-87.5 41.5q-55 0 -88 -41.5t-33 -102.5t33 -102t88 -41q54 0 87.5 41t33.5 102zM61 545q0 82 50.5 136.5t120.5 54.5t119.5 -54.5t49.5 -136.5q0 -81 -50 -135t-119 -54q-70 0 -120.5 53.5t-50.5 135.5z"/>
<glyph glyph-name="guillemotright" horiz-adv-x="537" unicode="»" d="M51 94l172 169l-172 168q-5 4 -5 12t5 13l10 10q7 5 13 5q7 0 14 -5l190 -191q12 -11 0 -27l-190 -190q-6 -6 -14 -6q-7 0 -13 6l-10 10q-5 5 -5 13t5 13zM261 94l171 169l-171 168q-5 4 -5 12t5 13l9 10q7 5 14 5q6 0 13 -5l190 -191q5 -5 5 -12t-5 -15l-190 -190 q-6 -6 -14 -6q-7 0 -13 6l-9 10q-5 5 -5 13t5 13z"/>
<glyph glyph-name="onequarter" horiz-adv-x="800" unicode="¼" d="M221 404h99q18 0 18 -16v-15q0 -16 -18 -16h-250q-19 0 -19 16v15q0 16 19 16h100v249q-33 -56 -91 -89q-15 -8 -26 3l-7 12q-3 6 -3 10q0 9 8 15q59 36 109 107q10 16 22 16h20q19 0 19 -18v-305zM135 29l528 698q4 8 14 8q5 0 10 -3l12 -10q14 -12 3 -27l-528 -696 q-6 -7 -14 -7q-5 0 -11 3l-10 8q-8 6 -8 15q0 3 4 11zM405 153l181 205q14 14 27 14h23q17 0 17 -18v-215h64q8 0 13.5 -5t5.5 -12v-12q0 -7 -5.5 -12t-13.5 -5h-64v-75q0 -18 -18 -18h-15q-17 0 -17 18v75h-194q-18 0 -18 17v15q0 12 14 28zM452 139h151v170z"/>
<glyph glyph-name="onehalf" horiz-adv-x="800" unicode="½" d="M217 404h99q18 0 18 -16v-15q0 -16 -18 -16h-250q-18 0 -18 16v15q0 16 18 16h100v249q-33 -56 -91 -89q-15 -8 -26 3l-7 12q-3 6 -3 10q0 9 9 15q59 37 108 107q10 16 22 16h20q19 0 19 -18v-305zM476 64l149 112q25 20 35 29t20 25.5t10 35.5q0 30 -24 49.5t-64 19.5 t-64 -20t-24 -49q0 -8 -5 -14t-12 -6h-18q-16 0 -16 20q0 47 40 80t99 33q61 0 99.5 -31.5t38.5 -80.5q0 -43 -23 -71t-68 -60l-126 -88h210q20 0 20 -18v-13q0 -17 -20 -17h-255q-7 0 -12 5t-5 12v18q0 17 15 29zM131 29l528 698q4 8 14 8q5 0 10 -3l12 -10q7 -6 7 -15 q0 -8 -4 -12l-528 -696q-6 -7 -14 -7q-5 0 -11 3l-10 8q-8 6 -8 15q0 3 4 11z"/>
<glyph glyph-name="threequarters" horiz-adv-x="800" unicode="¾" d="M212 576q34 0 55 15t21 39q0 27 -24 44t-65 17q-39 0 -63 -16.5t-25 -43.5q0 -7 -6 -12.5t-13 -5.5h-15q-19 0 -19 18q0 47 40.5 76t100.5 29q62 0 100.5 -29t38.5 -77q0 -24 -15.5 -45t-38.5 -29q32 -10 52 -33.5t20 -54.5q0 -54 -46 -85t-113 -31q-62 0 -110.5 29 t-48.5 76q0 15 17 15h19q16 0 18 -16q3 -23 31.5 -40t73.5 -17q48 0 77.5 18t29.5 51q0 29 -28 45t-64 16h-31q-18 0 -18 17v13q0 17 18 17h31zM124 29l527 699q5 8 15 8q6 0 10 -3l12 -10q13 -13 3 -27l-528 -697q-6 -7 -14 -7q-5 0 -9 3l-12 8q-8 6 -8 15q0 3 4 11z M595 358q11 14 27 14h23q17 0 17 -18v-215h65q7 0 12.5 -5t5.5 -13v-11q0 -7 -5.5 -12t-12.5 -5h-65v-75q0 -18 -18 -18h-15q-17 0 -17 18v75h-194q-19 0 -19 17v15q0 13 15 28zM612 139v170l-151 -170h151z"/>
<glyph glyph-name="questiondown" horiz-adv-x="507" unicode="¿" d="M331 666q0 -26 -18 -43t-43 -17t-43.5 17t-18.5 43q0 25 18.5 43t43.5 18t43 -18t18 -43zM241 505q0 19 19 19h19q7 0 12.5 -6t5.5 -13q0 -55 -31.5 -94t-89.5 -77q-25 -18 -39 -31.5t-28.5 -42.5t-14.5 -64q0 -69 45 -112t115 -43q73 0 115 47t42 122q0 18 19 18h18 q8 0 13.5 -5t5.5 -13q0 -93 -56.5 -155.5t-155.5 -62.5q-93 0 -154 57t-61 147q0 104 109 179q50 34 71 62.5t21 67.5z"/>
<glyph glyph-name="Agrave" horiz-adv-x="674" unicode="À" d="M303 891l58 -108q3 -5 0.5 -10t-8.5 -5h-23q-14 0 -24 14l-81 107q-4 5 -1.5 11t9.5 6h46q17 0 24 -15zM580 15l-73 195h-341l-73 -195q-5 -15 -22 -15h-23q-13 0 -13 13q0 3 1 5l264 693q5 16 23 16h29q19 0 22 -16l264 -693q1 -2 1 -5q0 -13 -13 -13h-23q-18 0 -23 15z M489 260l-152 402l-154 -402h306z"/>
<glyph glyph-name="Aacute" horiz-adv-x="674" unicode="Á" d="M318 783l66 108q9 15 24 15h46q7 0 9.5 -6t-1.5 -11l-89 -107q-11 -14 -24 -14h-23q-6 0 -8.5 5t0.5 10zM580 15l-73 195h-341l-73 -195q-5 -15 -22 -15h-23q-13 0 -13 13q0 3 1 5l264 693q5 16 23 16h29q19 0 22 -16l264 -693q1 -2 1 -5q0 -13 -13 -13h-23q-18 0 -23 15 zM489 260l-152 402l-154 -402h306z"/>
<glyph glyph-name="Acircumflex" horiz-adv-x="674" unicode="Â" d="M326 899h22q12 0 22 -12l89 -104q4 -5 1.5 -10.5t-8.5 -5.5h-29q-11 0 -20 11l-66 73l-66 -73q-9 -11 -20 -11h-29q-6 0 -8.5 5.5t1.5 10.5l89 104q10 12 22 12zM580 15l-73 195h-341l-73 -195q-5 -15 -22 -15h-23q-13 0 -13 13q0 3 1 5l264 693q5 16 23 16h29 q19 0 22 -16l264 -693q1 -2 1 -5q0 -13 -13 -13h-23q-18 0 -23 15zM489 260l-152 402l-154 -402h306z"/>
<glyph glyph-name="Atilde" horiz-adv-x="674" unicode="Ã" d="M194 797q3 36 27.5 56.5t60.5 20.5q25 0 61.5 -24t57.5 -24q27 0 33 28q3 17 18 17h15q16 0 14 -17q-3 -36 -27.5 -56t-60.5 -20q-29 0 -66.5 24t-51.5 24q-29 0 -33 -29q-3 -17 -18 -17h-16q-16 0 -14 17zM580 15l-73 195h-341l-73 -195q-5 -15 -22 -15h-23 q-13 0 -13 13q0 3 1 5l264 693q5 16 23 16h29q19 0 22 -16l264 -693q1 -2 1 -5q0 -13 -13 -13h-23q-18 0 -23 15zM489 260l-152 402l-154 -402h306z"/>
<glyph glyph-name="Adieresis" horiz-adv-x="674" unicode="Ä" d="M381 827q0 22 15.5 37.5t37.5 15.5t37 -15.5t15 -37.5t-15 -37t-37 -15t-37.5 15t-15.5 37zM188 827q0 22 14.5 37.5t36.5 15.5t38 -15.5t16 -37.5t-15.5 -37t-38.5 -15q-22 0 -36.5 15t-14.5 37zM580 15l-73 195h-341l-73 -195q-5 -15 -22 -15h-23q-13 0 -13 13q0 3 1 5 l264 693q5 16 23 16h29q19 0 22 -16l264 -693q1 -2 1 -5q0 -13 -13 -13h-23q-18 0 -23 15zM489 260l-152 402l-154 -402h306z"/>
<glyph glyph-name="Aring" horiz-adv-x="674" unicode="Å" d="M293 839q0 -20 12.5 -33t32.5 -13q19 0 32 13.5t13 32.5t-13 32.5t-32 13.5q-20 0 -32.5 -13.5t-12.5 -32.5zM253 839q0 35 25 59.5t60 24.5t59.5 -24.5t24.5 -59.5t-24.5 -59.5t-59.5 -24.5t-60 24.5t-25 59.5zM580 15l-73 195h-341l-73 -195q-5 -15 -22 -15h-23 q-13 0 -13 13q0 3 1 5l264 693q5 16 23 16h29q19 0 22 -16l264 -693q1 -2 1 -5q0 -13 -13 -13h-23q-18 0 -23 15zM489 260l-152 402l-154 -402h306z"/>
<glyph glyph-name="AE" horiz-adv-x="995" unicode="Æ" d="M498 678l-255 -418h255v418zM928 0h-411q-18 0 -18 18l-1 192h-285l-119 -195q-9 -15 -25 -15h-25q-14 0 -14 12q0 2 2 6l427 694q9 15 29 15h419q18 0 18 -17v-15q0 -7 -5.5 -12.5t-12.5 -5.5h-354v-273h279q17 0 17 -17v-15q0 -18 -17 -18h-279v-305h375q17 0 17 -16 v-16q0 -17 -17 -17z"/>
<glyph glyph-name="Ccedilla" horiz-adv-x="708" unicode="Ç" d="M587 188q9 16 23 16h22q15 0 15 -14q0 -3 -1 -5q-75 -180 -251 -192v-66q0 -44 -27.5 -69t-71.5 -25h-39q-18 0 -18 18v13q0 19 19 19h39q46 0 46 43v67q-126 10 -202 114t-76 256q0 167 84.5 270t224.5 103q99 0 166 -53.5t95 -149.5q7 -17 -10 -23l-17 -6 q-20 -6 -25 11q-24 78 -77.5 125t-131.5 47q-115 0 -184.5 -89.5t-69.5 -234.5q0 -138 67.5 -229.5t178.5 -91.5q78 0 136 39t85 107z"/>
<glyph glyph-name="Egrave" horiz-adv-x="607" unicode="È" d="M298 891l58 -108q3 -5 0.5 -10t-8.5 -5h-23q-13 0 -24 14l-81 107q-4 5 -1.5 11t9.5 6h46q16 0 24 -15zM539 0h-422q-7 0 -12 5.5t-5 12.5v691q0 18 17 18h402q17 0 17 -17v-15q0 -18 -17 -18h-366v-273h291q17 0 17 -17v-15q0 -18 -17 -18h-291v-305h386q18 0 18 -16 v-16q0 -17 -18 -17z"/>
<glyph glyph-name="Eacute" horiz-adv-x="607" unicode="É" d="M293 783l66 108q9 15 24 15h46q7 0 9.5 -6t-1.5 -11l-89 -107q-10 -14 -24 -14h-23q-6 0 -8.5 5t0.5 10zM539 0h-422q-7 0 -12 5.5t-5 12.5v691q0 18 17 18h402q17 0 17 -17v-15q0 -18 -17 -18h-366v-273h291q17 0 17 -17v-15q0 -18 -17 -18h-291v-305h386q18 0 18 -16 v-16q0 -17 -18 -17z"/>
<glyph glyph-name="Ecircumflex" horiz-adv-x="607" unicode="Ê" d="M311 899h22q12 0 22 -12l89 -104q4 -5 1.5 -10.5t-8.5 -5.5h-29q-11 0 -20 11l-66 73l-66 -73q-9 -11 -20 -11h-29q-6 0 -8.5 5.5t1.5 10.5l89 104q10 12 22 12zM539 0h-422q-7 0 -12 5.5t-5 12.5v691q0 18 17 18h402q17 0 17 -17v-15q0 -18 -17 -18h-366v-273h291 q17 0 17 -17v-15q0 -18 -17 -18h-291v-305h386q18 0 18 -16v-16q0 -17 -18 -17z"/>
<glyph glyph-name="Edieresis" horiz-adv-x="607" unicode="Ë" d="M367 827q0 22 15.5 37.5t37.5 15.5t37 -15.5t15 -37.5t-15 -37t-37 -15t-37.5 15t-15.5 37zM174 827q0 22 14.5 37.5t36.5 15.5t38 -15.5t16 -37.5t-15.5 -37t-38.5 -15q-22 0 -36.5 15t-14.5 37zM539 0h-422q-7 0 -12 5.5t-5 12.5v691q0 18 17 18h402q17 0 17 -17v-15 q0 -18 -17 -18h-366v-273h291q17 0 17 -17v-15q0 -18 -17 -18h-291v-305h386q18 0 18 -16v-16q0 -17 -18 -17z"/>
<glyph glyph-name="Igrave" horiz-adv-x="313" unicode="Ì" d="M118 891l58 -108q3 -5 0.5 -10t-8.5 -5h-23q-13 0 -24 14l-81 107q-2 4 -2 7q0 10 10 10h46q16 0 24 -15zM130 18v691q0 18 17 18h18q18 0 18 -18v-691q0 -18 -18 -18h-18q-17 0 -17 18z"/>
<glyph glyph-name="Iacute" horiz-adv-x="313" unicode="Í" d="M138 783l66 108q9 15 24 15h46q10 0 10 -10q0 -3 -2 -7l-89 -107q-10 -14 -24 -14h-23q-6 0 -8.5 5t0.5 10zM130 18v691q0 18 17 18h18q18 0 18 -18v-691q0 -18 -18 -18h-18q-17 0 -17 18z"/>
<glyph glyph-name="Icircumflex" horiz-adv-x="313" unicode="Î" d="M145 899h22q12 0 22 -12l89 -104q2 -2 2 -6q0 -10 -9 -10h-29q-11 0 -20 11l-66 73l-66 -73q-9 -11 -20 -11h-29q-9 0 -9 10q0 4 2 6l89 104q10 12 22 12zM130 18v691q0 18 17 18h18q18 0 18 -18v-691q0 -18 -18 -18h-18q-17 0 -17 18z"/>
<glyph glyph-name="Idieresis" horiz-adv-x="313" unicode="Ï" d="M200 827q0 22 15.5 37.5t37.5 15.5t37 -15.5t15 -37.5t-15 -37t-37 -15t-37.5 15t-15.5 37zM7 827q0 22 14.5 37.5t36.5 15.5t38 -15.5t16 -37.5t-15.5 -37t-38.5 -15q-22 0 -36.5 15t-14.5 37zM130 18v691q0 18 17 18h18q18 0 18 -18v-691q0 -18 -18 -18h-18 q-17 0 -17 18z"/>
<glyph glyph-name="Eth" horiz-adv-x="729" unicode="Ð" d="M143 49h156q126 0 209 88t83 225q0 141 -82 228.5t-211 87.5h-155v-274h180q17 0 17 -17v-15q0 -18 -17 -18h-180v-305zM298 0h-190q-8 0 -13 5t-5 13v336h-39q-16 0 -16 18v15q0 17 16 17h39v305q0 18 18 18h189q156 0 251.5 -100t95.5 -265q0 -160 -98 -261t-248 -101z "/>
<glyph glyph-name="Ntilde" horiz-adv-x="700" unicode="Ñ" d="M212 797q3 36 27.5 56.5t60.5 20.5q25 0 61.5 -24t57.5 -24q27 0 33 28q3 17 18 17h15q16 0 14 -17q-3 -36 -27.5 -56t-60.5 -20q-29 0 -66.5 24t-51.5 24q-29 0 -33 -29q-3 -17 -18 -17h-16q-16 0 -14 17zM526 15l-373 635v-632q0 -18 -19 -18h-17q-7 0 -12 5.5t-5 12.5 v691q0 18 17 18h34q16 0 26 -15l370 -631v628q0 18 18 18h18q17 0 17 -18v-691q0 -18 -17 -18h-32q-17 0 -25 15z"/>
<glyph glyph-name="Ograve" horiz-adv-x="716" unicode="Ò" d="M328 891l58 -108q3 -5 0.5 -10t-8.5 -5h-23q-13 0 -24 14l-81 107q-4 5 -1.5 11t9.5 6h46q16 0 24 -15zM359 687q-107 0 -173 -93t-66 -231q0 -141 65.5 -230.5t173.5 -89.5q107 0 172 89.5t65 230.5q0 138 -66 231t-171 93zM359 -8q-131 0 -212.5 105t-81.5 266 q0 162 81.5 267.5t212.5 105.5q129 0 210.5 -105.5t81.5 -267.5q0 -161 -81 -266t-211 -105z"/>
<glyph glyph-name="Oacute" horiz-adv-x="716" unicode="Ó" d="M338 783l66 108q9 15 24 15h46q7 0 9.5 -6t-1.5 -11l-89 -107q-11 -14 -24 -14h-23q-6 0 -8.5 5t0.5 10zM359 687q-107 0 -173 -93t-66 -231q0 -141 65.5 -230.5t173.5 -89.5q107 0 172 89.5t65 230.5q0 138 -66 231t-171 93zM359 -8q-131 0 -212.5 105t-81.5 266 q0 162 81.5 267.5t212.5 105.5q129 0 210.5 -105.5t81.5 -267.5q0 -161 -81 -266t-211 -105z"/>
<glyph glyph-name="Ocircumflex" horiz-adv-x="716" unicode="Ô" d="M346 899h22q12 0 22 -12l89 -104q4 -5 1.5 -10.5t-8.5 -5.5h-29q-11 0 -20 11l-66 73l-66 -73q-9 -11 -20 -11h-29q-6 0 -8.5 5.5t1.5 10.5l89 104q10 12 22 12zM359 687q-107 0 -173 -93t-66 -231q0 -141 65.5 -230.5t173.5 -89.5q107 0 172 89.5t65 230.5 q0 138 -66 231t-171 93zM359 -8q-131 0 -212.5 105t-81.5 266q0 162 81.5 267.5t212.5 105.5q129 0 210.5 -105.5t81.5 -267.5q0 -161 -81 -266t-211 -105z"/>
<glyph glyph-name="Otilde" horiz-adv-x="716" unicode="Õ" d="M217 797q3 36 27.5 56.5t60.5 20.5q25 0 61.5 -24t57.5 -24q27 0 33 28q3 17 18 17h15q16 0 14 -17q-3 -36 -27.5 -56t-60.5 -20q-29 0 -66.5 24t-51.5 24q-29 0 -33 -29q-3 -17 -18 -17h-16q-16 0 -14 17zM359 687q-107 0 -173 -93t-66 -231q0 -141 65.5 -230.5 t173.5 -89.5q107 0 172 89.5t65 230.5q0 138 -66 231t-171 93zM359 -8q-131 0 -212.5 105t-81.5 266q0 162 81.5 267.5t212.5 105.5q129 0 210.5 -105.5t81.5 -267.5q0 -161 -81 -266t-211 -105z"/>
<glyph glyph-name="Odieresis" horiz-adv-x="716" unicode="Ö" d="M402 827q0 22 15.5 37.5t37.5 15.5t37 -15.5t15 -37.5t-15 -37t-37 -15t-37.5 15t-15.5 37zM209 827q0 22 14.5 37.5t36.5 15.5t38 -15.5t16 -37.5t-15.5 -37t-38.5 -15q-22 0 -36.5 15t-14.5 37zM359 687q-107 0 -173 -93t-66 -231q0 -141 65.5 -230.5t173.5 -89.5 q107 0 172 89.5t65 230.5q0 138 -66 231t-171 93zM359 -8q-131 0 -212.5 105t-81.5 266q0 162 81.5 267.5t212.5 105.5q129 0 210.5 -105.5t81.5 -267.5q0 -161 -81 -266t-211 -105z"/>
<glyph glyph-name="multiply" d="M91 439l157 -158l157 158q5 5 13 5t13 -5l9 -9q6 -6 6 -13t-6 -13l-157 -158l157 -156q6 -6 6 -13q0 -6 -6 -12l-9 -10q-5 -5 -13 -5t-13 5l-157 156l-157 -156q-5 -5 -13 -5q-7 0 -12 5l-10 10q-5 5 -5 12q0 8 5 13l157 156l-157 158q-5 5 -5 13t5 13l10 9q5 5 12 5 q8 0 13 -5z" unicode="×"/>
<glyph glyph-name="Oslash" horiz-adv-x="761" unicode="Ø" d="M383 687q-107 0 -173 -93t-66 -231q0 -115 43 -196l359 436q-66 84 -163 84zM383 43q106 0 171.5 89.5t65.5 230.5q0 111 -46 197l-359 -436q65 -81 168 -81zM581 645l68 83q11 13 24 4l12 -10q6 -4 6 -12q0 -6 -5 -13l-75 -92q64 -100 64 -242q0 -161 -81.5 -266 t-210.5 -105q-121 0 -201 91l-69 -84q-4 -6 -12 -7t-13 4l-12 9q-6 4 -6 13q0 5 5 12l76 93q-62 98 -62 240q0 162 81.5 267.5t212.5 105.5q117 0 198 -91z"/>
<glyph glyph-name="Ugrave" horiz-adv-x="697" unicode="Ù" d="M323 891l58 -108q3 -5 0.5 -10t-8.5 -5h-23q-14 0 -24 14l-81 107q-4 5 -1.5 11t9.5 6h46q17 0 24 -15zM597 709v-470q0 -116 -67 -181.5t-183 -65.5q-114 0 -180.5 65.5t-66.5 180.5v471q0 18 18 18h16q19 0 19 -18v-471q0 -93 52 -145t142 -52q93 0 144.5 51.5 t51.5 145.5v471q0 18 19 18h17q18 0 18 -18z"/>
<glyph glyph-name="Uacute" horiz-adv-x="697" unicode="Ú" d="M328 783l66 108q9 15 24 15h46q7 0 9.5 -6t-1.5 -11l-89 -107q-11 -14 -24 -14h-23q-6 0 -8.5 5t0.5 10zM597 709v-470q0 -116 -67 -181.5t-183 -65.5q-114 0 -180.5 65.5t-66.5 180.5v471q0 18 18 18h16q19 0 19 -18v-471q0 -93 52 -145t142 -52q93 0 144.5 51.5 t51.5 145.5v471q0 18 19 18h17q18 0 18 -18z"/>
<glyph glyph-name="Ucircumflex" horiz-adv-x="697" unicode="Û" d="M341 899h22q12 0 22 -12l89 -104q4 -5 1.5 -10.5t-8.5 -5.5h-29q-11 0 -20 11l-66 73l-66 -73q-9 -11 -20 -11h-29q-6 0 -8.5 5.5t1.5 10.5l89 104q10 12 22 12zM597 709v-470q0 -116 -67 -181.5t-183 -65.5q-114 0 -180.5 65.5t-66.5 180.5v471q0 18 18 18h16 q19 0 19 -18v-471q0 -93 52 -145t142 -52q93 0 144.5 51.5t51.5 145.5v471q0 18 19 18h17q18 0 18 -18z"/>
<glyph glyph-name="Udieresis" horiz-adv-x="697" unicode="Ü" d="M392 827q0 22 15.5 37.5t37.5 15.5t37 -15.5t15 -37.5t-15 -37t-37 -15t-37.5 15t-15.5 37zM199 827q0 22 14.5 37.5t36.5 15.5t38 -15.5t16 -37.5t-15.5 -37t-38.5 -15q-22 0 -36.5 15t-14.5 37zM597 709v-470q0 -116 -67 -181.5t-183 -65.5q-114 0 -180.5 65.5 t-66.5 180.5v471q0 18 18 18h16q19 0 19 -18v-471q0 -93 52 -145t142 -52q93 0 144.5 51.5t51.5 145.5v471q0 18 19 18h17q18 0 18 -18z"/>
<glyph glyph-name="Yacute" horiz-adv-x="594" unicode="Ý" d="M273 783l66 108q9 15 24 15h46q7 0 9.5 -6t-1.5 -11l-89 -107q-10 -14 -24 -14h-23q-6 0 -8.5 5t0.5 10zM272 18v249l-250 441q-2 4 -2 7q0 12 13 12h23q16 0 24 -14l219 -390l215 390q8 14 24 14h25q11 0 11 -12q0 -3 -2 -7l-246 -441v-249q0 -8 -5.5 -13t-13.5 -5h-18 q-17 0 -17 18z"/>
<glyph glyph-name="Thorn" horiz-adv-x="651" unicode="Þ" d="M154 598h228q105 0 167 -59.5t62 -155.5t-61.5 -154.5t-167.5 -58.5h-228v-152q0 -18 -18 -18h-19q-7 0 -12 5.5t-5 12.5v691q0 18 17 18h19q18 0 18 -18v-111zM381 547h-227v-327h227q84 0 130 42.5t46 120.5q0 79 -46.5 121.5t-129.5 42.5z"/>
<glyph glyph-name="germandbls" horiz-adv-x="576" unicode="ß" d="M225 415h63q64 0 104.5 38t40.5 100t-42 99t-110 37t-110 -37t-42 -99v-535q0 -18 -17 -18h-16q-16 0 -16 18v535q0 84 56.5 133.5t144.5 49.5t145 -49.5t57 -133.5q0 -53 -29.5 -95t-73.5 -64q51 -16 93.5 -64.5t42.5 -119.5q0 -98 -66 -154t-170 -56h-61q-18 0 -18 17 v13q0 18 18 18h61q83 0 134.5 41t51.5 121q0 72 -52.5 114.5t-127.5 42.5h-61q-17 0 -17 18v13q0 17 17 17z"/>
<glyph glyph-name="agrave" horiz-adv-x="551" unicode="à" d="M226 688l60 -121q4 -6 1 -11t-9 -5h-21q-16 0 -25 14l-79 119q-5 7 -2 13t11 6h38q19 0 26 -15zM224 44q6 0 16.5 -0.5t15.5 -0.5t15.5 0.5t15.5 0.5q51 2 83 33t32 72v113q-24 -32 -100 -35l-77 -2q-116 -3 -116 -87q0 -44 30 -68t85 -26zM481 50h18q17 0 17 -16v-16 q0 -18 -17 -18h-19q-29 0 -50.5 16.5t-24.5 40.5q-37 -57 -119 -62q-5 0 -15.5 -0.5t-15.5 -0.5t-15.5 0.5t-16.5 0.5q-79 4 -123 41t-44 101q0 66 46 99.5t122 35.5l78 2q78 4 100 36v9q0 64 -38 102.5t-105 38.5q-66 0 -102 -32t-42 -85q-2 -15 -19 -15h-20q-17 0 -15 16 q8 72 62 117.5t136 45.5q88 0 140.5 -52.5t52.5 -135.5v-241q0 -12 8 -20t21 -8z"/>
<glyph glyph-name="aacute" horiz-adv-x="551" unicode="á" d="M234 567l66 121q9 15 26 15h38q8 0 11 -6t-2 -13l-85 -119q-9 -14 -25 -14h-21q-6 0 -9 5t1 11zM224 44q6 0 16.5 -0.5t15.5 -0.5t15.5 0.5t15.5 0.5q51 2 83 33t32 72v113q-24 -32 -100 -35l-77 -2q-116 -3 -116 -87q0 -44 30 -68t85 -26zM481 50h18q17 0 17 -16v-16 q0 -18 -17 -18h-19q-29 0 -50.5 16.5t-24.5 40.5q-37 -57 -119 -62q-5 0 -15.5 -0.5t-15.5 -0.5t-15.5 0.5t-16.5 0.5q-79 4 -123 41t-44 101q0 66 46 99.5t122 35.5l78 2q78 4 100 36v9q0 64 -38 102.5t-105 38.5q-66 0 -102 -32t-42 -85q-2 -15 -19 -15h-20q-17 0 -15 16 q8 72 62 117.5t136 45.5q88 0 140.5 -52.5t52.5 -135.5v-241q0 -12 8 -20t21 -8z"/>
<glyph glyph-name="acircumflex" horiz-adv-x="551" unicode="â" d="M254 687h22q12 0 22 -12l89 -114q4 -5 1.5 -10t-8.5 -5h-26q-11 0 -20 10l-69 82l-69 -82q-9 -10 -20 -10h-26q-6 0 -8.5 5t1.5 10l89 114q10 12 22 12zM224 44q6 0 16.5 -0.5t15.5 -0.5t15.5 0.5t15.5 0.5q51 2 83 33t32 72v113q-24 -32 -100 -35l-77 -2 q-116 -3 -116 -87q0 -44 30 -68t85 -26zM481 50h18q17 0 17 -16v-16q0 -18 -17 -18h-19q-29 0 -50.5 16.5t-24.5 40.5q-37 -57 -119 -62q-5 0 -15.5 -0.5t-15.5 -0.5t-15.5 0.5t-16.5 0.5q-79 4 -123 41t-44 101q0 66 46 99.5t122 35.5l78 2q78 4 100 36v9q0 64 -38 102.5 t-105 38.5q-66 0 -102 -32t-42 -85q-2 -15 -19 -15h-20q-17 0 -15 16q8 72 62 117.5t136 45.5q88 0 140.5 -52.5t52.5 -135.5v-241q0 -12 8 -20t21 -8z"/>
<glyph glyph-name="atilde" horiz-adv-x="551" unicode="ã" d="M118 570q3 36 27 58t60 22q26 0 62 -25.5t57 -25.5q26 0 33 32q3 17 18 17h14q16 0 14 -17q-3 -36 -27 -57.5t-60 -21.5q-29 0 -66.5 25.5t-51.5 25.5q-28 0 -33 -33q-3 -17 -18 -17h-15q-16 0 -14 17zM224 44q6 0 16.5 -0.5t15.5 -0.5t15.5 0.5t15.5 0.5q51 2 83 33 t32 72v113q-24 -32 -100 -35l-77 -2q-116 -3 -116 -87q0 -44 30 -68t85 -26zM481 50h18q17 0 17 -16v-16q0 -18 -17 -18h-19q-29 0 -50.5 16.5t-24.5 40.5q-37 -57 -119 -62q-5 0 -15.5 -0.5t-15.5 -0.5t-15.5 0.5t-16.5 0.5q-79 4 -123 41t-44 101q0 66 46 99.5t122 35.5 l78 2q78 4 100 36v9q0 64 -38 102.5t-105 38.5q-66 0 -102 -32t-42 -85q-2 -15 -19 -15h-20q-17 0 -15 16q8 72 62 117.5t136 45.5q88 0 140.5 -52.5t52.5 -135.5v-241q0 -12 8 -20t21 -8z"/>
<glyph glyph-name="adieresis" horiz-adv-x="551" unicode="ä" d="M117 624q0 22 14.5 37t36.5 15t37.5 -15t15.5 -37t-15 -36.5t-38 -14.5q-22 0 -36.5 14.5t-14.5 36.5zM309 624q0 22 15 37t37 15t37 -15t15 -37t-15 -36.5t-37 -14.5t-37 14.5t-15 36.5zM224 44q6 0 16.5 -0.5t15.5 -0.5t15.5 0.5t15.5 0.5q51 2 83 33t32 72v113 q-24 -32 -100 -35l-77 -2q-116 -3 -116 -87q0 -44 30 -68t85 -26zM481 50h18q17 0 17 -16v-16q0 -18 -17 -18h-19q-29 0 -50.5 16.5t-24.5 40.5q-37 -57 -119 -62q-5 0 -15.5 -0.5t-15.5 -0.5t-15.5 0.5t-16.5 0.5q-79 4 -123 41t-44 101q0 66 46 99.5t122 35.5l78 2 q78 4 100 36v9q0 64 -38 102.5t-105 38.5q-66 0 -102 -32t-42 -85q-2 -15 -19 -15h-20q-17 0 -15 16q8 72 62 117.5t136 45.5q88 0 140.5 -52.5t52.5 -135.5v-241q0 -12 8 -20t21 -8z"/>
<glyph glyph-name="aring" horiz-adv-x="551" unicode="å" d="M217 634q0 -19 12.5 -32t31.5 -13q18 0 31 13t13 32q0 18 -13 31.5t-31 13.5q-19 0 -31.5 -13.5t-12.5 -31.5zM178 634q0 34 24 58t59 24t58.5 -24t23.5 -58t-23.5 -58t-58.5 -24t-59 24t-24 58zM224 44q6 0 16.5 -0.5t15.5 -0.5t15.5 0.5t15.5 0.5q51 2 83 33t32 72v113 q-24 -32 -100 -35l-77 -2q-116 -3 -116 -87q0 -44 30 -68t85 -26zM481 50h18q17 0 17 -16v-16q0 -18 -17 -18h-19q-29 0 -50.5 16.5t-24.5 40.5q-37 -57 -119 -62q-5 0 -15.5 -0.5t-15.5 -0.5t-15.5 0.5t-16.5 0.5q-79 4 -123 41t-44 101q0 66 46 99.5t122 35.5l78 2 q78 4 100 36v9q0 64 -38 102.5t-105 38.5q-66 0 -102 -32t-42 -85q-2 -15 -19 -15h-20q-17 0 -15 16q8 72 62 117.5t136 45.5q88 0 140.5 -52.5t52.5 -135.5v-241q0 -12 8 -20t21 -8z"/>
<glyph glyph-name="ae" horiz-adv-x="867" unicode="æ" d="M445 298h316q0 72 -43 117t-111 45t-109.5 -45t-52.5 -117zM224 44q6 0 15.5 -0.5t13.5 -0.5t13.5 0.5t14.5 0.5q51 2 81 32.5t30 69.5v112q-25 -30 -96 -33q-28 -1 -73 -1q-115 0 -115 -87q0 -42 31 -66.5t85 -26.5zM794 250h-352v-6q0 -92 43.5 -148t119.5 -56 q104 0 150 101q7 19 22 19h18q8 0 12 -6.5t1 -14.5q-23 -70 -76 -108.5t-127 -38.5q-116 0 -176 107q-21 -50 -63 -75.5t-87 -28.5q-5 0 -14 -0.5t-13 -0.5t-13.5 0.5t-15.5 0.5q-78 4 -123 42t-45 102q0 68 45 100.5t124 32.5h48h26q71 2 94 35v11q0 65 -36.5 103.5 t-102.5 38.5q-65 0 -99 -32t-40 -86q-2 -16 -19 -16h-20q-7 0 -11.5 5t-3.5 12q9 73 60 118.5t133 45.5q65 0 109 -30t64 -83q61 113 184 113q90 0 144.5 -60.5t57.5 -148.5v-28q0 -20 -18 -20z"/>
<glyph glyph-name="ccedilla" horiz-adv-x="534" unicode="ç" d="M475 354q6 -17 -12 -22l-16 -6q-17 -5 -22 13q-36 119 -151 119q-78 0 -125.5 -60.5t-47.5 -148.5t47.5 -148.5t123.5 -60.5q56 0 98 33.5t62 87.5q7 18 23 18h17q16 0 16 -13q0 -4 -1 -6q-22 -71 -71.5 -115.5t-120.5 -51.5v-66q0 -44 -27.5 -69t-71.5 -25h-39 q-18 0 -18 18v13q0 19 19 19h39q46 0 46 43v68q-89 10 -141 82t-52 173q0 108 62.5 183t161.5 75q153 0 201 -153z"/>
<glyph glyph-name="egrave" horiz-adv-x="535" unicode="è" d="M241 688l60 -121q4 -6 1 -11t-9 -5h-21q-16 0 -25 14l-79 119q-5 7 -2 13t11 6h38q19 0 26 -15zM102 248q-1 -93 45.5 -150.5t124.5 -57.5q107 0 150 101q7 19 23 19h19q8 0 11.5 -6.5t1.5 -14.5q-23 -69 -77.5 -108t-127.5 -39q-103 0 -162.5 73.5t-59.5 186.5 q0 107 62.5 181t162.5 74q89 0 146 -62t59 -149v-28q0 -20 -17 -20h-361zM430 296q0 72 -44.5 117.5t-111.5 45.5q-69 0 -113.5 -46t-54.5 -117h324z"/>
<glyph glyph-name="eacute" horiz-adv-x="535" unicode="é" d="M249 567l66 121q9 15 26 15h38q8 0 11 -6t-2 -13l-85 -119q-9 -14 -25 -14h-21q-6 0 -9 5t1 11zM463 248h-361q-1 -93 45.5 -150.5t124.5 -57.5q107 0 150 101q7 19 23 19h19q8 0 11.5 -6.5t1.5 -14.5q-23 -69 -77.5 -108t-127.5 -39q-103 0 -162.5 73.5t-59.5 186.5 q0 107 62.5 181t162.5 74q89 0 146 -62t59 -149v-28q0 -20 -17 -20zM106 296h324q0 72 -44.5 117.5t-111.5 45.5q-69 0 -113.5 -46t-54.5 -117z"/>
<glyph glyph-name="ecircumflex" horiz-adv-x="535" unicode="ê" d="M264 687h22q12 0 22 -12l89 -114q4 -5 1.5 -10t-8.5 -5h-26q-11 0 -20 10l-69 82l-69 -82q-9 -10 -20 -10h-26q-6 0 -8.5 5t1.5 10l89 114q10 12 22 12zM102 248q-1 -93 45.5 -150.5t124.5 -57.5q107 0 150 101q7 19 23 19h19q8 0 11.5 -6.5t1.5 -14.5 q-23 -69 -77.5 -108t-127.5 -39q-103 0 -162.5 73.5t-59.5 186.5q0 107 62.5 181t162.5 74q89 0 146 -62t59 -149v-28q0 -20 -17 -20h-361zM430 296q0 72 -44.5 117.5t-111.5 45.5q-69 0 -113.5 -46t-54.5 -117h324z"/>
<glyph glyph-name="edieresis" horiz-adv-x="535" unicode="ë" d="M316 624q0 22 15 37t37 15t37 -15t15 -37t-15 -36.5t-37 -14.5t-37 14.5t-15 36.5zM124 624q0 22 14.5 37t36.5 15t37.5 -15t15.5 -37t-15 -36.5t-38 -14.5q-22 0 -36.5 14.5t-14.5 36.5zM102 248q-1 -93 45.5 -150.5t124.5 -57.5q107 0 150 101q7 19 23 19h19 q8 0 11.5 -6.5t1.5 -14.5q-23 -69 -77.5 -108t-127.5 -39q-103 0 -162.5 73.5t-59.5 186.5q0 107 62.5 181t162.5 74q89 0 146 -62t59 -149v-28q0 -20 -17 -20h-361zM430 296q0 72 -44.5 117.5t-111.5 45.5q-69 0 -113.5 -46t-54.5 -117h324z"/>
<glyph glyph-name="igrave" horiz-adv-x="282" unicode="ì" d="M106 688l60 -121q2 -4 2 -6q0 -10 -10 -10h-21q-16 0 -25 14l-79 119q-3 4 -3 8q0 11 12 11h38q19 0 26 -15zM116 19v460q0 8 5.5 13.5t12.5 5.5h17q17 0 17 -19v-460q0 -19 -18 -19h-17q-17 0 -17 19z"/>
<glyph glyph-name="iacute" horiz-adv-x="282" unicode="í" d="M119 567l66 121q9 15 26 15h38q12 0 12 -11q0 -4 -3 -8l-85 -119q-9 -14 -25 -14h-21q-6 0 -9 5t1 11zM116 19v460q0 8 5.5 13.5t12.5 5.5h17q17 0 17 -19v-460q0 -19 -18 -19h-17q-17 0 -17 19z"/>
<glyph glyph-name="icircumflex" horiz-adv-x="282" unicode="î" d="M131 687h22q12 0 22 -12l89 -114q2 -2 2 -6q0 -9 -9 -9h-26q-11 0 -20 10l-69 82l-69 -82q-9 -10 -20 -10h-26q-9 0 -9 9q0 4 2 6l89 114q10 12 22 12zM116 19v460q0 8 5.5 13.5t12.5 5.5h17q17 0 17 -19v-460q0 -19 -18 -19h-17q-17 0 -17 19z"/>
<glyph glyph-name="idieresis" horiz-adv-x="282" unicode="ï" d="M185 624q0 22 15 37t37 15t37 -15t15 -37t-15 -36.5t-37 -14.5t-37 14.5t-15 36.5zM-7 624q0 22 14.5 37t36.5 15t37.5 -15t15.5 -37t-15 -36.5t-38 -14.5q-22 0 -36.5 14.5t-14.5 36.5zM116 19v460q0 8 5.5 13.5t12.5 5.5h17q17 0 17 -19v-460q0 -19 -18 -19h-17 q-17 0 -17 19z"/>
<glyph glyph-name="eth" horiz-adv-x="583" unicode="ð" d="M282 42q82 0 133 50.5t51 132.5q0 78 -54.5 129.5t-130.5 51.5q-78 0 -127.5 -51.5t-49.5 -132.5q0 -79 49 -129.5t129 -50.5zM357 610l-109 -63q-15 -9 -24 6l-7 12q-10 13 8 24l96 56q-26 22 -68 45q-6 3 -7.5 10t2.5 14l9 16q4 7 13 7q8 0 13 -4q42 -25 82 -62l91 54 q16 10 25 -5l8 -14q8 -14 -9 -24l-79 -46q126 -144 126 -332q0 -21 -1 -31q-5 -93 -28 -141q-31 -67 -86.5 -103.5t-129.5 -36.5q-99 0 -165.5 65.5t-66.5 163.5q0 102 66 169t166 67q58 0 115 -34.5t81 -82.5q-1 73 -33.5 144.5t-87.5 125.5z"/>
<glyph glyph-name="ntilde" horiz-adv-x="571" unicode="ñ" d="M143 570q3 36 27 58t60 22q26 0 62 -25.5t57 -25.5q26 0 33 32q3 17 18 17h14q16 0 14 -17q-3 -36 -27 -57.5t-60 -21.5q-29 0 -66.5 25.5t-51.5 25.5q-28 0 -33 -33q-3 -17 -18 -17h-15q-16 0 -14 17zM439 19v290q0 67 -39 108t-106 41q-59 0 -106 -40t-57 -89v-310 q0 -19 -18 -19h-16q-17 0 -17 19v460q0 8 5 13.5t12 5.5h14q19 0 19 -19l1 -58q68 86 167 86q89 0 141 -55.5t52 -143.5v-289q0 -19 -19 -19h-16q-17 0 -17 19z"/>
<glyph glyph-name="ograve" horiz-adv-x="552" unicode="ò" d="M241 688l60 -121q4 -6 1 -11t-9 -5h-21q-16 0 -25 14l-79 119q-5 7 -2 13t11 6h38q19 0 26 -15zM277 459q-77 0 -126.5 -59.5t-49.5 -149.5q0 -88 50 -148.5t126 -60.5q75 0 124.5 60.5t49.5 148.5q0 90 -49.5 149.5t-124.5 59.5zM277 -8q-96 0 -161.5 74t-65.5 184 q0 112 65 184.5t162 72.5q96 0 160.5 -72.5t64.5 -184.5q0 -110 -65.5 -184t-159.5 -74z"/>
<glyph glyph-name="oacute" horiz-adv-x="552" unicode="ó" d="M249 567l66 121q9 15 26 15h38q8 0 11 -6t-2 -13l-85 -119q-9 -14 -25 -14h-21q-6 0 -9 5t1 11zM277 459q-77 0 -126.5 -59.5t-49.5 -149.5q0 -88 50 -148.5t126 -60.5q75 0 124.5 60.5t49.5 148.5q0 90 -49.5 149.5t-124.5 59.5zM277 -8q-96 0 -161.5 74t-65.5 184 q0 112 65 184.5t162 72.5q96 0 160.5 -72.5t64.5 -184.5q0 -110 -65.5 -184t-159.5 -74z"/>
<glyph glyph-name="ocircumflex" horiz-adv-x="552" unicode="ô" d="M264 687h22q12 0 22 -12l89 -114q4 -5 1.5 -10t-8.5 -5h-26q-11 0 -20 10l-69 82l-69 -82q-9 -10 -20 -10h-26q-6 0 -8.5 5t1.5 10l89 114q10 12 22 12zM277 459q-77 0 -126.5 -59.5t-49.5 -149.5q0 -88 50 -148.5t126 -60.5q75 0 124.5 60.5t49.5 148.5 q0 90 -49.5 149.5t-124.5 59.5zM277 -8q-96 0 -161.5 74t-65.5 184q0 112 65 184.5t162 72.5q96 0 160.5 -72.5t64.5 -184.5q0 -110 -65.5 -184t-159.5 -74z"/>
<glyph glyph-name="otilde" horiz-adv-x="552" unicode="õ" d="M133 570q3 36 27 58t60 22q26 0 62 -25.5t57 -25.5q26 0 33 32q3 17 18 17h14q16 0 14 -17q-3 -36 -27 -57.5t-60 -21.5q-29 0 -66.5 25.5t-51.5 25.5q-28 0 -33 -33q-3 -17 -18 -17h-15q-16 0 -14 17zM277 459q-77 0 -126.5 -59.5t-49.5 -149.5q0 -88 50 -148.5 t126 -60.5q75 0 124.5 60.5t49.5 148.5q0 90 -49.5 149.5t-124.5 59.5zM277 -8q-96 0 -161.5 74t-65.5 184q0 112 65 184.5t162 72.5q96 0 160.5 -72.5t64.5 -184.5q0 -110 -65.5 -184t-159.5 -74z"/>
<glyph glyph-name="odieresis" horiz-adv-x="552" unicode="ö" d="M320 624q0 22 15 37t37 15t37 -15t15 -37t-15 -36.5t-37 -14.5t-37 14.5t-15 36.5zM128 624q0 22 14.5 37t36.5 15t37.5 -15t15.5 -37t-15 -36.5t-38 -14.5q-22 0 -36.5 14.5t-14.5 36.5zM277 459q-77 0 -126.5 -59.5t-49.5 -149.5q0 -88 50 -148.5t126 -60.5 q75 0 124.5 60.5t49.5 148.5q0 90 -49.5 149.5t-124.5 59.5zM277 -8q-96 0 -161.5 74t-65.5 184q0 112 65 184.5t162 72.5q96 0 160.5 -72.5t64.5 -184.5q0 -110 -65.5 -184t-159.5 -74z"/>
<glyph glyph-name="divide" d="M196 423q0 25 18 42.5t44 17.5q24 0 41.5 -17.5t17.5 -42.5q0 -26 -17.5 -43.5t-41.5 -17.5q-26 0 -44 17.5t-18 43.5zM195 61q0 25 18 42.5t44 17.5q24 0 41.5 -17.5t17.5 -42.5q0 -27 -17 -44t-42 -17q-26 0 -44 17t-18 44zM435 213h-358q-17 0 -17 18v14q0 19 17 19 h358q16 0 16 -19v-14q0 -18 -16 -18z" unicode="÷"/>
<glyph glyph-name="oslash" horiz-adv-x="572" unicode="ø" d="M287 458q-76 0 -125.5 -61t-49.5 -148q0 -72 33 -127l246 296q-46 40 -104 40zM287 40q76 0 125 60t49 149q0 74 -38 131l-246 -297q46 -43 110 -43zM422 457l52 62q7 7 15 7q4 0 10 -4l12 -9q5 -4 5 -13q0 -8 -4 -13l-55 -67q55 -73 55 -171q0 -112 -64.5 -184.5 t-160.5 -72.5q-82 0 -142 52l-47 -56q-6 -7 -15 -7q-7 0 -11 4l-11 9q-6 4 -6 13q0 5 5 12l51 62q-51 70 -51 168q0 110 65.5 184t161.5 74q77 0 135 -50z"/>
<glyph glyph-name="ugrave" horiz-adv-x="569" unicode="ù" d="M261 688l60 -121q4 -6 1 -11t-9 -5h-21q-16 0 -25 14l-79 119q-5 7 -2 13t11 6h38q19 0 26 -15zM438 167v312q0 19 18 19h16q17 0 17 -19v-460q0 -19 -17 -19h-15q-18 0 -18 19l-1 57q-27 -39 -69.5 -61.5t-91.5 -22.5q-88 0 -142.5 52t-54.5 137v298q0 19 19 19h15 q18 0 18 -19v-298q0 -63 39.5 -102.5t106.5 -39.5q62 0 107.5 39.5t52.5 88.5z"/>
<glyph glyph-name="uacute" horiz-adv-x="569" unicode="ú" d="M269 567l66 121q9 15 26 15h38q8 0 11 -6t-2 -13l-85 -119q-9 -14 -25 -14h-21q-6 0 -9 5t1 11zM438 167v312q0 19 18 19h16q17 0 17 -19v-460q0 -19 -17 -19h-15q-18 0 -18 19l-1 57q-27 -39 -69.5 -61.5t-91.5 -22.5q-88 0 -142.5 52t-54.5 137v298q0 19 19 19h15 q18 0 18 -19v-298q0 -63 39.5 -102.5t106.5 -39.5q62 0 107.5 39.5t52.5 88.5z"/>
<glyph glyph-name="ucircumflex" horiz-adv-x="569" unicode="û" d="M275 687h22q12 0 22 -12l89 -114q4 -5 1.5 -10t-8.5 -5h-26q-11 0 -20 10l-69 82l-69 -82q-9 -10 -20 -10h-26q-6 0 -8.5 5t1.5 10l89 114q10 12 22 12zM438 167v312q0 19 18 19h16q17 0 17 -19v-460q0 -19 -17 -19h-15q-18 0 -18 19l-1 57q-27 -39 -69.5 -61.5 t-91.5 -22.5q-88 0 -142.5 52t-54.5 137v298q0 19 19 19h15q18 0 18 -19v-298q0 -63 39.5 -102.5t106.5 -39.5q62 0 107.5 39.5t52.5 88.5z"/>
<glyph glyph-name="udieresis" horiz-adv-x="569" unicode="ü" d="M332 624q0 22 15 37t37 15t37 -15t15 -37t-15 -36.5t-37 -14.5t-37 14.5t-15 36.5zM140 624q0 22 14.5 37t36.5 15t37.5 -15t15.5 -37t-15 -36.5t-38 -14.5q-22 0 -36.5 14.5t-14.5 36.5zM438 167v312q0 19 18 19h16q17 0 17 -19v-460q0 -19 -17 -19h-15q-18 0 -18 19 l-1 57q-27 -39 -69.5 -61.5t-91.5 -22.5q-88 0 -142.5 52t-54.5 137v298q0 19 19 19h15q18 0 18 -19v-298q0 -63 39.5 -102.5t106.5 -39.5q62 0 107.5 39.5t52.5 88.5z"/>
<glyph glyph-name="yacute" horiz-adv-x="506" unicode="ý" d="M229 567l66 121q9 15 26 15h38q8 0 11 -6t-2 -13l-85 -119q-9 -14 -25 -14h-21q-6 0 -9 5t1 11zM58 -201q-17 5 -12 22l4 15q5 18 23 12q18 -7 35 -7q36 0 53 41l60 133l-195 465q-1 2 -1 5q0 13 13 13h21q18 0 24 -15l167 -404l174 404q6 15 23 15h21q13 0 13 -13 q0 -3 -1 -5l-274 -619q-32 -69 -100 -69q-24 0 -48 7z"/>
<glyph glyph-name="thorn" horiz-adv-x="560" unicode="þ" d="M80 -174v882q0 19 17 19h16q18 0 18 -19v-271q70 70 158 70q100 0 160.5 -73.5t60.5 -185.5q0 -113 -60.5 -184.5t-162.5 -71.5q-91 0 -156 68v-234q0 -19 -18 -19h-16q-17 0 -17 19zM131 366v-231q53 -95 156 -95q78 0 123.5 58t45.5 150q0 90 -46.5 150t-122.5 60 q-102 0 -156 -92z"/>
</font>
</defs>
</svg>
