<?xml version="1.0" encoding="UTF-8" standalone="no"?>
<!DOCTYPE svg  PUBLIC '-//W3C//DTD SVG 1.1//EN'  'http://www.w3.org/Graphics/SVG/1.1/DTD/svg11.dtd'>
<svg xmlns="http://www.w3.org/2000/svg">
<defs>
<font id="MercuryMedium-Regular" horiz-adv-x="544">
<font-face underline-position="-50" font-weight="500" descent="-200" panose-1="2 0 6 3 0 0 0 2 0 4" units-per-em="1000" unicode-range="U+0020-00FE" bbox="-11 -190 967 932" x-height="498" underline-thickness="50" font-family="MercuryMedium" ascent="800" cap-height="727"/>
<missing-glyph horiz-adv-x="1000"/>
<glyph glyph-name=".notdef" horiz-adv-x="1000"/>
<glyph glyph-name=".null" horiz-adv-x="0"/>
<glyph glyph-name="nonmarkingreturn" horiz-adv-x="333"/>
<glyph glyph-name="space" horiz-adv-x="230" unicode=" "/>
<glyph glyph-name="exclam" horiz-adv-x="284" unicode="!" d="M70 72q0 31 21 51.5t51 20.5t51 -20.5t21 -51.5t-21 -51.5t-51 -20.5t-51 20.5t-21 51.5zM94 243l-4 448q0 15 10.5 25.5t26.5 10.5h32q15 0 25.5 -10.5t10.5 -25.5l-4 -448q0 -16 -10.5 -26.5t-25.5 -10.5h-24q-16 0 -26.5 10.5t-10.5 26.5z"/>
<glyph glyph-name="quotedbl" horiz-adv-x="373" unicode='&quot;' d="M225 488l-8 208q0 14 9 22.5t22 8.5h32q15 0 24 -8.5t8 -22.5l-6 -208q0 -13 -8 -21.5t-21 -8.5h-24q-12 0 -19.5 8.5t-8.5 21.5zM68 488l-7 208q-1 14 8.5 22.5t22.5 8.5h32q14 0 23 -8.5t9 -22.5l-6 -208q0 -13 -8 -21.5t-21 -8.5h-25q-26 0 -28 30z"/>
<glyph glyph-name="numbersign" horiz-adv-x="721" unicode="#" d="M290 413l-32 -113h169l32 113h-169zM365 674l-48 -168h169l56 194q7 27 34 27q6 0 9 -1l25 -6q25 -7 25 -34q0 -4 -2 -12l-48 -168h50q15 0 25.5 -10.5t10.5 -25.5v-21q0 -16 -10.5 -26t-25.5 -10h-77l-32 -113h50q15 0 25.5 -10.5t10.5 -25.5v-21q0 -16 -10.5 -26.5 t-25.5 -10.5h-77l-52 -181q-8 -25 -34 -25q-4 0 -12 2l-21 6q-26 8 -26 33q0 5 2 13l44 152h-169l-52 -181q-8 -25 -34 -25q-4 0 -12 2l-21 6q-26 8 -26 33q0 5 2 13l44 152h-46q-16 0 -26 10.5t-10 26.5v21q0 15 10 25.5t26 10.5h73l32 113h-46q-15 0 -25 10t-10 26v21 q0 15 10 25.5t25 10.5h73l56 194q7 27 34 27q6 0 9 -1l25 -6q25 -7 25 -34q0 -4 -2 -12z"/>
<glyph glyph-name="dollar" horiz-adv-x="654" unicode="$" d="M198 536q0 -58 84 -90v187q-84 -21 -84 -97zM484 209q0 39 -24 63t-79 37v-211q49 10 76 39t27 72zM282 -144v141q-99 13 -160 76t-61 169q0 15 10.5 25t25.5 10h33q14 0 25.5 -11t13.5 -25q11 -121 113 -142v237l-11 4q-180 57 -180 193q0 83 52.5 133.5t138.5 62.5v73 q0 16 10.5 26.5t26.5 10.5h26q15 0 26 -10.5t11 -26.5v-73q84 -12 136.5 -63.5t52.5 -134.5q0 -14 -11 -23.5t-27 -9.5h-29q-16 0 -26.5 10t-11.5 25q-6 77 -84 98l-1 -215l25 -6q94 -25 141 -72.5t47 -128.5q0 -86 -57.5 -143t-155.5 -69v-141q0 -16 -11 -27t-26 -11h-25 q-16 0 -26.5 11t-10.5 27z"/>
<glyph glyph-name="percent" horiz-adv-x="698" unicode="%" d="M514 215q-21 0 -33.5 -19.5t-12.5 -49.5t12 -50.5t34 -20.5t34 20t12 51q0 30 -12.5 49.5t-33.5 19.5zM514 -8q-59 0 -96.5 45t-37.5 109t37.5 108t96.5 44t96.5 -44t37.5 -108t-37.5 -109t-96.5 -45zM184 652q-21 0 -33.5 -19.5t-12.5 -49.5t12 -50.5t34 -20.5t34 20 t12 51q0 30 -12.5 49.5t-33.5 19.5zM184 429q-59 0 -96.5 45t-37.5 109t37.5 108t96.5 44t96.5 -44t37.5 -108t-37.5 -109t-96.5 -45zM597 660l-424 -643q-12 -17 -31 -17q-10 0 -19 6l-19 13q-14 11 -14 28q0 11 6 20l428 645q9 15 26 15q10 0 20 -7l18 -11q15 -11 15 -29 q0 -11 -6 -20z"/>
<glyph glyph-name="ampersand" horiz-adv-x="679" unicode="&amp;" d="M263 594q0 -51 49 -100q54 41 54 100q0 21 -15 35t-36 14q-22 0 -37 -14t-15 -35zM284 88q87 0 140 69l-142 209q-57 -37 -88 -71.5t-31 -82.5q0 -53 34.5 -88.5t86.5 -35.5zM540 166l84 -121q6 -9 6 -19q0 -26 -30 -26h-43q-25 0 -39 21l-39 56q-81 -84 -199 -84 q-100 0 -160 60.5t-60 152.5q0 74 40.5 127.5t128.5 108.5q-70 79 -70 150q0 63 43.5 103t111.5 40q69 0 110.5 -40t41.5 -103q0 -94 -103 -174l112 -159q20 68 20 143q0 16 9.5 26.5t24.5 10.5h31q15 0 24.5 -10.5t9.5 -26.5v-6q0 -123 -54 -230z"/>
<glyph glyph-name="quotesingle" horiz-adv-x="239" unicode="&apos;" d="M77 488l-7 208q0 14 9 22.5t22 8.5h36q14 0 23 -8.5t9 -22.5l-7 -208q0 -13 -8 -21.5t-22 -8.5h-26q-13 0 -21 8.5t-8 21.5z"/>
<glyph glyph-name="parenleft" horiz-adv-x="391" unicode="(" d="M75 370q0 256 197 426q11 11 28 11q12 0 23 -9l17 -15q10 -9 10 -23t-11 -24q-164 -153 -164 -366q0 -214 164 -367q11 -10 11 -24t-10 -23l-17 -15q-11 -9 -23 -9q-17 0 -28 11q-197 170 -197 427z"/>
<glyph glyph-name="parenright" horiz-adv-x="391" unicode=")" d="M316 370q0 -257 -197 -427q-11 -11 -28 -11q-13 0 -23 9l-17 15q-10 9 -10 23t11 24q164 153 164 367q0 213 -164 366q-11 10 -11 24t10 23l17 15q10 9 23 9q17 0 28 -11q197 -170 197 -426z"/>
<glyph glyph-name="asterisk" horiz-adv-x="439" unicode="*" d="M99 442l55 80l-94 35q-19 8 -19 25q0 2 2 10l6 19q6 19 24 19q6 0 9 -1l96 -26l3 98q2 26 29 26h20q27 0 29 -26l3 -98l96 26q3 1 9 1q18 0 24 -19l6 -19q2 -8 2 -10q0 -17 -19 -25l-94 -35l55 -80q7 -8 7 -19q0 -12 -13 -21l-16 -12q-9 -6 -18 -6q-13 0 -22 12l-59 78 l-59 -78q-9 -12 -22 -12q-9 0 -18 6l-16 12q-13 9 -13 21q0 9 7 19z"/>
<glyph glyph-name="plus" horiz-adv-x="512" unicode="+" d="M305 300h122q14 0 24.5 -10.5t10.5 -25.5v-23q0 -15 -10.5 -25.5t-24.5 -10.5h-122v-124q0 -15 -10.5 -25.5t-26.5 -10.5h-24q-15 0 -25.5 11t-10.5 25v124h-122q-15 0 -25.5 10.5t-10.5 25.5v23q0 15 10.5 25.5t25.5 10.5h122v123q0 15 10.5 25.5t25.5 10.5h24 q16 0 26.5 -10.5t10.5 -25.5v-123z"/>
<glyph glyph-name="comma" horiz-adv-x="267" unicode="," d="M82 -90l-22 10q-20 9 -20 29q0 7 5 19l71 166q9 20 31 20q7 0 15 -3l29 -13q21 -9 21 -32q0 -5 -4 -17l-80 -162q-10 -21 -31 -21q-5 0 -15 4z"/>
<glyph glyph-name="hyphen" horiz-adv-x="398" unicode="-" d="M302 204h-206q-15 0 -25.5 10.5t-10.5 25.5v24q0 15 10.5 25.5t25.5 10.5h206q15 0 25.5 -10.5t10.5 -25.5v-24q0 -15 -10.5 -25.5t-25.5 -10.5z"/>
<glyph glyph-name="period" horiz-adv-x="244" unicode="." d="M50 72q0 31 21 51.5t51 20.5t51 -20.5t21 -51.5t-21 -51.5t-51 -20.5t-51 20.5t-21 51.5z"/>
<glyph glyph-name="slash" d="M45 62l374 649q9 16 26 16q8 0 18 -5l23 -13q17 -11 17 -27q0 -7 -5 -17l-374 -649q-9 -16 -27 -16q-11 0 -18 5l-22 13q-17 9 -17 27q0 7 5 17z" unicode="/"/>
<glyph glyph-name="zero" horiz-adv-x="585" unicode="0" d="M293 89q67 0 103 72.5t36 192.5q0 122 -36 194.5t-103 72.5t-103 -72.5t-36 -194.5q0 -120 36 -192.5t103 -72.5zM293 717q113 0 177.5 -97t64.5 -266q0 -168 -65 -265t-177 -97t-177 97t-65 265q0 169 64.5 266t177.5 97z"/>
<glyph glyph-name="one" horiz-adv-x="510" unicode="1" d="M442 0h-341q-37 0 -37 35v26q0 16 10 26t27 10h120v449q-17 -28 -45 -54.5t-51 -37.5q-10 -5 -19 -5q-16 0 -27 15l-17 25q-7 10 -7 21q0 17 15 26q105 65 149 149q13 25 40 25h28q16 0 26 -10t10 -26v-577h119q17 0 27 -9.5t10 -25.5v-27q0 -16 -10 -25.5t-27 -9.5z"/>
<glyph glyph-name="two" horiz-adv-x="565" unicode="2" d="M67 103l275 280q57 57 57 114q0 58 -32.5 92t-89.5 34q-56 0 -88.5 -36t-32.5 -93q0 -15 -10.5 -25.5t-26.5 -10.5h-28q-16 0 -26 10.5t-10 25.5q0 99 61.5 161t161.5 62q99 0 161.5 -60t62.5 -157q0 -96 -90 -181l-225 -222h286q17 0 27 -9.5t10 -25.5v-25 q0 -37 -37 -37h-387q-15 0 -25.5 10.5t-10.5 26.5v29q0 18 17 37z"/>
<glyph glyph-name="three" horiz-adv-x="585" unicode="3" d="M132 217q1 -58 43 -92.5t102 -34.5q63 0 104 32.5t41 88.5q0 53 -35.5 83t-87.5 30h-43q-15 0 -25 9.5t-10 25.5v25q0 15 10 25.5t25 10.5h36q39 0 70 31.5t31 70.5q0 44 -31.5 71.5t-85.5 27.5q-48 0 -80 -26.5t-34 -67.5q-1 -14 -11.5 -24.5t-26.5 -10.5h-28 q-16 0 -26 10t-10 25q2 84 64.5 137t151.5 53q92 0 155 -52.5t63 -140.5q0 -45 -24 -83.5t-60 -58.5q46 -21 80.5 -63.5t34.5 -107.5q0 -99 -70 -159t-179 -60q-104 0 -175 62.5t-71 162.5q0 16 10.5 26.5t24.5 10.5h30q16 0 26.5 -10.5t10.5 -26.5z"/>
<glyph glyph-name="four" horiz-adv-x="582" unicode="4" d="M137 300h193v255zM431 204v-167q0 -16 -10.5 -26.5t-25.5 -10.5h-30q-15 0 -25.5 10.5t-10.5 26.5v167h-278q-15 0 -25.5 10.5t-10.5 26.5v23q0 21 16 43l285 379q19 24 49 24h29q17 0 27 -9.5t10 -26.5v-374h92q14 0 24 -10.5t10 -24.5v-25q0 -16 -10 -26t-24 -10h-92z "/>
<glyph glyph-name="five" horiz-adv-x="585" unicode="5" d="M130 207q12 -52 53 -85t100 -33q74 0 118.5 44.5t44.5 116.5q0 71 -42.5 116t-116.5 45q-40 0 -78.5 -20.5t-59.5 -51.5q-17 -25 -39 -25h-26q-16 0 -25.5 9t-9.5 23q0 5 1 8l63 326q6 30 38 30h325q16 0 26.5 -10t10.5 -25v-26q0 -15 -10.5 -25t-26.5 -10h-280l-35 -163 q25 23 63 37.5t74 14.5h2q110 0 178.5 -71t68.5 -182q0 -114 -75 -186t-191 -72q-97 0 -168.5 59.5t-85.5 148.5v5q0 15 10 25t26 10h29q32 0 38 -33z"/>
<glyph glyph-name="six" horiz-adv-x="585" unicode="6" d="M304 89q59 0 98.5 38.5t39.5 101.5q0 62 -39 100.5t-99 38.5q-59 0 -101 -38t-42 -98q2 -65 41.5 -104t101.5 -39zM519 572q3 -8 3 -16q0 -23 -24 -31l-27 -10q-8 -2 -12 -2q-27 0 -36 23q-31 87 -109 87q-74 0 -116.5 -68t-41.5 -167q27 32 68 53t86 21q105 0 170.5 -64 t65.5 -169q0 -101 -68 -169t-174 -68q-68 0 -127 34t-88 94q-33 68 -37 184q0 7 -0.5 19.5t-0.5 18.5q0 19 2 51q12 144 79 234t183 90q150 0 204 -145z"/>
<glyph glyph-name="seven" horiz-adv-x="550" unicode="7" d="M493 607q-32 -25 -63.5 -71t-62.5 -115t-50.5 -169.5t-19.5 -214.5q0 -16 -10.5 -26.5t-25.5 -10.5h-33q-16 0 -26.5 10.5t-10.5 26.5q0 196 55.5 346.5t124.5 230.5h-306q-15 0 -25 9.5t-10 24.5v27q0 15 10 25t25 10h409q15 0 25 -10.5t10 -25.5v-34q0 -19 -16 -33z "/>
<glyph glyph-name="eight" horiz-adv-x="585" unicode="8" d="M293 622q-49 0 -81 -27.5t-32 -72.5q0 -42 32 -69t81 -27q48 0 80 27t32 69q0 44 -31.5 72t-80.5 28zM293 334q-59 0 -101 -34.5t-42 -90.5q0 -55 41 -87.5t102 -32.5q60 0 101 32.5t41 87.5q0 56 -41.5 90.5t-100.5 34.5zM293 -8q-109 0 -178.5 59.5t-69.5 156.5 q0 109 103 175q-71 58 -71 139q0 89 63 142t153 53q89 0 152 -53t63 -142q0 -81 -71 -139q103 -66 103 -174q0 -97 -69.5 -157t-177.5 -60z"/>
<glyph glyph-name="nine" horiz-adv-x="585" unicode="9" d="M282 621q-59 0 -99 -39t-40 -101t39.5 -100.5t99.5 -38.5q59 0 99.5 38.5t40.5 97.5q0 64 -39 103.5t-101 39.5zM65 136q-3 8 -3 15q0 21 24 32l28 11q12 4 17 4q23 0 31 -25q26 -85 109 -86h3q69 0 112 67.5t42 163.5q-25 -31 -66.5 -50.5t-86.5 -19.5q-103 0 -169 66.5 t-66 165.5q0 101 69 169t173 68q67 0 125.5 -35.5t88.5 -96.5q35 -71 38 -180v-23q0 -26 -2 -66q-13 -145 -79.5 -234.5t-182.5 -89.5q-78 0 -129.5 38.5t-75.5 105.5z"/>
<glyph glyph-name="colon" horiz-adv-x="250" unicode=":" d="M55 372q0 30 20.5 50t49.5 20t49.5 -20t20.5 -50t-20.5 -50t-49.5 -20t-49.5 20t-20.5 50zM55 70q0 30 20.5 50t49.5 20t49.5 -20t20.5 -50t-20.5 -50t-49.5 -20t-49.5 20t-20.5 50z"/>
<glyph glyph-name="semicolon" horiz-adv-x="250" unicode=";" d="M63 -90l-22 10q-20 9 -20 29q0 7 5 19l71 166q9 20 31 20q8 0 15 -3l29 -13q21 -9 21 -32q0 -10 -4 -17l-80 -162q-11 -21 -31 -21q-5 0 -15 4zM58 372q0 30 20.5 50t49.5 20t49.5 -20t20.5 -50t-20.5 -50t-49.5 -20t-49.5 20t-20.5 50z"/>
<glyph glyph-name="less" horiz-adv-x="587" unicode="&lt;" d="M198 285l322 -207q16 -10 16 -29q0 -11 -6 -22l-14 -21q-12 -15 -32 -15q-12 0 -21 6l-392 259q-21 15 -21 34v24q0 18 21 32l395 260q8 5 20 5q21 0 31 -16l13 -19q7 -10 7 -21q0 -20 -17 -30l-322 -206l-31 -17z"/>
<glyph glyph-name="equal" horiz-adv-x="512" unicode="=" d="M426 120h-341q-15 0 -25 10t-10 26v23q0 14 10 24.5t25 10.5h341q15 0 25.5 -10.5t10.5 -24.5v-23q0 -16 -10.5 -26t-25.5 -10zM426 288h-341q-15 0 -25 10.5t-10 24.5v23q0 16 10 26t25 10h341q15 0 25.5 -10t10.5 -26v-23q0 -14 -10.5 -24.5t-25.5 -10.5z"/>
<glyph glyph-name="greater" horiz-adv-x="587" unicode="&gt;" d="M67 78l322 207l31 17l-31 17l-322 206q-17 10 -17 30q0 11 7 21l13 19q10 16 31 16q13 0 20 -5l395 -260q21 -14 21 -32v-24q0 -19 -21 -34l-392 -259q-9 -6 -21 -6q-20 0 -32 15l-14 21q-6 11 -6 22q0 19 16 29z"/>
<glyph glyph-name="question" horiz-adv-x="527" unicode="?" d="M179 72q0 31 21 51.5t51 20.5t51 -20.5t21 -51.5t-21 -51.5t-51 -20.5t-51 20.5t-21 51.5zM199 240q0 37 20 71.5t41.5 54.5t65.5 56q58 50 58 104q0 53 -34.5 83.5t-89.5 30.5t-87 -33.5t-32 -82.5q0 -3 0.5 -9t0.5 -9q0 -15 -10 -24t-27 -9h-29q-15 0 -24.5 10 t-10.5 26v10q0 92 61 154t160 62q97 0 160.5 -57t63.5 -154q0 -51 -27 -96t-66 -73q-51 -37 -72 -60.5t-21 -54.5q0 -14 -10.5 -24t-25.5 -10h-28q-15 0 -26 10t-11 24z"/>
<glyph glyph-name="at" horiz-adv-x="750" unicode="@" d="M548 325v-165q0 -9 7 -15t17 -6q23 0 23 23v266q0 97 -60 152.5t-162 55.5q-98 0 -157.5 -56t-59.5 -153v-287q0 -171 195 -171h167q14 0 23.5 -9.5t9.5 -23.5v-18q0 -14 -9.5 -23.5t-23.5 -9.5h-165q-135 0 -209 64t-74 192v286q0 127 83.5 208.5t219.5 81.5 q139 0 223 -81t84 -208v-263q0 -53 -30 -81.5t-80 -28.5q-26 0 -50 10.5t-35 24.5q-36 -34 -89 -34h-43q-72 0 -114 34t-42 101q0 60 41.5 89.5t109.5 30.5l61 1q39 0 53 18q2 40 -21 64t-67 24q-35 0 -56 -16t-25 -39q-2 -12 -11.5 -19.5t-21.5 -7.5h-28q-12 0 -20.5 8 t-8.5 20q0 59 51.5 96.5t121.5 37.5q82 0 127 -47t45 -126zM352 142h47q28 0 43.5 14.5t18.5 35.5v57q-17 -16 -52 -16l-64 -1q-25 0 -40.5 -11.5t-15.5 -30.5q0 -48 63 -48z"/>
<glyph glyph-name="A" horiz-adv-x="695" unicode="A" d="M486 194h-276l-67 -170q-4 -10 -14 -17t-21 -7h-39q-15 0 -24 8t-9 20q0 7 2 11l256 662q10 26 34 26h40q24 0 34 -26l256 -662q2 -8 2 -11q0 -12 -8.5 -20t-22.5 -8h-41q-27 0 -36 24zM347 569l-102 -275h205z"/>
<glyph glyph-name="B" horiz-adv-x="702" unicode="B" d="M205 627v-200h179q31 10 53.5 36.5t22.5 63.5q0 45 -30 72.5t-78 27.5h-147zM205 99h216q51 0 83 30.5t32 81.5t-34.5 83t-85.5 32h-211v-227zM424 0h-287q-15 0 -26 11t-11 26v652q0 16 11 27t26 11h214q94 0 153.5 -55.5t59.5 -144.5q0 -33 -14 -67t-36 -56 q57 -28 92.5 -78t35.5 -113q0 -96 -60.5 -154.5t-157.5 -58.5z"/>
<glyph glyph-name="C" horiz-adv-x="717" unicode="C" d="M547 209q13 28 42 28h37q14 0 22.5 -8.5t8.5 -21.5q0 -9 -3 -16q-80 -199 -286 -199q-136 0 -219.5 105t-83.5 266q0 166 85 269t226 103q99 0 172 -57.5t96 -152.5q1 -3 1 -10q0 -25 -24 -33l-30 -9q-8 -2 -13 -2q-26 0 -35 26q-20 64 -61.5 101.5t-105.5 38.5h-2 q-94 0 -149.5 -74.5t-55.5 -198.5q0 -119 54.5 -195t145.5 -76q122 0 178 116z"/>
<glyph glyph-name="D" horiz-adv-x="731" unicode="D" d="M203 99h115q111 0 178 73.5t67 189.5q0 120 -66 193t-180 73h-114v-529zM315 0h-179q-15 0 -25.5 11t-10.5 26v652q0 16 10.5 27t25.5 11h177q158 0 255.5 -100t97.5 -265q0 -160 -99.5 -261t-251.5 -101z"/>
<glyph glyph-name="E" horiz-adv-x="629" unicode="E" d="M521 627h-316v-200h246q16 0 27 -11t11 -27v-25q0 -16 -11 -27t-27 -11h-246v-226h335q17 0 28 -10.5t11 -25.5v-27q0 -15 -11 -26t-28 -11h-402q-16 0 -27 11t-11 26v652q0 16 11 27t27 11h383q15 0 26 -11t11 -27v-25q0 -17 -10.5 -27t-26.5 -10z"/>
<glyph glyph-name="F" horiz-adv-x="580" unicode="F" d="M205 326v-289q0 -15 -11 -26t-27 -11h-29q-16 0 -27 11t-11 26v652q0 16 11 27t27 11h393q17 0 28 -11t11 -27v-25q0 -17 -11 -27t-28 -10h-326v-200h223q16 0 27 -11t11 -27v-25q0 -16 -11 -27t-27 -11h-223z"/>
<glyph glyph-name="G" horiz-adv-x="724" unicode="G" d="M617 487l-33 -10q-8 -2 -12 -2q-27 0 -35 25q-43 136 -170 136q-92 0 -145.5 -78.5t-53.5 -196.5q0 -120 52.5 -195t142.5 -75q91 0 139.5 55.5t49.5 142.5h-145q-15 0 -26.5 10.5t-11.5 25.5v27q0 16 11 26.5t26 10.5h212q15 0 25.5 -10t10.5 -26v-35q0 -154 -80.5 -240 t-213.5 -86q-136 0 -215.5 104t-79.5 265q0 163 83.5 268.5t219.5 105.5q100 0 171.5 -56t97.5 -146q2 -10 2 -14q0 -25 -22 -32z"/>
<glyph glyph-name="H" horiz-adv-x="699" unicode="H" d="M100 37v652q0 16 11 27t27 11h29q16 0 27 -11t11 -27v-277h289v277q0 16 11 27t26 11h30q16 0 27 -11t11 -27v-652q0 -15 -11 -26t-27 -11h-30q-15 0 -26 11t-11 26v275h-289v-275q0 -15 -11 -26t-27 -11h-29q-16 0 -27 11t-11 26z"/>
<glyph glyph-name="I" horiz-adv-x="363" unicode="I" d="M130 36v654q0 16 10.5 26.5t26.5 10.5h29q16 0 26.5 -10.5t10.5 -26.5v-654q0 -15 -10.5 -25.5t-26.5 -10.5h-28q-16 0 -27 10.5t-11 25.5z"/>
<glyph glyph-name="J" horiz-adv-x="540" unicode="J" d="M445 689v-492q0 -96 -58.5 -150.5t-153.5 -54.5q-97 0 -152.5 53t-55.5 148v26q0 17 11.5 27.5t27.5 10.5h29q15 0 26 -10.5t11 -27.5v-26q0 -48 26.5 -74.5t76.5 -26.5q49 0 79 28t30 76v493q0 16 11 27t26 11h28q16 0 27 -11t11 -27z"/>
<glyph glyph-name="K" horiz-adv-x="655" unicode="K" d="M502 26l-240 292l-57 -60v-221q0 -15 -11 -26t-27 -11h-29q-16 0 -27 11t-11 26v652q0 16 11 27t27 11h29q16 0 27 -11t11 -27v-294l281 314q18 18 39 18h45q13 0 21.5 -9t8.5 -21q0 -14 -10 -24l-257 -277l285 -346q7 -11 7 -19q0 -13 -9 -22t-23 -9h-45q-25 0 -46 26z "/>
<glyph glyph-name="L" horiz-adv-x="562" unicode="L" d="M515 0h-378q-16 0 -26.5 11t-10.5 26v652q0 16 10.5 27t26.5 11h30q15 0 26 -11t11 -27v-589h311q16 0 26.5 -10.5t10.5 -25.5v-27q0 -15 -10.5 -26t-26.5 -11z"/>
<glyph glyph-name="M" horiz-adv-x="883" unicode="M" d="M224 703l217 -435l219 435q13 24 37 24h50q15 0 25.5 -11t10.5 -27v-652q0 -15 -10.5 -26t-25.5 -11h-28q-16 0 -26.5 11t-10.5 26l1 505l-183 -374q-10 -23 -34 -23h-49q-23 0 -34 23l-183 374l1 -505q0 -15 -10.5 -26t-26.5 -11h-28q-15 0 -25.5 11t-10.5 26v652 q0 16 10.5 27t25.5 11h51q26 0 37 -24z"/>
<glyph glyph-name="N" horiz-adv-x="723" unicode="N" d="M510 25l-307 519v-507q0 -15 -10.5 -26t-26.5 -11h-28q-16 0 -27 11t-11 26v652q0 16 11 27t27 11h42q26 0 39 -22l301 -507v491q0 16 10.5 27t26.5 11h28q16 0 27 -11t11 -27v-652q0 -15 -11 -26t-27 -11h-37q-23 0 -38 25z"/>
<glyph glyph-name="O" horiz-adv-x="727" unicode="O" d="M362 636q-88 0 -140.5 -77.5t-52.5 -195.5q0 -120 51.5 -195.5t141.5 -75.5q89 0 142.5 76t53.5 195q0 120 -53.5 196.5t-142.5 76.5zM362 -8q-134 0 -215.5 103.5t-81.5 267.5q0 163 82 267.5t215 104.5q132 0 216 -105.5t84 -266.5t-84.5 -266t-215.5 -105z"/>
<glyph glyph-name="P" horiz-adv-x="667" unicode="P" d="M387 627h-182v-250h182q63 0 98.5 32.5t35.5 91.5q0 58 -35.5 92t-98.5 34zM138 727h250q110 0 174.5 -62t64.5 -164t-64.5 -163t-174.5 -61h-183v-240q0 -15 -11 -26t-26 -11h-30q-16 0 -27 11t-11 26v652q0 16 11 27t27 11z"/>
<glyph glyph-name="Q" horiz-adv-x="719" unicode="Q" d="M450 118l-34 35q-9 10 -9 26q0 15 9 24l19 19q10 10 26 10t26 -10l26 -25q38 65 38 165q0 119 -53.5 196.5t-139.5 77.5q-85 0 -137.5 -77.5t-52.5 -196.5q0 -117 53.5 -193.5t136.5 -76.5q58 0 92 26zM557 11l-35 34q-67 -53 -164 -53q-130 0 -211.5 105t-81.5 265 q0 162 81 267.5t212 105.5q133 0 214.5 -106t81.5 -267q0 -126 -65 -241l42 -40q10 -10 10 -26t-10 -26l-19 -19q-11 -11 -27 -11t-28 12z"/>
<glyph glyph-name="R" horiz-adv-x="693" unicode="R" d="M380 627h-174v-235h168q62 0 96 31.5t34 84.5q0 54 -33.5 86.5t-90.5 32.5zM453 302l174 -254q6 -9 6 -19q0 -12 -9.5 -20.5t-24.5 -8.5h-42q-27 0 -41 22l-176 269h-134v-254q0 -15 -11 -26t-27 -11h-30q-16 0 -27 11t-11 26v652q0 16 11 27t27 11h243q104 0 168 -61 t64 -158q0 -79 -46 -133t-114 -73z"/>
<glyph glyph-name="S" horiz-adv-x="682" unicode="S" d="M429 410q97 -23 142.5 -70t45.5 -131q0 -96 -77 -156t-196 -60q-124 0 -200.5 64t-78.5 183q0 16 10 26.5t26 10.5h32q14 0 25.5 -11t13.5 -25q7 -72 52.5 -110t120.5 -38q73 0 117.5 32t44.5 84q0 40 -24.5 64t-81.5 37q-59 13 -125 32q-180 53 -180 188q0 96 69 150 t176 54q105 0 176.5 -54t71.5 -149q0 -14 -11 -23.5t-27 -9.5h-29q-16 0 -26.5 10t-11.5 25q-4 51 -43.5 77.5t-101.5 26.5q-59 0 -96.5 -28t-37.5 -72q0 -69 107 -97q58 -16 117 -30z"/>
<glyph glyph-name="T" horiz-adv-x="590" unicode="T" d="M537 627h-192v-590q0 -15 -10.5 -26t-25.5 -11h-29q-16 0 -27 11t-11 26v590h-190q-16 0 -26.5 10t-10.5 27v25q0 16 10.5 27t26.5 11h485q16 0 27 -11t11 -27v-25q0 -17 -11 -27t-27 -10z"/>
<glyph glyph-name="U" horiz-adv-x="721" unicode="U" d="M361 -7q-119 0 -190 67.5t-71 184.5v444q0 16 11 27t26 11h30q16 0 27 -11t11 -27v-446q0 -71 42 -111.5t114 -40.5t113.5 40t41.5 112v446q0 16 11 27t27 11h29q16 0 27 -11t11 -27v-444q0 -116 -71 -184t-189 -68z"/>
<glyph glyph-name="V" horiz-adv-x="671" unicode="V" d="M623 682l-229 -656q-9 -26 -36 -26h-43q-27 0 -36 26l-231 656q-2 8 -2 13q0 13 8.5 22.5t23.5 9.5h40q27 0 36 -28l183 -534l180 534q9 28 36 28h41q14 0 22.5 -9t8.5 -22q0 -9 -2 -14z"/>
<glyph glyph-name="W" horiz-adv-x="880" unicode="W" d="M414 727h52q14 0 24 -8t12 -21l102 -496l114 496q7 29 35 29h39q15 0 23.5 -9t8.5 -22q0 -5 -1 -8l-162 -661q-7 -27 -35 -27h-47q-14 0 -24.5 8t-12.5 20l-102 511l-102 -511q-2 -11 -12 -19.5t-23 -8.5h-48q-28 0 -35 27l-163 660q-1 4 -1 10q0 14 9 22t24 8h39 q27 0 34 -29l116 -496l101 496q6 29 35 29z"/>
<glyph glyph-name="X" horiz-adv-x="686" unicode="X" d="M184 706l159 -243l159 243q14 21 37 21h47q13 0 21.5 -9.5t8.5 -22.5q0 -11 -6 -20l-203 -304l213 -320q5 -8 5 -18q0 -13 -9 -23t-23 -10h-42q-24 0 -37 20l-171 260l-171 -260q-13 -20 -37 -20h-42q-14 0 -23 9.5t-9 22.5q0 11 6 20l212 319l-202 304q-6 9 -6 20 q0 13 8 22.5t21 9.5h47q23 0 37 -21z"/>
<glyph glyph-name="Y" horiz-adv-x="620" unicode="Y" d="M129 706l181 -330l181 330q11 21 35 21h42q13 0 22 -9.5t9 -21.5q0 -9 -4 -16l-234 -414v-229q0 -15 -11 -26t-25 -11h-29q-16 0 -27 11t-11 26v229l-232 414q-5 8 -5 19q0 28 31 28h42q23 0 35 -21z"/>
<glyph glyph-name="Z" horiz-adv-x="619" unicode="Z" d="M64 99l353 528h-310q-16 0 -27 10t-11 27v25q0 16 11 27t27 11h404q16 0 27 -11t11 -27v-33q0 -17 -10 -31l-353 -524h340q16 0 27 -10.5t11 -25.5v-28q0 -16 -11 -26.5t-27 -10.5h-435q-15 0 -25.5 11t-10.5 26v33q0 13 9 29z"/>
<glyph glyph-name="bracketleft" horiz-adv-x="405" unicode="[" d="M90 -42v812q0 15 10.5 25.5t25.5 10.5h212q15 0 26 -10t11 -26v-22q0 -16 -11 -26t-26 -10h-149v-697h149q15 0 26 -10t11 -26v-21q0 -16 -11 -26t-26 -10h-212q-15 0 -25.5 10t-10.5 26z"/>
<glyph glyph-name="backslash" d="M419 15l-374 649q-5 10 -5 17q0 18 17 27l22 13q8 5 18 5q18 0 27 -16l374 -649q5 -10 5 -17q0 -16 -17 -27l-23 -13q-10 -5 -18 -5q-17 0 -26 16z" unicode="\"/>
<glyph glyph-name="bracketright" horiz-adv-x="405" unicode="]" d="M315 770v-812q0 -16 -10.5 -26t-25.5 -10h-212q-15 0 -26 10t-11 26v21q0 16 11 26t26 10h149v697h-149q-15 0 -26 10t-11 26v22q0 16 11 26t26 10h212q15 0 25.5 -10.5t10.5 -25.5z"/>
<glyph glyph-name="asciicircum" horiz-adv-x="539" unicode="^" d="M398 473l-129 129l-128 -129q-10 -10 -26 -10t-27 11l-17 17q-11 13 -11 27q0 16 11 27l172 171q11 11 27 11q15 0 26 -11l172 -171q10 -10 10 -27q0 -16 -10 -27l-17 -17q-11 -11 -27 -11t-26 10z"/>
<glyph glyph-name="underscore" horiz-adv-x="512" unicode="_" d="M86 0h341q14 0 24.5 -10.5t10.5 -25.5v-23q0 -15 -10.5 -25.5t-24.5 -10.5h-341q-15 0 -25.5 10.5t-10.5 25.5v23q0 15 10.5 25.5t25.5 10.5z"/>
<glyph glyph-name="grave" horiz-adv-x="400" unicode="`" d="M208 675l44 -110q1 -2 1 -7q0 -16 -16 -16h-34q-19 0 -31 16l-71 109q-4 5 -4 12q0 16 18 16h61q24 0 32 -20z"/>
<glyph glyph-name="a" horiz-adv-x="536" unicode="a" d="M220 87q10 -1 30 -1t30 1q72 8 80 61v76q-18 -16 -63 -20q-41 -3 -80 -3q-32 0 -50.5 -15t-18.5 -41q0 -25 19 -40t53 -18zM56 354q12 70 67 111t134 41q88 0 144 -54.5t56 -140.5v-196q0 -20 21 -20q14 0 23.5 -9t9.5 -24v-28q0 -16 -10 -25t-26 -9h-20 q-23 0 -46.5 13.5t-31.5 30.5q-35 -45 -103 -49q-12 -1 -38 -1h-16q-80 4 -126 43t-46 107q0 69 46.5 106t124.5 37q27 0 77 2t64 24v5q1 44 -25.5 71t-76.5 27q-88 0 -102 -66q-6 -30 -40 -30h-30q-13 0 -22 7.5t-9 19.5q0 1 0.5 3.5t0.5 3.5z"/>
<glyph glyph-name="b" horiz-adv-x="569" unicode="b" d="M178 347v-189q47 -72 114 -72q59 0 93 46t34 117q0 68 -35.5 116t-91.5 48q-68 0 -114 -66zM177 42l-1 -7q-5 -35 -36 -35h-25q-15 0 -25 10.5t-10 25.5v655q0 15 10 25.5t25 10.5h26q16 0 26.5 -10.5t10.5 -25.5v-230q56 45 116 45q102 0 163 -71t61 -182 q0 -114 -60.5 -187.5t-162.5 -73.5h-2q-59 0 -116 50z"/>
<glyph glyph-name="c" horiz-adv-x="536" unicode="c" d="M384 336q-29 78 -107 79h-2q-58 0 -93 -47.5t-35 -118.5q0 -70 35.5 -117t94.5 -47h2q40 1 70 22t41 57q8 28 39 28h31q13 0 21.5 -8t8.5 -21q0 -6 -1 -9q-17 -70 -76.5 -116t-137.5 -46q-104 0 -164.5 72.5t-60.5 184.5q0 110 62.5 183.5t164.5 73.5q76 0 127 -37.5 t73 -101.5q2 -4 2 -13q0 -22 -23 -29l-27 -9q-10 -2 -14 -2q-24 0 -31 22z"/>
<glyph glyph-name="d" horiz-adv-x="568" unicode="d" d="M390 158v189q-45 66 -114 66q-57 0 -92 -47t-35 -117q0 -71 34 -117t93 -46q36 0 66 21t48 51zM392 34l-1 8q-57 -50 -120 -50q-102 0 -161.5 72t-59.5 186q0 112 61 184t164 72q65 0 115 -45v230q0 15 10.5 25.5t26.5 10.5h26q15 0 25 -10.5t10 -25.5v-655 q0 -15 -10 -25.5t-25 -10.5h-25q-31 0 -36 34z"/>
<glyph glyph-name="e" horiz-adv-x="546" unicode="e" d="M155 314h235q-1 44 -32.5 74t-79.5 30q-49 0 -82.5 -31t-40.5 -73zM388 146q12 25 39 25h30q14 0 22.5 -8t8.5 -21q0 -8 -3 -15q-24 -63 -78.5 -99t-126.5 -36q-108 0 -169 73t-61 188q0 107 62.5 180t166.5 73q92 0 151 -60t61 -148v-32q0 -37 -37 -37h-305 q-1 -63 36.5 -104.5t94.5 -41.5q80 0 108 63z"/>
<glyph glyph-name="f" horiz-adv-x="349" unicode="f" d="M120 405h-53q-16 0 -26.5 9.5t-10.5 25.5v22q0 15 10.5 25.5t26.5 10.5h53v108q0 52 36 86.5t93 34.5h37q15 0 25.5 -10t10.5 -25v-22q0 -15 -10.5 -25t-25.5 -10h-37q-33 0 -33 -32v-105h78q15 0 25 -10.5t10 -25.5v-23q0 -14 -10.5 -24t-24.5 -10h-78v-369 q0 -15 -9.5 -25.5t-24.5 -10.5h-27q-14 0 -24.5 10.5t-10.5 25.5v369z"/>
<glyph glyph-name="g" horiz-adv-x="567" unicode="g" d="M389 151v192q-19 30 -49.5 50t-65.5 20q-58 0 -92 -45.5t-34 -116.5q0 -69 34.5 -117t91.5 -48q75 0 115 65zM169 -41q6 -26 30.5 -44t63.5 -18q56 0 91 29.5t35 81.5v32q-56 -47 -118 -47q-101 0 -161 72t-60 186q0 113 60 184t158 71h5q65 -1 118 -51l1 8q0 15 10.5 25 t25.5 10h23q16 0 26 -10.5t10 -25.5v-439q0 -95 -60.5 -154t-163.5 -59q-84 0 -139 42t-55 109q0 13 9.5 22t23.5 9h28q32 0 39 -33z"/>
<glyph glyph-name="h" horiz-adv-x="580" unicode="h" d="M500 312v-276q0 -15 -10.5 -25.5t-25.5 -10.5h-26q-15 0 -25.5 10.5t-10.5 25.5v275q0 49 -28 77t-78 28q-40 0 -73.5 -28t-44.5 -63v-289q0 -15 -10.5 -25.5t-26.5 -10.5h-26q-15 0 -25 10.5t-10 25.5v655q0 15 10.5 25.5t25.5 10.5h27q15 0 25 -10.5t10 -25.5v-244 q23 25 59.5 42t72.5 17q91 0 140.5 -52t49.5 -142z"/>
<glyph glyph-name="i" horiz-adv-x="300" unicode="i" d="M85 648q0 28 18.5 47t46.5 19t47 -19t19 -47t-19 -46.5t-47 -18.5t-46.5 18.5t-18.5 46.5zM102 36v426q0 15 10 25.5t25 10.5h26q16 0 25.5 -10.5t9.5 -25.5v-426q0 -15 -10.5 -25.5t-25.5 -10.5h-25q-15 0 -25 10.5t-10 25.5z"/>
<glyph glyph-name="j" horiz-adv-x="275" unicode="j" d="M82 648q0 28 18.5 47t46.5 19t47 -19t19 -47t-19 -46.5t-47 -18.5t-46.5 18.5t-18.5 46.5zM41 -91h28q13 0 22 8.5t9 21.5v523q0 15 10 25.5t25 10.5h25q14 0 24.5 -10.5t10.5 -25.5v-522q0 -56 -35 -89t-91 -33h-28q-15 0 -25.5 9.5t-10.5 24.5v23q0 15 10.5 24.5 t25.5 9.5z"/>
<glyph glyph-name="k" horiz-adv-x="532" unicode="k" d="M477 447l-183 -169l191 -229q7 -8 7 -20t-8 -20.5t-21 -8.5h-44q-22 0 -40 21l-156 190l-46 -43v-132q0 -15 -10.5 -25.5t-25.5 -10.5h-27q-14 0 -24 10.5t-10 25.5v655q0 15 10 25.5t24 10.5h27q15 0 25.5 -10.5t10.5 -25.5v-405l204 198q14 14 37 14h40q12 0 20 -9 t8 -21t-9 -21z"/>
<glyph glyph-name="l" horiz-adv-x="292" unicode="l" d="M236 0h-38q-52 0 -85 33t-33 84v575q0 15 10.5 25t25.5 10h27q14 0 24.5 -10t10.5 -25v-570q0 -12 8.5 -20t21.5 -8h28q16 0 26 -9.5t10 -24.5v-25q0 -16 -10 -25.5t-26 -9.5z"/>
<glyph glyph-name="m" horiz-adv-x="778" unicode="m" d="M176 464l1 -7q17 19 45 34t57 15q82 0 123 -51q59 51 126 51q76 0 123 -43.5t47 -117.5v-309q0 -15 -10.5 -25.5t-25.5 -10.5h-27q-14 0 -24.5 10.5t-10.5 25.5v308q0 32 -21 51t-57 19q-26 0 -52 -21t-32 -48v-309q0 -15 -10.5 -25.5t-25.5 -10.5h-23q-15 0 -25.5 10.5 t-10.5 25.5v308q0 31 -22 50.5t-57 19.5q-33 0 -56.5 -22.5t-29.5 -53.5v-302q0 -15 -10.5 -25.5t-25.5 -10.5h-26q-15 0 -25.5 10.5t-10.5 25.5v426q0 15 10.5 25.5t25.5 10.5h26q29 0 34 -34z"/>
<glyph glyph-name="n" horiz-adv-x="580" unicode="n" d="M177 463l1 -14q23 24 58 40.5t71 16.5h2q89 0 140 -53.5t51 -144.5v-272q0 -15 -10.5 -25.5t-25.5 -10.5h-26q-15 0 -25.5 10.5t-10.5 25.5v274q0 50 -28.5 77.5t-78.5 27.5q-39 0 -73 -28t-44 -63v-288q0 -15 -10.5 -25.5t-26.5 -10.5h-26q-15 0 -25 10.5t-10 25.5v426 q0 15 10 25.5t25 10.5h26q15 0 25 -10t11 -25z"/>
<glyph glyph-name="o" horiz-adv-x="556" unicode="o" d="M278 415q-57 0 -94 -47t-37 -118q0 -73 37 -119t94 -46t94 46t37 119q0 71 -37 118t-94 47zM278 -8q-98 0 -163 73t-65 185q0 110 66 183t162 73t162 -73t66 -183q0 -112 -65 -185t-163 -73z"/>
<glyph glyph-name="p" horiz-adv-x="569" unicode="p" d="M178 340v-189q46 -66 114 -66q59 0 93 44.5t34 114.5v6q-2 72 -35 117t-92 45q-67 0 -114 -72zM176 464l1 -8q57 50 119 50h2q102 0 161 -73t59 -187q0 -111 -61 -182.5t-164 -71.5q-31 0 -63.5 14.5t-51.5 33.5v-186q0 -15 -10 -25.5t-26 -10.5h-27q-15 0 -25 10.5 t-10 25.5v608q0 15 10 25.5t25 10.5h26q31 0 35 -34z"/>
<glyph glyph-name="q" horiz-adv-x="569" unicode="q" d="M391 151v189q-47 72 -114 72q-59 0 -92 -45t-35 -117v-6q0 -70 34 -114.5t93 -44.5q68 0 114 66zM392 456l1 8q4 34 35 34h26q15 0 25 -10.5t10 -25.5v-608q0 -15 -10 -25.5t-25 -10.5h-27q-16 0 -26 10.5t-10 25.5v186q-19 -19 -51.5 -33.5t-63.5 -14.5 q-103 0 -164 71.5t-61 182.5q0 114 59.5 187t160.5 73h2q62 0 119 -50z"/>
<glyph glyph-name="r" horiz-adv-x="366" unicode="r" d="M80 36v426q0 15 10.5 25.5t25.5 10.5h26q32 0 35 -35l1 -23q19 27 54 46.5t68 19.5h18q16 0 25.5 -9t9.5 -24v-27q0 -16 -10.5 -26t-26.5 -10h-18q-41 0 -72.5 -21.5t-47.5 -52.5v-300q0 -16 -9.5 -26t-26.5 -10h-26q-15 0 -25.5 10.5t-10.5 25.5z"/>
<glyph glyph-name="s" horiz-adv-x="499" unicode="s" d="M149 151q2 -29 30.5 -49t72.5 -21h4q49 0 75 18t26 47q0 40 -47 49q-70 13 -126 30q-50 15 -82.5 47.5t-32.5 84.5q0 66 51 107.5t131 41.5q76 0 126 -38t58 -99v-5q0 -13 -9 -21t-23 -8h-28q-31 0 -39 30q-5 21 -28 37.5t-58 16.5q-40 0 -61.5 -17.5t-21.5 -43.5 q0 -17 13 -29.5t33 -17.5q44 -12 119 -26q56 -11 89 -45.5t33 -91.5q0 -67 -55 -111.5t-148 -44.5q-90 0 -145 45t-55 116q0 13 9.5 22.5t22.5 9.5h29q15 0 25 -10t12 -24z"/>
<glyph glyph-name="t" horiz-adv-x="360" unicode="t" d="M114 405h-57q-16 0 -26.5 10.5t-10.5 24.5v22q0 15 10.5 25.5t26.5 10.5h57v146q0 16 10 26.5t24 10.5h28q14 0 24 -10.5t10 -26.5v-146h74q15 0 25.5 -10.5t10.5 -25.5v-22q0 -14 -10.5 -24.5t-25.5 -10.5h-74v-284q0 -13 8.5 -21.5t21.5 -8.5h43q15 0 25.5 -9.5 t10.5 -24.5v-21q0 -16 -10.5 -26t-25.5 -10h-54q-47 0 -81 32.5t-34 81.5v291z"/>
<glyph glyph-name="u" horiz-adv-x="577" unicode="u" d="M274 -8q-89 0 -141.5 54t-52.5 145v271q0 15 10 25.5t25 10.5h29q16 0 25 -10t9 -26v-270q0 -50 28 -79.5t77 -29.5q38 0 71.5 26t44.5 59v294q0 15 10 25.5t26 10.5h28q15 0 24.5 -10.5t9.5 -25.5v-426q0 -15 -10.5 -25.5t-24.5 -10.5h-25q-31 0 -35 35l-1 12 q-22 -24 -58.5 -39.5t-68.5 -15.5z"/>
<glyph glyph-name="v" horiz-adv-x="514" unicode="v" d="M282 0h-38q-22 0 -32 22l-188 434q-3 8 -3 14q0 12 9 20t23 8h35q26 0 36 -24l138 -332l129 333q8 23 35 23h37q14 0 22.5 -7.5t8.5 -19.5q0 -7 -3 -15l-176 -434q-8 -22 -33 -22z"/>
<glyph glyph-name="w" horiz-adv-x="707" unicode="w" d="M435 24l-82 322q-5 -29 -79 -321q-7 -25 -34 -25h-35q-25 0 -33 24l-135 432q-1 3 -1 10q0 13 9 22.5t23 9.5h33q25 0 33 -24l89 -311l74 309q7 26 32 26h48q26 0 33 -25l77 -310l85 311q6 24 34 24h32q15 0 24 -9.5t9 -22.5q0 -7 -1 -10l-133 -432q-6 -24 -33 -24h-35 q-28 0 -34 24z"/>
<glyph glyph-name="x" horiz-adv-x="492" unicode="x" d="M246 173l-112 -157q-12 -16 -33 -16h-39q-14 0 -23 8t-9 19q0 8 6 17l152 207l-147 200q-6 9 -6 19q0 12 8 20t22 8h40q20 0 31 -16l110 -153l110 153q12 16 31 16h41q13 0 21 -8t8 -20q0 -10 -6 -19l-146 -200l151 -207q6 -7 6 -16q0 -11 -9 -19.5t-21 -8.5h-41 q-21 0 -33 16z"/>
<glyph glyph-name="y" horiz-adv-x="513" unicode="y" d="M164 -75l48 116l-183 413q-3 9 -3 16q0 12 9 20t24 8h38q25 0 33 -21l134 -325l137 326q9 20 32 20h37q32 0 32 -28q0 -8 -3 -16l-248 -564q-34 -77 -116 -77q-30 0 -55 8q-22 7 -22 29q0 8 1 12l6 24q6 24 34 24q7 0 11 -1q10 -3 23 -3q23 0 31 19z"/>
<glyph glyph-name="z" horiz-adv-x="482" unicode="z" d="M430 406l-263 -313h245q15 0 25 -10.5t10 -24.5v-22q0 -15 -10 -25.5t-25 -10.5h-341q-14 0 -25 10.5t-11 25.5v28q0 15 11 29l261 312h-231q-14 0 -24 10.5t-10 24.5v22q0 15 10 25.5t24 10.5h330q14 0 24 -10.5t10 -25.5v-27q0 -17 -10 -29z"/>
<glyph glyph-name="braceleft" horiz-adv-x="440" unicode="{" d="M55 351v26q0 15 11 26t26 11h13q44 0 44 42v200q0 66 45 108.5t112 42.5h78q15 0 25.5 -10t10.5 -26v-23q0 -15 -10.5 -25.5t-25.5 -10.5h-77q-24 0 -41 -16.5t-17 -40.5v-191q0 -69 -65 -100q65 -31 65 -100v-189q0 -24 17 -40.5t41 -16.5h77q15 0 25.5 -10.5 t10.5 -25.5v-23q0 -16 -10.5 -26t-25.5 -10h-78q-67 0 -112 42.5t-45 108.5v198q0 42 -44 42h-13q-15 0 -26 11t-11 26z"/>
<glyph glyph-name="bar" horiz-adv-x="307" unicode="|" d="M105 -155v846q0 15 10.5 25.5t26.5 10.5h24q15 0 25.5 -10.5t10.5 -25.5v-846q0 -15 -10.5 -25t-25.5 -10h-24q-16 0 -26.5 10t-10.5 25z"/>
<glyph glyph-name="braceright" horiz-adv-x="440" unicode="}" d="M385 377v-26q0 -15 -11 -26t-26 -11h-13q-44 0 -44 -42v-198q0 -66 -45 -108.5t-112 -42.5h-78q-15 0 -25.5 10t-10.5 26v23q0 15 10.5 25.5t25.5 10.5h77q24 0 41 16.5t17 40.5v189q0 69 65 100q-65 31 -65 100v191q0 24 -17 40.5t-41 16.5h-77q-15 0 -25.5 10.5 t-10.5 25.5v23q0 16 10.5 26t25.5 10h78q67 0 112 -42.5t45 -108.5v-200q0 -42 44 -42h13q15 0 26 -11t11 -26z"/>
<glyph glyph-name="asciitilde" horiz-adv-x="512" unicode="~" d="M187 324q46 0 94 -34q28 -20 43 -20q23 0 26 21q2 16 13 26t26 10h24q15 0 25 -10.5t10 -25.5q0 -50 -35 -81t-88 -31q-46 0 -94 34q-28 20 -43 20q-23 0 -26 -21q-2 -16 -13 -26t-26 -10h-24q-15 0 -25 10.5t-10 25.5q0 50 35 81t88 31z"/>
<glyph glyph-name="uni00A0" horiz-adv-x="230" unicode=" "/>
<glyph glyph-name="exclamdown" horiz-adv-x="284" unicode="¡" d="M70 655q0 31 21 51.5t51 20.5t51 -20.5t21 -51.5t-21 -51.5t-51 -20.5t-51 20.5t-21 51.5zM90 36l4 448q0 16 10.5 26.5t26.5 10.5h24q15 0 25.5 -10.5t10.5 -26.5l4 -448q0 -15 -10.5 -25.5t-25.5 -10.5h-32q-16 0 -26.5 10.5t-10.5 25.5z"/>
<glyph glyph-name="cent" horiz-adv-x="541" unicode="¢" d="M149 249q0 -117 78 -153v309q-78 -35 -78 -156zM227 -144v142q-82 17 -129.5 85.5t-47.5 165.5q0 95 48 164t129 87v137q0 16 10.5 26.5t26.5 10.5h25q15 0 26 -10.5t11 -26.5v-137q57 -11 97.5 -46.5t58.5 -88.5q2 -4 2 -13q0 -22 -23 -29l-27 -9q-8 -2 -13 -2 q-25 0 -32 22q-18 47 -63 70v-309q52 19 69 71q8 28 39 28h31q13 0 21.5 -8t8.5 -21q0 -6 -1 -9q-14 -58 -60 -101t-108 -57v-142q0 -16 -11 -27t-26 -11h-25q-16 0 -26.5 11t-10.5 27z"/>
<glyph glyph-name="sterling" horiz-adv-x="641" unicode="£" d="M178 300h-40q-15 0 -26.5 11t-11.5 27v23q0 16 11.5 27t26.5 11h40v142q0 90 57 142t148 52q92 0 147 -51.5t55 -143.5v-45q0 -16 -10.5 -27t-26.5 -11h-29q-15 0 -26 11t-11 27v45q0 45 -25.5 71.5t-72.5 26.5q-48 0 -75.5 -26t-27.5 -71v-142h110q16 0 26.5 -11 t10.5 -27v-23q0 -16 -10.5 -27t-26.5 -11h-110v-201h273q16 0 26.5 -10.5t10.5 -25.5v-26q0 -15 -10.5 -26t-26.5 -11h-416q-15 0 -26.5 11t-11.5 26v26q0 14 11.5 25t26.5 11h40v201z"/>
<glyph glyph-name="currency" horiz-adv-x="655" unicode="¤" d="M206 325q0 -52 35 -86t86 -34q52 0 87 34t35 86t-35.5 86.5t-86.5 34.5t-86 -34.5t-35 -86.5zM442 510l35 35q11 11 25 11q15 0 26 -11l19 -19q10 -10 10 -23q0 -15 -12 -27l-34 -35q34 -55 34 -114q0 -62 -33 -116l34 -34q11 -11 11 -26q0 -14 -11 -25l-18 -18 q-11 -11 -25 -11q-15 0 -26 11l-34 34q-56 -32 -114 -32q-60 0 -115 33l-36 -35q-11 -11 -26 -11q-14 0 -24 10l-19 19q-11 11 -11 26q0 16 11 25l36 35q-33 55 -33 115t33 113l-36 36q-11 11 -11 26q0 14 11 25l18 18q11 11 25 11t26 -12l36 -35q54 34 115 34t113 -33z"/>
<glyph glyph-name="yen" horiz-adv-x="654" unicode="¥" d="M556 300h-178v-263q0 -15 -11 -26t-25 -11h-29q-16 0 -27 11t-11 26v263h-176q-15 0 -26.5 11t-11.5 27v23q0 16 11.5 27t26.5 11h120l-153 281q-5 8 -5 19q0 28 31 28h42q23 0 35 -21l158 -310l159 310q11 21 35 21h41q13 0 22 -9.5t9 -21.5q0 -9 -4 -16l-153 -281h120 q16 0 26.5 -11t10.5 -27v-23q0 -16 -10.5 -27t-26.5 -11z"/>
<glyph glyph-name="brokenbar" horiz-adv-x="309" unicode="¦" d="M105 -147v325q0 14 10.5 24.5t26.5 10.5h26q15 0 25.5 -10.5t10.5 -24.5v-325q0 -15 -10.5 -25t-25.5 -10h-26q-16 0 -26.5 10t-10.5 25zM105 368v323q0 15 10.5 25.5t26.5 10.5h26q15 0 25.5 -10.5t10.5 -25.5v-323q0 -16 -10.5 -26.5t-25.5 -10.5h-26q-16 0 -26.5 10.5 t-10.5 26.5z"/>
<glyph glyph-name="section" horiz-adv-x="630" unicode="§" d="M222 432q-13 -11 -21 -31t-8 -34q0 -74 93 -108q73 -27 100 -40l29 -14q27 27 27 63q0 40 -24 65t-71 44q-22 9 -93 40q-29 13 -32 15zM486 158q57 -55 58 -126v-2q0 -91 -66.5 -145.5t-161.5 -54.5q-100 0 -165.5 57t-65.5 154q0 15 10.5 25.5t26.5 10.5h29 q14 0 25 -10.5t11 -25.5q1 -54 36 -86.5t93 -32.5t91.5 30t33.5 79v2q-1 59 -91 96l-100 40q-34 13 -56.5 25.5t-48.5 34t-39 53.5t-13 74v2q0 72 60 123q-55 55 -55 123v2q0 90 64 145t154 55q100 0 163.5 -55.5t63.5 -152.5q0 -15 -10.5 -25.5t-26.5 -10.5h-29 q-14 0 -25 10.5t-11 25.5q-1 54 -34 85t-91 31q-52 0 -83.5 -30.5t-31.5 -78.5v-2q1 -60 89 -96q19 -8 52.5 -23t40.5 -18q35 -15 56.5 -26.5t48.5 -33t40.5 -53t13.5 -73.5q0 -68 -56 -122z"/>
<glyph glyph-name="dieresis" horiz-adv-x="500" unicode="¨" d="M348 679q24 0 43 -18.5t19 -42.5t-19 -42.5t-43 -18.5q-25 0 -43.5 18.5t-18.5 42.5q0 25 18.5 43t43.5 18zM151 679q24 0 43 -18.5t19 -42.5t-19 -42.5t-43 -18.5q-25 0 -43.5 18.5t-18.5 42.5q0 25 18.5 43t43.5 18z"/>
<glyph glyph-name="copyright" horiz-adv-x="805" unicode="©" d="M403 660q-121 0 -206.5 -85.5t-85.5 -210.5t85 -210.5t207 -85.5q123 0 208 85.5t85 210.5t-85 210.5t-208 85.5zM403 735q155 0 263.5 -108t108.5 -263t-108.5 -263.5t-263.5 -108.5t-264 109t-109 263t109 262.5t264 108.5zM507 298q7 21 31 21h30q12 0 19 -8t7 -18 q0 -5 -1 -7q-21 -65 -70 -104t-118 -39q-87 0 -142 64t-55 159q0 96 54.5 159.5t144.5 63.5q123 0 177 -124q3 -6 3 -13q0 -19 -18 -25l-28 -10q-8 -2 -11 -2q-18 0 -26 18q-31 72 -98 72q-52 0 -80.5 -38.5t-28.5 -100.5q0 -61 29.5 -99.5t78.5 -38.5q76 0 102 70z"/>
<glyph glyph-name="ordfeminine" horiz-adv-x="470" unicode="ª" d="M192 411q7 0 15 -0.5t11 -0.5t10.5 0.5t12.5 0.5q31 2 46 18t15 37v34q-14 -15 -56 -17l-57 -1q-44 -2 -44 -34q0 -16 13 -26t34 -11zM192 559l58 1q42 0 52 15v4q0 33 -20 52t-56 19q-30 0 -49.5 -13t-24.5 -32q-7 -27 -35 -27h-24q-13 0 -21 8t-8 19q0 1 0.5 3t0.5 3 q14 54 56 85t108 31q74 0 116 -42.5t42 -112.5v-142q0 -15 15 -15q12 0 20 -7.5t8 -19.5v-29q0 -13 -9 -20.5t-22 -7.5h-14q-46 0 -65 34q-26 -32 -81 -36q-4 0 -12.5 -0.5t-12.5 -0.5t-12 0.5t-12 0.5q-53 3 -92 32t-39 84q0 112 133 114z"/>
<glyph glyph-name="guillemotleft" horiz-adv-x="582" unicode="«" d="M275 308l183 182q12 10 24 10q13 0 25 -10l19 -18q10 -10 10 -23q0 -14 -11 -25l-151 -142l151 -142q11 -11 11 -25q0 -13 -10 -23l-19 -18q-12 -10 -25 -10q-12 0 -24 10l-183 182q-11 11 -11 26t11 26zM57 308l183 182q12 10 24 10q13 0 25 -10l19 -18q10 -10 10 -23 q0 -14 -11 -25l-151 -142l151 -141q11 -11 11 -25q0 -13 -10 -23l-19 -19q-12 -10 -25 -10q-12 0 -24 10l-183 182q-11 11 -11 26t11 26z"/>
<glyph glyph-name="logicalnot" horiz-adv-x="512" unicode="¬" d="M359 205h-278q-15 0 -25.5 10.5t-10.5 25.5v26q0 15 10 25.5t26 10.5h342q15 0 25 -10.5t10 -25.5v-195q0 -15 -10 -25.5t-25 -10.5h-27q-15 0 -26 10.5t-11 25.5v133z"/>
<glyph glyph-name="uni00AD" horiz-adv-x="398" unicode="­" d="M302 204h-206q-15 0 -25.5 10.5t-10.5 25.5v24q0 15 10.5 25.5t25.5 10.5h206q15 0 25.5 -10.5t10.5 -25.5v-24q0 -15 -10.5 -25.5t-25.5 -10.5z"/>
<glyph glyph-name="registered" horiz-adv-x="805" unicode="®" d="M334 383h91q30 0 48.5 16t18.5 43q0 29 -19 45.5t-48 16.5h-91v-121zM481 173l-76 128h-71v-115q0 -31 -29 -31h-27q-12 0 -20 8.5t-8 22.5v370q0 12 8 20.5t19 8.5h149q66 0 109.5 -39.5t43.5 -103.5q0 -45 -24 -78t-63 -48l78 -122q5 -8 5 -15q0 -10 -7 -17t-20 -7h-35 q-21 0 -32 18zM403 660q-121 0 -206.5 -85.5t-85.5 -210.5t85 -210.5t207 -85.5q123 0 208 85.5t85 210.5t-85 210.5t-208 85.5zM403 735q155 0 263.5 -108t108.5 -263t-108.5 -263.5t-263.5 -108.5t-264 109t-109 263t109 262.5t264 108.5z"/>
<glyph glyph-name="macron" horiz-adv-x="500" unicode="¯" d="M134 651h225q27 0 27 -26v-28q0 -27 -27 -27h-225q-27 0 -27 27v28q0 26 27 26z"/>
<glyph glyph-name="degree" horiz-adv-x="404" unicode="°" d="M202 650q-25 0 -42 -17t-17 -43t17 -43t42 -17t42 17t17 43t-17 43t-42 17zM202 454q-58 0 -97.5 39t-39.5 98t39.5 97.5t97.5 38.5t97.5 -38.5t39.5 -97.5t-39.5 -98t-97.5 -39z"/>
<glyph glyph-name="plusminus" horiz-adv-x="512" unicode="±" d="M86 95h341q14 0 24.5 -10.5t10.5 -25.5v-23q0 -15 -10.5 -25.5t-24.5 -10.5h-341q-15 0 -25.5 10.5t-10.5 25.5v23q0 15 10.5 25.5t25.5 10.5zM305 395h122q14 0 24.5 -10.5t10.5 -25.5v-23q0 -15 -10.5 -25.5t-24.5 -10.5h-122v-122q0 -14 -10.5 -25t-26.5 -11h-24 q-15 0 -25.5 11t-10.5 25v122h-122q-15 0 -25.5 10.5t-10.5 25.5v23q0 15 10.5 25.5t25.5 10.5h122v121q0 15 10.5 25.5t25.5 10.5h24q16 0 26.5 -10.5t10.5 -25.5v-121z"/>
<glyph glyph-name="twosuperior" horiz-adv-x="435" unicode="²" d="M175 415h170q14 0 22.5 -9t8.5 -22v-20q0 -14 -9 -22.5t-22 -8.5h-248q-13 0 -22 8.5t-9 22.5v38q0 19 18 32l146 99q27 18 38.5 32.5t11.5 36.5q0 20 -16 34t-44 14t-45 -14t-19 -34q-3 -31 -32 -31h-27q-13 0 -22 9t-9 22q0 53 45 89t109 36q63 0 105.5 -35t42.5 -90 q0 -73 -90 -129z"/>
<glyph glyph-name="threesuperior" horiz-adv-x="435" unicode="³" d="M388 457q0 -60 -48 -92t-122 -32q-67 0 -117.5 35t-50.5 84q0 12 8 19.5t20 7.5h30q27 0 35 -28q4 -16 24.5 -28t52.5 -12q36 0 57 12t21 34q0 41 -62 41h-15q-13 0 -21.5 8.5t-8.5 21.5v23q0 12 8.5 20.5t21.5 8.5h15q20 0 33 9t13 23q0 19 -18 30t-48 11 q-27 0 -45 -11.5t-20 -27.5q-1 -14 -11 -22.5t-23 -8.5h-25q-12 0 -21 8t-9 21q0 51 45 83t108 32q67 0 112 -30.5t45 -83.5q0 -20 -11.5 -40t-29.5 -30q25 -12 41 -35t16 -51z"/>
<glyph glyph-name="acute" horiz-adv-x="400" unicode="´" d="M151 566l53 109q10 20 33 20h58q20 0 20 -17q0 -8 -5 -13l-77 -105q-14 -18 -34 -18h-34q-16 0 -16 15q0 3 2 9z"/>
<glyph glyph-name="paragraph" horiz-adv-x="630" unicode="¶" d="M230 -147v429q-96 8 -153 69t-57 154q0 100 63.5 161t173.5 61h216q17 0 26.5 -9.5t9.5 -26.5v-757q0 -23 23 -23h32q33 0 33 -32v-26q0 -35 -36 -35h-42q-49 0 -79.5 29t-30.5 78v707h-80v-779q0 -15 -10.5 -25t-25.5 -10h-28q-15 0 -25 10t-10 25z"/>
<glyph glyph-name="periodcentered" horiz-adv-x="244" unicode="·" d="M50 300q0 31 21 51.5t51 20.5t51 -20.5t21 -51.5t-21 -51.5t-51 -20.5t-51 20.5t-21 51.5z"/>
<glyph glyph-name="cedilla" horiz-adv-x="500" unicode="¸" d="M298 15v-63q0 -51 -33 -81.5t-84 -30.5h-24q-34 0 -34 33v20q0 15 9 24t25 9h25q30 0 30 27v61q0 34 32 34h23q31 0 31 -33z"/>
<glyph glyph-name="onesuperior" horiz-adv-x="435" unicode="¹" d="M99 415h84v188q-46 -52 -62 -62q-7 -5 -18 -5q-15 0 -23 12l-15 21q-5 8 -5 16q0 13 15 25q63 47 105 97q17 20 33 20h27q13 0 21.5 -8t8.5 -21v-283h81q14 0 22.5 -9t8.5 -22v-20q0 -14 -9 -22.5t-22 -8.5h-252q-13 0 -22 8.5t-9 22.5v20q0 13 8.5 22t22.5 9z"/>
<glyph glyph-name="ordmasculine" horiz-adv-x="470" unicode="º" d="M235 416q42 0 67.5 31t25.5 85q0 50 -26 82t-67 32t-68 -32.5t-27 -81.5q0 -53 26.5 -84.5t68.5 -31.5zM235 727q74 0 127.5 -53.5t53.5 -142.5q0 -92 -52 -145t-129 -53q-78 0 -129.5 53t-51.5 145q0 89 52.5 142.5t128.5 53.5z"/>
<glyph glyph-name="guillemotright" horiz-adv-x="582" unicode="»" d="M124 490l183 -182q11 -11 11 -26t-11 -26l-183 -182q-12 -10 -24 -10q-13 0 -25 10l-19 18q-10 10 -10 23q0 14 11 25l151 142l-151 142q-11 11 -11 25q0 13 10 23l19 18q12 10 25 10q12 0 24 -10zM342 490l183 -182q11 -11 11 -26t-11 -26l-183 -182q-12 -10 -24 -10 q-13 0 -25 10l-19 19q-10 10 -10 23q0 14 11 25l151 141l-151 142q-11 11 -11 25q0 13 10 23l19 18q12 10 25 10q12 0 24 -10z"/>
<glyph glyph-name="onequarter" horiz-adv-x="800" unicode="¼" d="M135 415v188q-46 -52 -62 -62q-8 -5 -18 -5q-15 0 -23 12l-15 21q-5 8 -5 16q0 13 15 25q63 47 105 97q17 20 33 20h27q13 0 21.5 -8t8.5 -21v-283h81q14 0 22.5 -9t8.5 -22v-20q0 -14 -9 -22.5t-22 -8.5h-252q-13 0 -22 8.5t-9 22.5v20q0 13 8.5 22t22.5 9h84zM148 67 l490 649q12 15 30 15q11 0 22 -8l12 -9q14 -12 14 -29q0 -11 -7 -21l-492 -653q-10 -13 -28 -13q-14 0 -22 7l-13 10q-14 11 -14 29q0 12 8 23zM608 170v105q-48 -59 -92 -105h92zM421 174l178 206q14 14 28 14h37q13 0 21.5 -8t8.5 -20v-196h40q31 0 31 -31v-19 q0 -13 -8.5 -21.5t-22.5 -8.5h-40v-59q0 -13 -9 -22t-22 -9h-26q-12 0 -20.5 9t-8.5 22v59h-170q-13 0 -21.5 8.5t-8.5 21.5v22q0 17 13 32z"/>
<glyph glyph-name="onehalf" horiz-adv-x="800" unicode="½" d="M133 415v188q-46 -52 -62 -62q-7 -5 -18 -5q-15 0 -23 12l-15 21q-5 8 -5 16q0 13 15 25q63 47 105 97q17 20 33 20h27q13 0 21.5 -8t8.5 -21v-283h81q14 0 22.5 -9t8.5 -22v-20q0 -14 -9 -22.5t-22 -8.5h-252q-13 0 -22 8.5t-9 22.5v20q0 13 8.5 22t22.5 9h84zM146 67 l490 649q12 15 30 15q11 0 22 -8l12 -9q14 -12 14 -29q0 -11 -7 -21l-492 -653q-10 -13 -28 -13q-14 0 -22 7l-13 10q-14 11 -14 29q0 12 8 23zM582 82h170q14 0 22.5 -9t8.5 -22v-20q0 -14 -9 -22.5t-22 -8.5h-248q-13 0 -22 8.5t-9 22.5v38q0 19 18 32l146 99 q27 18 38.5 32.5t11.5 36.5q0 20 -16 34t-44 14t-45 -14t-19 -34q-3 -31 -32 -31h-27q-13 0 -22 9t-9 22q0 53 45 89t109 36q63 0 105.5 -35t42.5 -90q0 -78 -90 -129z"/>
<glyph glyph-name="threequarters" horiz-adv-x="800" unicode="¾" d="M155 67l490 649q12 15 30 15q11 0 22 -8l12 -9q14 -12 14 -29q0 -11 -7 -21l-492 -653q-10 -13 -28 -13q-14 0 -22 7l-13 10q-14 11 -14 29q0 12 8 23zM365 457q0 -60 -47.5 -92t-122.5 -32q-67 0 -117.5 35t-50.5 84q0 12 8 19.5t20 7.5h30q27 0 35 -28q4 -16 24.5 -28 t52.5 -12q36 0 57 12t21 34q0 41 -62 41h-15q-13 0 -21.5 8.5t-8.5 21.5v23q0 12 8.5 20.5t21.5 8.5h15q20 0 33 9t13 23q0 19 -18 30t-48 11q-27 0 -45 -11.5t-20 -27.5q-1 -14 -11 -22.5t-23 -8.5h-25q-12 0 -21 8t-9 21q0 51 44.5 83t108.5 32q67 0 112 -30.5t45 -83.5 q0 -20 -11.5 -40t-29.5 -30q25 -12 41 -35t16 -51zM615 170v105q-48 -59 -92 -105h92zM428 174l178 206q14 14 28 14h37q13 0 21.5 -8t8.5 -20v-196h40q31 0 31 -31v-19q0 -13 -8.5 -21.5t-22.5 -8.5h-40v-59q0 -13 -9 -22t-22 -9h-26q-12 0 -20.5 9t-8.5 22v59h-170 q-13 0 -21.5 8.5t-8.5 21.5v22q0 17 13 32z"/>
<glyph glyph-name="questiondown" horiz-adv-x="527" unicode="¿" d="M348 655q0 -31 -21 -51.5t-51 -20.5t-51 20.5t-21 51.5t21 51.5t51 20.5t51 -20.5t21 -51.5zM328 487q0 -37 -20 -71.5t-41.5 -54.5t-65.5 -56q-58 -50 -58 -104q0 -53 34.5 -83.5t89.5 -30.5t87 33.5t32 82.5q0 3 -0.5 9t-0.5 9q0 15 10 24t27 9h29q15 0 24.5 -10 t10.5 -26v-10q0 -92 -61 -154t-160 -62q-97 0 -160.5 57t-63.5 154q0 51 27 96t66 73q51 37 72 60.5t21 54.5q0 14 10.5 24t25.5 10h28q15 0 26 -10t11 -24z"/>
<glyph glyph-name="Agrave" horiz-adv-x="695" unicode="À" d="M340 878l47 -88q3 -6 3 -10q0 -7 -5.5 -12t-12.5 -5h-37q-17 0 -35 18l-69 87q-5 7 -5 13q0 19 19 19h60q23 0 35 -22zM486 194h-276l-67 -170q-4 -10 -14 -17t-21 -7h-39q-15 0 -24 8t-9 20q0 7 2 11l256 662q10 26 34 26h40q24 0 34 -26l256 -662q2 -8 2 -11 q0 -12 -8.5 -20t-22.5 -8h-41q-27 0 -36 24zM347 569l-102 -275h205z"/>
<glyph glyph-name="Aacute" horiz-adv-x="695" unicode="Á" d="M308 790l56 88q13 22 35 22h62q18 0 18 -17q0 -7 -5 -14l-78 -88q-18 -18 -35 -18h-39q-7 0 -12 5t-5 12q0 6 3 10zM486 194h-276l-67 -170q-4 -10 -14 -17t-21 -7h-39q-15 0 -24 8t-9 20q0 7 2 11l256 662q10 26 34 26h40q24 0 34 -26l256 -662q2 -8 2 -11 q0 -12 -8.5 -20t-22.5 -8h-41q-27 0 -36 24zM347 569l-102 -275h205z"/>
<glyph glyph-name="Acircumflex" horiz-adv-x="695" unicode="Â" d="M324 900h46q23 0 36 -17l73 -86q6 -7 6 -15t-5.5 -13.5t-14.5 -5.5h-39q-21 0 -36 17l-43 50l-43 -50q-15 -17 -36 -17h-39q-9 0 -14.5 5.5t-5.5 13.5t6 15l73 86q13 17 36 17zM486 194h-276l-67 -170q-4 -10 -14 -17t-21 -7h-39q-15 0 -24 8t-9 20q0 7 2 11l256 662 q10 26 34 26h40q24 0 34 -26l256 -662q2 -8 2 -11q0 -12 -8.5 -20t-22.5 -8h-41q-27 0 -36 24zM347 569l-102 -275h205z"/>
<glyph glyph-name="Atilde" horiz-adv-x="695" unicode="Ã" d="M289 891q24 0 60 -21.5t50 -21.5q23 0 34 23q7 15 26 15h18q24 0 24 -23q0 -41 -29 -69.5t-66 -28.5q-26 0 -62 21.5t-49 21.5q-23 0 -34 -23q-7 -15 -26 -15h-18q-24 0 -24 23q0 41 29.5 69.5t66.5 28.5zM486 194h-276l-67 -170q-4 -10 -14 -17t-21 -7h-39q-15 0 -24 8 t-9 20q0 7 2 11l256 662q10 26 34 26h40q24 0 34 -26l256 -662q2 -8 2 -11q0 -12 -8.5 -20t-22.5 -8h-41q-27 0 -36 24zM347 569l-102 -275h205z"/>
<glyph glyph-name="Adieresis" horiz-adv-x="695" unicode="Ä" d="M446 895q24 0 43 -18.5t19 -42.5t-19 -42.5t-43 -18.5q-25 0 -43.5 18.5t-18.5 42.5q0 25 18.5 43t43.5 18zM249 895q24 0 43 -18.5t19 -42.5t-19 -42.5t-43 -18.5q-25 0 -43.5 18.5t-18.5 42.5q0 25 18.5 43t43.5 18zM486 194h-276l-67 -170q-4 -10 -14 -17t-21 -7h-39 q-15 0 -24 8t-9 20q0 7 2 11l256 662q10 26 34 26h40q24 0 34 -26l256 -662q2 -8 2 -11q0 -12 -8.5 -20t-22.5 -8h-41q-27 0 -36 24zM347 569l-102 -275h205z"/>
<glyph glyph-name="Aring" horiz-adv-x="695" unicode="Å" d="M312 844q0 -15 10 -25.5t26 -10.5q14 0 24.5 10.5t10.5 25.5q0 14 -10.5 25t-24.5 11q-15 0 -25.5 -10.5t-10.5 -25.5zM258 844q0 37 26 62.5t64 25.5t63.5 -25.5t25.5 -62.5t-25.5 -62.5t-63.5 -25.5t-64 25.5t-26 62.5zM486 194h-276l-67 -170q-4 -10 -14 -17t-21 -7 h-39q-15 0 -24 8t-9 20q0 7 2 11l256 662q10 26 34 26h40q24 0 34 -26l256 -662q2 -8 2 -11q0 -12 -8.5 -20t-22.5 -8h-41q-27 0 -36 24zM347 569l-102 -275h205z"/>
<glyph glyph-name="AE" horiz-adv-x="1017" unicode="Æ" d="M312 300h187v319zM909 627h-305v-200h235q16 0 27 -11t11 -27v-25q0 -16 -11 -27t-27 -11h-235v-226h324q17 0 28 -10.5t11 -25.5v-27q0 -15 -11 -26t-28 -11h-391q-16 0 -27 11t-11 26v164h-247l-101 -169q-19 -32 -53 -32h-37q-13 0 -21.5 8t-8.5 20q0 10 5 18l404 652 q17 29 52 29h417q15 0 26 -11t11 -27v-25q0 -17 -10.5 -27t-26.5 -10z"/>
<glyph glyph-name="Ccedilla" horiz-adv-x="717" unicode="Ç" d="M547 209q13 28 42 28h37q14 0 22.5 -8.5t8.5 -21.5q0 -9 -3 -16q-72 -177 -241 -196v-43q0 -51 -33 -81.5t-84 -30.5h-24q-34 0 -34 33v20q0 15 9 24t25 9h25q30 0 30 27v42q-119 16 -190.5 117.5t-71.5 250.5q0 166 85 269t226 103q99 0 172 -57.5t96 -152.5q1 -3 1 -10 q0 -25 -24 -33l-30 -9q-8 -2 -13 -2q-26 0 -35 26q-20 64 -61.5 101.5t-105.5 38.5h-2q-94 0 -149.5 -74.5t-55.5 -198.5q0 -119 54.5 -195t145.5 -76q122 0 178 116z"/>
<glyph glyph-name="Egrave" horiz-adv-x="629" unicode="È" d="M335 878l47 -88q3 -6 3 -10q0 -7 -5.5 -12t-12.5 -5h-37q-17 0 -35 18l-69 87q-5 7 -5 13q0 19 19 19h60q23 0 35 -22zM521 627h-316v-200h246q16 0 27 -11t11 -27v-25q0 -16 -11 -27t-27 -11h-246v-226h335q17 0 28 -10.5t11 -25.5v-27q0 -15 -11 -26t-28 -11h-402 q-16 0 -27 11t-11 26v652q0 16 11 27t27 11h383q15 0 26 -11t11 -27v-25q0 -17 -10.5 -27t-26.5 -10z"/>
<glyph glyph-name="Eacute" horiz-adv-x="629" unicode="É" d="M283 790l56 88q13 22 35 22h62q18 0 18 -17q0 -7 -5 -14l-78 -88q-18 -18 -35 -18h-39q-7 0 -12 5t-5 12q0 6 3 10zM521 627h-316v-200h246q16 0 27 -11t11 -27v-25q0 -16 -11 -27t-27 -11h-246v-226h335q17 0 28 -10.5t11 -25.5v-27q0 -15 -11 -26t-28 -11h-402 q-16 0 -27 11t-11 26v652q0 16 11 27t27 11h383q15 0 26 -11t11 -27v-25q0 -17 -10.5 -27t-26.5 -10z"/>
<glyph glyph-name="Ecircumflex" horiz-adv-x="629" unicode="Ê" d="M306 900h46q23 0 36 -17l73 -86q6 -7 6 -15t-5.5 -13.5t-14.5 -5.5h-39q-21 0 -36 17l-43 50l-43 -50q-15 -17 -36 -17h-39q-9 0 -14.5 5.5t-5.5 13.5t6 15l73 86q13 17 36 17zM521 627h-316v-200h246q16 0 27 -11t11 -27v-25q0 -16 -11 -27t-27 -11h-246v-226h335 q17 0 28 -10.5t11 -25.5v-27q0 -15 -11 -26t-28 -11h-402q-16 0 -27 11t-11 26v652q0 16 11 27t27 11h383q15 0 26 -11t11 -27v-25q0 -17 -10.5 -27t-26.5 -10z"/>
<glyph glyph-name="Edieresis" horiz-adv-x="629" unicode="Ë" d="M433 895q24 0 43 -18.5t19 -42.5t-19 -42.5t-43 -18.5q-25 0 -43.5 18.5t-18.5 42.5q0 25 18.5 43t43.5 18zM236 895q24 0 43 -18.5t19 -42.5t-19 -42.5t-43 -18.5q-25 0 -43.5 18.5t-18.5 42.5q0 25 18.5 43t43.5 18zM521 627h-316v-200h246q16 0 27 -11t11 -27v-25 q0 -16 -11 -27t-27 -11h-246v-226h335q17 0 28 -10.5t11 -25.5v-27q0 -15 -11 -26t-28 -11h-402q-16 0 -27 11t-11 26v652q0 16 11 27t27 11h383q15 0 26 -11t11 -27v-25q0 -17 -10.5 -27t-26.5 -10z"/>
<glyph glyph-name="Igrave" horiz-adv-x="363" unicode="Ì" d="M175 878l47 -88q3 -6 3 -10q0 -7 -5.5 -12t-12.5 -5h-37q-17 0 -35 18l-69 87q-5 7 -5 13q0 19 19 19h60q23 0 35 -22zM130 36v654q0 16 10.5 26.5t26.5 10.5h29q16 0 26.5 -10.5t10.5 -26.5v-654q0 -15 -10.5 -25.5t-26.5 -10.5h-28q-16 0 -27 10.5t-11 25.5z"/>
<glyph glyph-name="Iacute" horiz-adv-x="363" unicode="Í" d="M143 790l56 88q13 22 35 22h62q18 0 18 -17q0 -7 -5 -14l-78 -88q-18 -18 -35 -18h-39q-7 0 -12 5t-5 12q0 6 3 10zM130 36v654q0 16 10.5 26.5t26.5 10.5h29q16 0 26.5 -10.5t10.5 -26.5v-654q0 -15 -10.5 -25.5t-26.5 -10.5h-28q-16 0 -27 10.5t-11 25.5z"/>
<glyph glyph-name="Icircumflex" horiz-adv-x="363" unicode="Î" d="M158 900h46q23 0 36 -17l73 -86q6 -7 6 -15t-5.5 -13.5t-14.5 -5.5h-39q-21 0 -36 17l-43 50l-43 -50q-15 -17 -36 -17h-39q-9 0 -14.5 5.5t-5.5 13.5t6 15l73 86q13 17 36 17zM130 36v654q0 16 10.5 26.5t26.5 10.5h29q16 0 26.5 -10.5t10.5 -26.5v-654 q0 -15 -10.5 -25.5t-26.5 -10.5h-28q-16 0 -27 10.5t-11 25.5z"/>
<glyph glyph-name="Idieresis" horiz-adv-x="363" unicode="Ï" d="M281 895q24 0 43 -18.5t19 -42.5t-19 -42.5t-43 -18.5q-25 0 -43.5 18.5t-18.5 42.5q0 25 18.5 43t43.5 18zM84 895q24 0 43 -18.5t19 -42.5t-19 -42.5t-43 -18.5q-25 0 -43.5 18.5t-18.5 42.5q0 25 18.5 43t43.5 18zM130 36v654q0 16 10.5 26.5t26.5 10.5h29 q16 0 26.5 -10.5t10.5 -26.5v-654q0 -15 -10.5 -25.5t-26.5 -10.5h-28q-16 0 -27 10.5t-11 25.5z"/>
<glyph glyph-name="Eth" horiz-adv-x="747" unicode="Ð" d="M219 99h115q111 0 178 73.5t67 189.5q0 120 -66 193t-180 73h-114v-194h139q15 0 26 -11t11 -27v-25q0 -16 -11 -27t-26 -11h-139v-234zM331 0h-179q-15 0 -25.5 11t-10.5 26v296h-42q-17 0 -28 11t-11 27v25q0 16 11 27t28 11h42v255q0 16 10.5 27t25.5 11h177 q159 0 256 -100t97 -265q0 -160 -99 -261t-252 -101z"/>
<glyph glyph-name="Ntilde" horiz-adv-x="723" unicode="Ñ" d="M309 891q24 0 60 -21.5t50 -21.5q23 0 34 23q7 15 26 15h18q24 0 24 -23q0 -41 -29 -69.5t-66 -28.5q-26 0 -62 21.5t-49 21.5q-23 0 -34 -23q-7 -15 -26 -15h-18q-24 0 -24 23q0 41 29.5 69.5t66.5 28.5zM510 25l-307 519v-507q0 -15 -10.5 -26t-26.5 -11h-28 q-16 0 -27 11t-11 26v652q0 16 11 27t27 11h42q26 0 39 -22l301 -507v491q0 16 10.5 27t26.5 11h28q16 0 27 -11t11 -27v-652q0 -15 -11 -26t-27 -11h-37q-23 0 -38 25z"/>
<glyph glyph-name="Ograve" horiz-adv-x="727" unicode="Ò" d="M360 878l47 -88q3 -6 3 -10q0 -7 -5.5 -12t-12.5 -5h-37q-17 0 -35 18l-69 87q-5 7 -5 13q0 19 19 19h60q23 0 35 -22zM362 636q-88 0 -140.5 -77.5t-52.5 -195.5q0 -120 51.5 -195.5t141.5 -75.5q89 0 142.5 76t53.5 195q0 120 -53.5 196.5t-142.5 76.5zM362 -8 q-134 0 -215.5 103.5t-81.5 267.5q0 163 82 267.5t215 104.5q132 0 216 -105.5t84 -266.5t-84.5 -266t-215.5 -105z"/>
<glyph glyph-name="Oacute" horiz-adv-x="727" unicode="Ó" d="M328 790l56 88q13 22 35 22h62q18 0 18 -17q0 -7 -5 -14l-78 -88q-18 -18 -35 -18h-39q-7 0 -12 5t-5 12q0 6 3 10zM362 636q-88 0 -140.5 -77.5t-52.5 -195.5q0 -120 51.5 -195.5t141.5 -75.5q89 0 142.5 76t53.5 195q0 120 -53.5 196.5t-142.5 76.5zM362 -8 q-134 0 -215.5 103.5t-81.5 267.5q0 163 82 267.5t215 104.5q132 0 216 -105.5t84 -266.5t-84.5 -266t-215.5 -105z"/>
<glyph glyph-name="Ocircumflex" horiz-adv-x="727" unicode="Ô" d="M339 900h46q23 0 36 -17l73 -86q6 -7 6 -15t-5.5 -13.5t-14.5 -5.5h-39q-21 0 -36 17l-43 50l-43 -50q-15 -17 -36 -17h-39q-9 0 -14.5 5.5t-5.5 13.5t6 15l73 86q13 17 36 17zM362 636q-88 0 -140.5 -77.5t-52.5 -195.5q0 -120 51.5 -195.5t141.5 -75.5q89 0 142.5 76 t53.5 195q0 120 -53.5 196.5t-142.5 76.5zM362 -8q-134 0 -215.5 103.5t-81.5 267.5q0 163 82 267.5t215 104.5q132 0 216 -105.5t84 -266.5t-84.5 -266t-215.5 -105z"/>
<glyph glyph-name="Otilde" horiz-adv-x="727" unicode="Õ" d="M306 891q24 0 60 -21.5t50 -21.5q23 0 34 23q7 15 26 15h18q24 0 24 -23q0 -41 -29 -69.5t-66 -28.5q-26 0 -62 21.5t-49 21.5q-23 0 -34 -23q-7 -15 -26 -15h-18q-24 0 -24 23q0 41 29.5 69.5t66.5 28.5zM362 636q-88 0 -140.5 -77.5t-52.5 -195.5q0 -120 51.5 -195.5 t141.5 -75.5q89 0 142.5 76t53.5 195q0 120 -53.5 196.5t-142.5 76.5zM362 -8q-134 0 -215.5 103.5t-81.5 267.5q0 163 82 267.5t215 104.5q132 0 216 -105.5t84 -266.5t-84.5 -266t-215.5 -105z"/>
<glyph glyph-name="Odieresis" horiz-adv-x="727" unicode="Ö" d="M462 895q24 0 43 -18.5t19 -42.5t-19 -42.5t-43 -18.5q-25 0 -43.5 18.5t-18.5 42.5q0 25 18.5 43t43.5 18zM265 895q24 0 43 -18.5t19 -42.5t-19 -42.5t-43 -18.5q-25 0 -43.5 18.5t-18.5 42.5q0 25 18.5 43t43.5 18zM362 636q-88 0 -140.5 -77.5t-52.5 -195.5 q0 -120 51.5 -195.5t141.5 -75.5q89 0 142.5 76t53.5 195q0 120 -53.5 196.5t-142.5 76.5zM362 -8q-134 0 -215.5 103.5t-81.5 267.5q0 163 82 267.5t215 104.5q132 0 216 -105.5t84 -266.5t-84.5 -266t-215.5 -105z"/>
<glyph glyph-name="multiply" horiz-adv-x="512" unicode="×" d="M394 46l-137 137l-137 -137q-10 -10 -24 -10t-27 11l-17 17q-11 11 -11 25t11 25l137 137l-136 136q-11 11 -11 25q0 15 11 26l17 18q10 10 25 10t26 -11l136 -136l136 136q11 11 25 11q15 0 26 -11l18 -17q10 -10 10 -25t-11 -26l-136 -136l137 -137q10 -10 10 -24 t-11 -27l-17 -17q-11 -11 -25 -11t-25 11z"/>
<glyph glyph-name="Oslash" horiz-adv-x="752" unicode="Ø" d="M382 637q-88 0 -140.5 -78t-52.5 -196q0 -74 19 -130l289 358q-49 46 -115 46zM578 363q0 79 -25 143l-293 -363q49 -52 122 -52q89 0 142.5 76.5t53.5 195.5zM79 74l56 69q-50 95 -50 221q0 163 82 267t215 104q103 0 178 -66l38 46q11 13 28 13q12 0 23 -8l19 -16 q14 -11 14 -27q0 -13 -9 -23l-50 -61q59 -98 59 -230q0 -161 -84.5 -266t-215.5 -105q-109 0 -186 72l-41 -51q-11 -13 -27 -13q-12 0 -23 8l-19 15q-15 12 -15 29q0 11 8 22z"/>
<glyph glyph-name="Ugrave" horiz-adv-x="721" unicode="Ù" d="M360 878l47 -88q3 -6 3 -10q0 -7 -5.5 -12t-12.5 -5h-37q-17 0 -35 18l-69 87q-5 7 -5 13q0 19 19 19h60q23 0 35 -22zM361 -7q-119 0 -190 67.5t-71 184.5v444q0 16 11 27t26 11h30q16 0 27 -11t11 -27v-446q0 -71 42 -111.5t114 -40.5t113.5 40t41.5 112v446 q0 16 11 27t27 11h29q16 0 27 -11t11 -27v-444q0 -116 -71 -184t-189 -68z"/>
<glyph glyph-name="Uacute" horiz-adv-x="721" unicode="Ú" d="M328 790l56 88q13 22 35 22h62q18 0 18 -17q0 -7 -5 -14l-78 -88q-18 -18 -35 -18h-39q-7 0 -12 5t-5 12q0 6 3 10zM361 -7q-119 0 -190 67.5t-71 184.5v444q0 16 11 27t26 11h30q16 0 27 -11t11 -27v-446q0 -71 42 -111.5t114 -40.5t113.5 40t41.5 112v446q0 16 11 27 t27 11h29q16 0 27 -11t11 -27v-444q0 -116 -71 -184t-189 -68z"/>
<glyph glyph-name="Ucircumflex" horiz-adv-x="721" unicode="Û" d="M336 900h46q23 0 36 -17l73 -86q6 -7 6 -15t-5.5 -13.5t-14.5 -5.5h-39q-21 0 -36 17l-43 50l-43 -50q-15 -17 -36 -17h-39q-9 0 -14.5 5.5t-5.5 13.5t6 15l73 86q13 17 36 17zM361 -7q-119 0 -190 67.5t-71 184.5v444q0 16 11 27t26 11h30q16 0 27 -11t11 -27v-446 q0 -71 42 -111.5t114 -40.5t113.5 40t41.5 112v446q0 16 11 27t27 11h29q16 0 27 -11t11 -27v-444q0 -116 -71 -184t-189 -68z"/>
<glyph glyph-name="Udieresis" horiz-adv-x="721" unicode="Ü" d="M459 895q24 0 43 -18.5t19 -42.5t-19 -42.5t-43 -18.5q-25 0 -43.5 18.5t-18.5 42.5q0 25 18.5 43t43.5 18zM262 895q24 0 43 -18.5t19 -42.5t-19 -42.5t-43 -18.5q-25 0 -43.5 18.5t-18.5 42.5q0 25 18.5 43t43.5 18zM361 -7q-119 0 -190 67.5t-71 184.5v444q0 16 11 27 t26 11h30q16 0 27 -11t11 -27v-446q0 -71 42 -111.5t114 -40.5t113.5 40t41.5 112v446q0 16 11 27t27 11h29q16 0 27 -11t11 -27v-444q0 -116 -71 -184t-189 -68z"/>
<glyph glyph-name="Yacute" horiz-adv-x="620" unicode="Ý" d="M278 790l56 88q13 22 35 22h62q18 0 18 -17q0 -7 -5 -14l-78 -88q-18 -18 -35 -18h-39q-7 0 -12 5t-5 12q0 6 3 10zM129 706l181 -330l181 330q11 21 35 21h42q13 0 22 -9.5t9 -21.5q0 -9 -4 -16l-234 -414v-229q0 -15 -11 -26t-25 -11h-29q-16 0 -27 11t-11 26v229 l-232 414q-5 8 -5 19q0 28 31 28h42q23 0 35 -21z"/>
<glyph glyph-name="Thorn" horiz-adv-x="667" unicode="Þ" d="M387 506h-182v-250h182q64 0 99 32t35 92q0 59 -35 92.5t-99 33.5zM205 605h183q110 0 174.5 -61t64.5 -164q0 -102 -64.5 -163t-174.5 -61h-183v-119q0 -15 -11 -26t-26 -11h-30q-16 0 -27 11t-11 26v652q0 16 11 27t27 11h30q16 0 26.5 -11t10.5 -27v-84z"/>
<glyph glyph-name="germandbls" horiz-adv-x="599" unicode="ß" d="M80 36v504q0 91 60.5 143t153.5 52q94 0 154 -52t60 -142q0 -43 -22 -81t-53 -59q46 -27 76 -74.5t30 -106.5q0 -103 -67.5 -161.5t-178.5 -58.5h-30q-16 0 -26.5 10.5t-10.5 25.5v25q0 14 10.5 24.5t26.5 10.5h30q65 0 105 31.5t40 92.5q0 59 -41 92t-105 33h-28 q-16 0 -26.5 10.5t-10.5 24.5v25q0 14 10.5 24.5t26.5 10.5h31q50 0 81.5 27.5t31.5 72.5q0 47 -31.5 74.5t-83.5 27.5t-83 -27.5t-31 -74.5v-504q0 -15 -10.5 -25.5t-26.5 -10.5h-28q-14 0 -24 10.5t-10 25.5z"/>
<glyph glyph-name="agrave" d="M258 675l44 -110q1 -2 1 -7q0 -16 -16 -16h-34q-19 0 -31 16l-71 109q-4 5 -4 12q0 16 18 16h61q24 0 32 -20zM228 87q10 -1 30 -1t30 1q72 8 80 61v76q-18 -16 -63 -20q-41 -3 -80 -3q-32 0 -50.5 -15t-18.5 -41q0 -25 19 -40t53 -18zM64 354q12 70 67 111t134 41 q88 0 144 -54.5t56 -140.5v-196q0 -20 21 -20q14 0 23.5 -9t9.5 -24v-28q0 -16 -10 -25t-26 -9h-20q-23 0 -46.5 13.5t-31.5 30.5q-35 -45 -103 -49q-12 -1 -38 -1h-16q-80 4 -126 43t-46 107q0 69 46.5 106t124.5 37q27 0 77 2t64 24v5q1 44 -25.5 71t-76.5 27 q-88 0 -102 -66q-6 -30 -40 -30h-30q-13 0 -22 7.5t-9 19.5q0 1 0.5 3.5t0.5 3.5z" unicode="à"/>
<glyph glyph-name="aacute" d="M221 566l53 109q10 20 33 20h58q20 0 20 -17q0 -8 -5 -13l-77 -105q-14 -18 -34 -18h-34q-16 0 -16 15q0 3 2 9zM228 87q10 -1 30 -1t30 1q72 8 80 61v76q-18 -16 -63 -20q-41 -3 -80 -3q-32 0 -50.5 -15t-18.5 -41q0 -25 19 -40t53 -18zM64 354q12 70 67 111t134 41 q88 0 144 -54.5t56 -140.5v-196q0 -20 21 -20q14 0 23.5 -9t9.5 -24v-28q0 -16 -10 -25t-26 -9h-20q-23 0 -46.5 13.5t-31.5 30.5q-35 -45 -103 -49q-12 -1 -38 -1h-16q-80 4 -126 43t-46 107q0 69 46.5 106t124.5 37q27 0 77 2t64 24v5q1 44 -25.5 71t-76.5 27 q-88 0 -102 -66q-6 -30 -40 -30h-30q-13 0 -22 7.5t-9 19.5q0 1 0.5 3.5t0.5 3.5z" unicode="á"/>
<glyph glyph-name="acircumflex" d="M244 682h44q19 0 34 -18l73 -91q4 -6 4 -12q0 -19 -20 -19h-36q-17 0 -32 17l-46 51l-44 -51q-15 -17 -32 -17h-36q-20 0 -20 19q0 6 4 12l73 91q15 18 34 18zM228 87q10 -1 30 -1t30 1q72 8 80 61v76q-18 -16 -63 -20q-41 -3 -80 -3q-32 0 -50.5 -15t-18.5 -41 q0 -25 19 -40t53 -18zM64 354q12 70 67 111t134 41q88 0 144 -54.5t56 -140.5v-196q0 -20 21 -20q14 0 23.5 -9t9.5 -24v-28q0 -16 -10 -25t-26 -9h-20q-23 0 -46.5 13.5t-31.5 30.5q-35 -45 -103 -49q-12 -1 -38 -1h-16q-80 4 -126 43t-46 107q0 69 46.5 106t124.5 37 q27 0 77 2t64 24v5q1 44 -25.5 71t-76.5 27q-88 0 -102 -66q-6 -30 -40 -30h-30q-13 0 -22 7.5t-9 19.5q0 1 0.5 3.5t0.5 3.5z" unicode="â"/>
<glyph glyph-name="atilde" d="M209 670q29 0 62.5 -21.5t45.5 -21.5q23 0 33 22q7 15 26 15h18q24 0 24 -23q0 -40 -29 -67.5t-65 -27.5q-28 0 -62.5 21.5t-46.5 21.5q-23 0 -33 -22q-7 -15 -26 -15h-18q-24 0 -24 23q0 40 29.5 67.5t65.5 27.5zM228 87q10 -1 30 -1t30 1q72 8 80 61v76 q-18 -16 -63 -20q-41 -3 -80 -3q-32 0 -50.5 -15t-18.5 -41q0 -25 19 -40t53 -18zM64 354q12 70 67 111t134 41q88 0 144 -54.5t56 -140.5v-196q0 -20 21 -20q14 0 23.5 -9t9.5 -24v-28q0 -16 -10 -25t-26 -9h-20q-23 0 -46.5 13.5t-31.5 30.5q-35 -45 -103 -49 q-12 -1 -38 -1h-16q-80 4 -126 43t-46 107q0 69 46.5 106t124.5 37q27 0 77 2t64 24v5q1 44 -25.5 71t-76.5 27q-88 0 -102 -66q-6 -30 -40 -30h-30q-13 0 -22 7.5t-9 19.5q0 1 0.5 3.5t0.5 3.5z" unicode="ã"/>
<glyph glyph-name="adieresis" d="M366 679q24 0 43 -18.5t19 -42.5t-19 -42.5t-43 -18.5q-25 0 -43.5 18.5t-18.5 42.5q0 25 18.5 43t43.5 18zM169 679q24 0 43 -18.5t19 -42.5t-19 -42.5t-43 -18.5q-25 0 -43.5 18.5t-18.5 42.5q0 25 18.5 43t43.5 18zM228 87q10 -1 30 -1t30 1q72 8 80 61v76 q-18 -16 -63 -20q-41 -3 -80 -3q-32 0 -50.5 -15t-18.5 -41q0 -25 19 -40t53 -18zM64 354q12 70 67 111t134 41q88 0 144 -54.5t56 -140.5v-196q0 -20 21 -20q14 0 23.5 -9t9.5 -24v-28q0 -16 -10 -25t-26 -9h-20q-23 0 -46.5 13.5t-31.5 30.5q-35 -45 -103 -49 q-12 -1 -38 -1h-16q-80 4 -126 43t-46 107q0 69 46.5 106t124.5 37q27 0 77 2t64 24v5q1 44 -25.5 71t-76.5 27q-88 0 -102 -66q-6 -30 -40 -30h-30q-13 0 -22 7.5t-9 19.5q0 1 0.5 3.5t0.5 3.5z" unicode="ä"/>
<glyph glyph-name="aring" d="M235 625q0 -15 10 -25.5t26 -10.5q14 0 24.5 10.5t10.5 25.5q0 14 -10.5 25t-24.5 11q-15 0 -25.5 -10.5t-10.5 -25.5zM181 625q0 37 26 62.5t64 25.5t63.5 -25.5t25.5 -62.5t-25.5 -62.5t-63.5 -25.5t-64 25.5t-26 62.5zM228 87q10 -1 30 -1t30 1q72 8 80 61v76 q-18 -16 -63 -20q-41 -3 -80 -3q-32 0 -50.5 -15t-18.5 -41q0 -25 19 -40t53 -18zM64 354q12 70 67 111t134 41q88 0 144 -54.5t56 -140.5v-196q0 -20 21 -20q14 0 23.5 -9t9.5 -24v-28q0 -16 -10 -25t-26 -9h-20q-23 0 -46.5 13.5t-31.5 30.5q-35 -45 -103 -49 q-12 -1 -38 -1h-16q-80 4 -126 43t-46 107q0 69 46.5 106t124.5 37q27 0 77 2t64 24v5q1 44 -25.5 71t-76.5 27q-88 0 -102 -66q-6 -30 -40 -30h-30q-13 0 -22 7.5t-9 19.5q0 1 0.5 3.5t0.5 3.5z" unicode="å"/>
<glyph glyph-name="ae" horiz-adv-x="869" unicode="æ" d="M476 315h237q-2 43 -34.5 73t-79.5 30q-49 0 -82.5 -31t-40.5 -72zM231 87q6 0 17 -0.5t16 -0.5t16.5 0.5t17.5 0.5q32 1 51.5 19.5t22.5 41.5v73q-17 -16 -63 -18l-83 -2q-70 -2 -70 -57q0 -25 20.5 -40t54.5 -17zM711 149q12 25 38 25h30q14 0 23 -8.5t9 -21.5 q0 -6 -3 -14q-24 -63 -79 -100.5t-127 -37.5q-107 0 -172 73q-21 -31 -59.5 -49.5t-77.5 -20.5q-6 0 -17 -0.5t-16 -0.5t-15 0.5t-16 0.5q-81 4 -127.5 42.5t-46.5 107.5q0 70 47 107t125 38l81 1q49 0 64 22v5q0 43 -28.5 71t-78.5 28q-88 0 -103 -67q-6 -30 -40 -30h-28 q-13 0 -22 8t-9 21q0 71 62.5 114t139.5 43q107 0 164 -77q66 77 172 77q92 0 152.5 -60t60.5 -147v-33q0 -37 -37 -37h-306q-1 -62 37 -104t94 -42q79 0 109 66z"/>
<glyph glyph-name="ccedilla" horiz-adv-x="536" unicode="ç" d="M384 336q-29 78 -107 79h-2q-58 0 -93 -47.5t-35 -118.5q0 -70 35.5 -117t94.5 -47h2q40 1 70 22t41 57q8 28 39 28h31q13 0 21.5 -8t8.5 -21q0 -6 -1 -9q-14 -60 -61 -103t-110 -55v-44q0 -51 -33 -81.5t-84 -30.5h-24q-34 0 -34 33v20q0 15 9 24t25 9h25q30 0 30 27v43 q-86 15 -134 84t-48 169q0 110 62.5 183.5t164.5 73.5q76 0 127 -37.5t73 -101.5q2 -4 2 -13q0 -22 -23 -29l-27 -9q-10 -2 -14 -2q-24 0 -31 22z"/>
<glyph glyph-name="egrave" horiz-adv-x="546" unicode="è" d="M278 675l44 -110q1 -2 1 -7q0 -16 -16 -16h-34q-19 0 -31 16l-71 109q-4 5 -4 12q0 16 18 16h61q24 0 32 -20zM155 314h235q-1 44 -32.5 74t-79.5 30q-49 0 -82.5 -31t-40.5 -73zM388 146q12 25 39 25h30q14 0 22.5 -8t8.5 -21q0 -8 -3 -15q-24 -63 -78.5 -99t-126.5 -36 q-108 0 -169 73t-61 188q0 107 62.5 180t166.5 73q92 0 151 -60t61 -148v-32q0 -37 -37 -37h-305q-1 -63 36.5 -104.5t94.5 -41.5q80 0 108 63z"/>
<glyph glyph-name="eacute" horiz-adv-x="546" unicode="é" d="M241 566l53 109q10 20 33 20h58q20 0 20 -17q0 -8 -5 -13l-77 -105q-14 -18 -34 -18h-34q-16 0 -16 15q0 3 2 9zM155 314h235q-1 44 -32.5 74t-79.5 30q-49 0 -82.5 -31t-40.5 -73zM388 146q12 25 39 25h30q14 0 22.5 -8t8.5 -21q0 -8 -3 -15q-24 -63 -78.5 -99 t-126.5 -36q-108 0 -169 73t-61 188q0 107 62.5 180t166.5 73q92 0 151 -60t61 -148v-32q0 -37 -37 -37h-305q-1 -63 36.5 -104.5t94.5 -41.5q80 0 108 63z"/>
<glyph glyph-name="ecircumflex" horiz-adv-x="546" unicode="ê" d="M259 682h44q19 0 34 -18l73 -91q4 -6 4 -12q0 -19 -20 -19h-36q-17 0 -32 17l-46 51l-44 -51q-15 -17 -32 -17h-36q-20 0 -20 19q0 6 4 12l73 91q15 18 34 18zM155 314h235q-1 44 -32.5 74t-79.5 30q-49 0 -82.5 -31t-40.5 -73zM388 146q12 25 39 25h30q14 0 22.5 -8 t8.5 -21q0 -8 -3 -15q-24 -63 -78.5 -99t-126.5 -36q-108 0 -169 73t-61 188q0 107 62.5 180t166.5 73q92 0 151 -60t61 -148v-32q0 -37 -37 -37h-305q-1 -63 36.5 -104.5t94.5 -41.5q80 0 108 63z"/>
<glyph glyph-name="edieresis" horiz-adv-x="546" unicode="ë" d="M376 679q24 0 43 -18.5t19 -42.5t-19 -42.5t-43 -18.5q-25 0 -43.5 18.5t-18.5 42.5q0 25 18.5 43t43.5 18zM179 679q24 0 43 -18.5t19 -42.5t-19 -42.5t-43 -18.5q-25 0 -43.5 18.5t-18.5 42.5q0 25 18.5 43t43.5 18zM155 314h235q-1 44 -32.5 74t-79.5 30 q-49 0 -82.5 -31t-40.5 -73zM388 146q12 25 39 25h30q14 0 22.5 -8t8.5 -21q0 -8 -3 -15q-24 -63 -78.5 -99t-126.5 -36q-108 0 -169 73t-61 188q0 107 62.5 180t166.5 73q92 0 151 -60t61 -148v-32q0 -37 -37 -37h-305q-1 -63 36.5 -104.5t94.5 -41.5q80 0 108 63z"/>
<glyph glyph-name="igrave" horiz-adv-x="300" unicode="ì" d="M143 675l44 -110q1 -2 1 -7q0 -16 -16 -16h-34q-19 0 -31 16l-71 109q-4 5 -4 12q0 16 18 16h61q24 0 32 -20zM102 36v426q0 15 10 25.5t25 10.5h26q16 0 25.5 -10.5t9.5 -25.5v-426q0 -15 -10.5 -25.5t-25.5 -10.5h-25q-15 0 -25 10.5t-10 25.5z"/>
<glyph glyph-name="iacute" horiz-adv-x="300" unicode="í" d="M111 566l53 109q10 20 33 20h58q20 0 20 -17q0 -8 -5 -13l-77 -105q-14 -18 -34 -18h-34q-16 0 -16 15q0 3 2 9zM102 36v426q0 15 10 25.5t25 10.5h26q16 0 25.5 -10.5t9.5 -25.5v-426q0 -15 -10.5 -25.5t-25.5 -10.5h-25q-15 0 -25 10.5t-10 25.5z"/>
<glyph glyph-name="icircumflex" horiz-adv-x="300" unicode="î" d="M129 682h44q19 0 34 -18l73 -91q4 -6 4 -12q0 -19 -20 -19h-36q-17 0 -32 17l-46 51l-44 -51q-15 -17 -32 -17h-36q-20 0 -20 19q0 6 4 12l73 91q15 18 34 18zM102 36v426q0 15 10 25.5t25 10.5h26q16 0 25.5 -10.5t9.5 -25.5v-426q0 -15 -10.5 -25.5t-25.5 -10.5h-25 q-15 0 -25 10.5t-10 25.5z"/>
<glyph glyph-name="idieresis" horiz-adv-x="300" unicode="ï" d="M248 679q24 0 43 -18.5t19 -42.5t-19 -42.5t-43 -18.5q-25 0 -43.5 18.5t-18.5 42.5q0 25 18.5 43t43.5 18zM51 679q24 0 43 -18.5t19 -42.5t-19 -42.5t-43 -18.5q-25 0 -43.5 18.5t-18.5 42.5q0 25 18.5 43t43.5 18zM102 36v426q0 15 10 25.5t25 10.5h26 q16 0 25.5 -10.5t9.5 -25.5v-426q0 -15 -10.5 -25.5t-25.5 -10.5h-25q-15 0 -25 10.5t-10 25.5z"/>
<glyph glyph-name="eth" horiz-adv-x="599" unicode="ð" d="M392 678l71 41q14 7 22 7q16 0 27 -17l15 -28q4 -7 4 -15q0 -22 -19 -31l-53 -29q85 -116 85 -293q0 -28 -1 -43q-9 -132 -79.5 -204t-176.5 -72t-171.5 68.5t-65.5 170.5q0 101 68 170t173 69q39 0 83 -18t72 -45q-3 36 -24.5 78.5t-47.5 69.5l-87 -50q-10 -5 -18 -5 q-20 0 -31 18l-13 23q-4 7 -4 17q0 22 18 31l61 34q-16 12 -31 22q-15 9 -15 27q0 11 8 22l15 20q9 13 29 13q12 0 23 -6q29 -18 63 -45zM288 85q65 0 107 42t42 109q0 63 -43 104.5t-106 41.5q-62 0 -100.5 -42.5t-38.5 -106.5q0 -63 38.5 -105.5t100.5 -42.5z"/>
<glyph glyph-name="ntilde" horiz-adv-x="580" unicode="ñ" d="M234 670q29 0 62.5 -21.5t45.5 -21.5q23 0 33 22q7 15 26 15h18q24 0 24 -23q0 -40 -29 -67.5t-65 -27.5q-28 0 -62.5 21.5t-46.5 21.5q-23 0 -33 -22q-7 -15 -26 -15h-18q-24 0 -24 23q0 40 29.5 67.5t65.5 27.5zM177 463l1 -14q23 24 58 40.5t71 16.5h2q89 0 140 -53.5 t51 -144.5v-272q0 -15 -10.5 -25.5t-25.5 -10.5h-26q-15 0 -25.5 10.5t-10.5 25.5v274q0 50 -28.5 77.5t-78.5 27.5q-39 0 -73 -28t-44 -63v-288q0 -15 -10.5 -25.5t-26.5 -10.5h-26q-15 0 -25 10.5t-10 25.5v426q0 15 10 25.5t25 10.5h26q15 0 25 -10t11 -25z"/>
<glyph glyph-name="ograve" horiz-adv-x="556" unicode="ò" d="M273 675l44 -110q1 -2 1 -7q0 -16 -16 -16h-34q-19 0 -31 16l-71 109q-4 5 -4 12q0 16 18 16h61q24 0 32 -20zM278 415q-57 0 -94 -47t-37 -118q0 -73 37 -119t94 -46t94 46t37 119q0 71 -37 118t-94 47zM278 -8q-98 0 -163 73t-65 185q0 110 66 183t162 73t162 -73 t66 -183q0 -112 -65 -185t-163 -73z"/>
<glyph glyph-name="oacute" horiz-adv-x="556" unicode="ó" d="M241 566l53 109q10 20 33 20h58q20 0 20 -17q0 -8 -5 -13l-77 -105q-14 -18 -34 -18h-34q-16 0 -16 15q0 3 2 9zM278 415q-57 0 -94 -47t-37 -118q0 -73 37 -119t94 -46t94 46t37 119q0 71 -37 118t-94 47zM278 -8q-98 0 -163 73t-65 185q0 110 66 183t162 73t162 -73 t66 -183q0 -112 -65 -185t-163 -73z"/>
<glyph glyph-name="ocircumflex" horiz-adv-x="556" unicode="ô" d="M256 682h44q19 0 34 -18l73 -91q4 -6 4 -12q0 -19 -20 -19h-36q-17 0 -32 17l-46 51l-44 -51q-15 -17 -32 -17h-36q-20 0 -20 19q0 6 4 12l73 91q15 18 34 18zM278 415q-57 0 -94 -47t-37 -118q0 -73 37 -119t94 -46t94 46t37 119q0 71 -37 118t-94 47zM278 -8 q-98 0 -163 73t-65 185q0 110 66 183t162 73t162 -73t66 -183q0 -112 -65 -185t-163 -73z"/>
<glyph glyph-name="otilde" horiz-adv-x="556" unicode="õ" d="M219 670q29 0 62.5 -21.5t45.5 -21.5q23 0 33 22q7 15 26 15h18q24 0 24 -23q0 -40 -29 -67.5t-65 -27.5q-28 0 -62.5 21.5t-46.5 21.5q-23 0 -33 -22q-7 -15 -26 -15h-18q-24 0 -24 23q0 40 29.5 67.5t65.5 27.5zM278 415q-57 0 -94 -47t-37 -118q0 -73 37 -119t94 -46 t94 46t37 119q0 71 -37 118t-94 47zM278 -8q-98 0 -163 73t-65 185q0 110 66 183t162 73t162 -73t66 -183q0 -112 -65 -185t-163 -73z"/>
<glyph glyph-name="odieresis" horiz-adv-x="556" unicode="ö" d="M376 679q24 0 43 -18.5t19 -42.5t-19 -42.5t-43 -18.5q-25 0 -43.5 18.5t-18.5 42.5q0 25 18.5 43t43.5 18zM179 679q24 0 43 -18.5t19 -42.5t-19 -42.5t-43 -18.5q-25 0 -43.5 18.5t-18.5 42.5q0 25 18.5 43t43.5 18zM278 415q-57 0 -94 -47t-37 -118q0 -73 37 -119 t94 -46t94 46t37 119q0 71 -37 118t-94 47zM278 -8q-98 0 -163 73t-65 185q0 110 66 183t162 73t162 -73t66 -183q0 -112 -65 -185t-163 -73z"/>
<glyph glyph-name="divide" horiz-adv-x="512" unicode="÷" d="M193 439q0 29 19.5 48t47.5 19t47.5 -19t19.5 -48t-19.5 -48t-47.5 -19t-47.5 19t-19.5 48zM193 67q0 29 19.5 48t47.5 19t47.5 -19t19.5 -48t-19.5 -48t-47.5 -19t-47.5 19t-19.5 48zM86 300h341q14 0 24.5 -10.5t10.5 -25.5v-23q0 -15 -10.5 -25.5t-24.5 -10.5h-341 q-15 0 -25.5 10.5t-10.5 25.5v23q0 15 10.5 25.5t25.5 10.5z"/>
<glyph glyph-name="oslash" horiz-adv-x="590" unicode="ø" d="M425 250q0 39 -12 72l-179 -221q32 -16 60 -16q57 0 94 46t37 119zM294 413q-57 0 -94 -46t-37 -117q0 -41 12 -74l178 220q-29 17 -59 17zM64 39l45 55q-43 67 -43 155q0 110 66.5 183.5t161.5 73.5q61 0 117 -38l42 52q10 13 29 13q14 0 22 -8l17 -14q13 -10 13 -28 q0 -14 -8 -22l-48 -59q44 -68 44 -153q0 -112 -65 -184.5t-163 -72.5q-63 0 -119 36l-39 -48q-11 -13 -28 -13q-12 0 -22 8l-18 15q-13 11 -13 26q0 13 9 23z"/>
<glyph glyph-name="ugrave" horiz-adv-x="577" unicode="ù" d="M288 675l44 -110q1 -2 1 -7q0 -16 -16 -16h-34q-19 0 -31 16l-71 109q-4 5 -4 12q0 16 18 16h61q24 0 32 -20zM274 -8q-89 0 -141.5 54t-52.5 145v271q0 15 10 25.5t25 10.5h29q16 0 25 -10t9 -26v-270q0 -50 28 -79.5t77 -29.5q38 0 71.5 26t44.5 59v294q0 15 10 25.5 t26 10.5h28q15 0 24.5 -10.5t9.5 -25.5v-426q0 -15 -10.5 -25.5t-24.5 -10.5h-25q-31 0 -35 35l-1 12q-22 -24 -58.5 -39.5t-68.5 -15.5z"/>
<glyph glyph-name="uacute" horiz-adv-x="577" unicode="ú" d="M251 566l53 109q10 20 33 20h58q20 0 20 -17q0 -8 -5 -13l-77 -105q-14 -18 -34 -18h-34q-16 0 -16 15q0 3 2 9zM274 -8q-89 0 -141.5 54t-52.5 145v271q0 15 10 25.5t25 10.5h29q16 0 25 -10t9 -26v-270q0 -50 28 -79.5t77 -29.5q38 0 71.5 26t44.5 59v294q0 15 10 25.5 t26 10.5h28q15 0 24.5 -10.5t9.5 -25.5v-426q0 -15 -10.5 -25.5t-24.5 -10.5h-25q-31 0 -35 35l-1 12q-22 -24 -58.5 -39.5t-68.5 -15.5z"/>
<glyph glyph-name="ucircumflex" horiz-adv-x="577" unicode="û" d="M269 682h44q19 0 34 -18l73 -91q4 -6 4 -12q0 -19 -20 -19h-36q-17 0 -32 17l-46 51l-44 -51q-15 -17 -32 -17h-36q-20 0 -20 19q0 6 4 12l73 91q15 18 34 18zM274 -8q-89 0 -141.5 54t-52.5 145v271q0 15 10 25.5t25 10.5h29q16 0 25 -10t9 -26v-270q0 -50 28 -79.5 t77 -29.5q38 0 71.5 26t44.5 59v294q0 15 10 25.5t26 10.5h28q15 0 24.5 -10.5t9.5 -25.5v-426q0 -15 -10.5 -25.5t-24.5 -10.5h-25q-31 0 -35 35l-1 12q-22 -24 -58.5 -39.5t-68.5 -15.5z"/>
<glyph glyph-name="udieresis" horiz-adv-x="577" unicode="ü" d="M392 679q24 0 43 -18.5t19 -42.5t-19 -42.5t-43 -18.5q-25 0 -43.5 18.5t-18.5 42.5q0 25 18.5 43t43.5 18zM195 679q24 0 43 -18.5t19 -42.5t-19 -42.5t-43 -18.5q-25 0 -43.5 18.5t-18.5 42.5q0 25 18.5 43t43.5 18zM274 -8q-89 0 -141.5 54t-52.5 145v271 q0 15 10 25.5t25 10.5h29q16 0 25 -10t9 -26v-270q0 -50 28 -79.5t77 -29.5q38 0 71.5 26t44.5 59v294q0 15 10 25.5t26 10.5h28q15 0 24.5 -10.5t9.5 -25.5v-426q0 -15 -10.5 -25.5t-24.5 -10.5h-25q-31 0 -35 35l-1 12q-22 -24 -58.5 -39.5t-68.5 -15.5z"/>
<glyph glyph-name="yacute" horiz-adv-x="528" unicode="ý" d="M231 566l53 109q10 20 33 20h58q20 0 20 -17q0 -8 -5 -13l-77 -105q-14 -18 -34 -18h-34q-16 0 -16 15q0 3 2 9zM164 -75l48 116l-183 413q-3 9 -3 16q0 12 9 20t24 8h38q25 0 33 -21l134 -325l137 326q9 20 32 20h37q32 0 32 -28q0 -8 -3 -16l-248 -564 q-34 -77 -116 -77q-30 0 -55 8q-22 7 -22 29q0 8 1 12l6 24q6 24 34 24q7 0 11 -1q10 -3 23 -3q23 0 31 19z"/>
<glyph glyph-name="thorn" horiz-adv-x="568" unicode="þ" d="M178 347v-196q46 -66 114 -66q61 0 94 45.5t33 119.5q0 70 -34.5 116.5t-92.5 46.5q-68 0 -114 -66zM80 -146v837q0 15 10 25.5t25 10.5h27q16 0 26 -10.5t10 -25.5v-230q52 45 115 45q103 0 164 -72.5t61 -184.5q0 -113 -61 -185t-164 -72q-31 0 -63.5 14t-51.5 33v-185 q0 -15 -10.5 -25.5t-26.5 -10.5h-26q-15 0 -25 10.5t-10 25.5z"/>
</font>
</defs>
</svg>
