<?xml version="1.0" encoding="UTF-8" standalone="no"?>
<!DOCTYPE svg  PUBLIC '-//W3C//DTD SVG 1.1//EN'  'http://www.w3.org/Graphics/SVG/1.1/DTD/svg11.dtd'>
<svg xmlns="http://www.w3.org/2000/svg">
<defs>
<font id="MercuryRegular-Regular" horiz-adv-x="512">
<font-face underline-position="-50" font-weight="400" descent="-200" panose-1="2 0 6 3 0 0 0 2 0 4" units-per-em="1000" unicode-range="U+0020-00FE" bbox="-12 -201 962 929" x-height="498" underline-thickness="50" font-family="MercuryRegular" ascent="800" cap-height="727"/>
<missing-glyph horiz-adv-x="1000"/>
<glyph glyph-name=".notdef" horiz-adv-x="1000"/>
<glyph glyph-name=".null" horiz-adv-x="0"/>
<glyph glyph-name="nonmarkingreturn" horiz-adv-x="333"/>
<glyph glyph-name="space" horiz-adv-x="230" unicode=" "/>
<glyph glyph-name="exclam" horiz-adv-x="266" unicode="!" d="M133 125q26 0 44.5 -18.5t18.5 -44.5t-18.5 -44t-44.5 -18t-44.5 18t-18.5 44t18.5 44.5t44.5 18.5zM98 225l-5 478q0 10 7 17t17 7h35q10 0 16.5 -7t6.5 -17l-6 -478q0 -10 -7 -17.5t-17 -7.5h-23q-10 0 -17 7.5t-7 17.5z"/>
<glyph glyph-name="quotedbl" horiz-adv-x="364" unicode='&quot;' d="M276 469h-26q-9 0 -15 5.5t-6 14.5l-7 216q0 22 22 22h38q22 0 22 -22l-7 -216q0 -20 -21 -20zM114 469h-26q-9 0 -15 5.5t-6 14.5l-7 216q0 22 22 22h38q22 0 22 -22l-7 -216q0 -20 -21 -20z"/>
<glyph glyph-name="numbersign" horiz-adv-x="729" unicode="#" d="M205 436h-69q-10 0 -17 6.5t-7 16.5v24q0 10 7 16.5t17 6.5h88l59 206q3 16 23 16q5 0 8 -1l22 -6q17 -4 17 -22q0 -6 -1 -9l-53 -184h209l59 206q3 16 23 16q5 0 8 -1l22 -6q17 -4 17 -22q0 -6 -1 -9l-53 -184h72q10 0 17 -6.5t7 -16.5v-24q0 -10 -7 -16.5t-17 -6.5h-93 l-42 -148h73q10 0 17 -6.5t7 -16.5v-24q0 -10 -7 -16.5t-17 -6.5h-93l-58 -202q-3 -16 -23 -16q-5 0 -8 1l-22 6q-17 4 -17 22q0 6 1 9l52 180h-208l-59 -202q-3 -16 -23 -16q-5 0 -8 1l-22 6q-17 4 -17 22q0 6 1 9l52 180h-67q-10 0 -17 6.5t-7 16.5v24q0 10 6.5 16.5 t16.5 6.5h89zM489 436h-211l-41 -148h209z"/>
<glyph glyph-name="dollar" horiz-adv-x="648" unicode="$" d="M166 546q0 -46 32.5 -73.5t91.5 -47.5v234q-58 -7 -91 -36t-33 -77zM510 197q0 52 -34 80.5t-114 49.5v-256q69 7 108.5 40.5t39.5 85.5zM290 -168v162q-103 13 -166 76t-63 169q0 9 6.5 15t14.5 6h35q24 0 24 -24q0 -67 40 -111.5t109 -52.5v272q-202 65 -202 199 q0 81 56 129.5t146 59.5v90q0 10 6.5 16t16.5 6h28q9 0 15.5 -6t6.5 -16v-89q84 -11 142.5 -62t58.5 -131q0 -9 -6.5 -15.5t-16.5 -6.5h-29q-23 0 -25 21q-4 47 -38 79.5t-86 40.5l-1 -254q116 -27 171 -77t55 -128q0 -83 -61 -138t-165 -68v-162q0 -10 -6.5 -17.5 t-15.5 -7.5h-27q-10 0 -16.5 7.5t-6.5 17.5z"/>
<glyph glyph-name="percent" horiz-adv-x="702" unicode="%" d="M74 50l500 667q7 10 19 10q7 0 14 -5l17 -13q8 -6 8 -17q0 -7 -5 -15l-501 -668q-6 -9 -19 -9q-8 0 -13 4l-16 12q-9 7 -9 19q0 8 5 15zM523 228q-30 0 -46 -24t-16 -62t16 -63t46 -25t45.5 24.5t15.5 63.5q0 38 -16 62t-45 24zM523 -8q-57 0 -93.5 44t-36.5 106 q0 61 36.5 104.5t93.5 43.5q56 0 92.5 -43.5t36.5 -104.5q0 -62 -36.5 -106t-92.5 -44zM179 673q-29 0 -45.5 -24.5t-16.5 -61.5q0 -38 16 -63t46 -25t46 24.5t16 63.5q0 37 -16.5 61.5t-45.5 24.5zM179 437q-56 0 -92.5 44t-36.5 106q0 61 36.5 104.5t92.5 43.5t92.5 -43.5 t36.5 -104.5q0 -62 -36.5 -106t-92.5 -44z"/>
<glyph glyph-name="ampersand" horiz-adv-x="668" unicode="&amp;" d="M239 604q0 -25 21 -65.5t41 -66.5q78 55 78 132q0 29 -20 48t-51 19q-30 0 -49.5 -19.5t-19.5 -47.5zM132 194q0 -62 37 -99t107 -37q98 0 165 92l-162 230q-72 -44 -109.5 -85t-37.5 -101zM526 150l87 -122q4 -5 4 -12q0 -16 -18 -16h-34q-22 0 -33 17l-52 75 q-38 -45 -92.5 -72.5t-116.5 -27.5q-95 0 -153 55.5t-58 144.5q0 74 42 127t140 116q-76 101 -76 166q0 58 38.5 96t102.5 38q66 0 104.5 -37t38.5 -97q0 -52 -32 -101.5t-79 -86.5l142 -199q31 69 31 190q0 10 6.5 16.5t16.5 6.5h26q21 0 23 -23v-16q0 -57 -18.5 -130 t-39.5 -108z"/>
<glyph glyph-name="quotesingle" horiz-adv-x="222" unicode="&apos;" d="M124 469h-26q-9 0 -15 5.5t-6 14.5l-7 216q0 22 22 22h38q22 0 22 -22l-7 -216q0 -20 -21 -20z"/>
<glyph glyph-name="parenleft" horiz-adv-x="377" unicode="(" d="M75 377q0 81 18.5 152.5t52 126t64.5 91.5t70 73q7 7 18 7q10 0 15 -5l17 -15q6 -6 6 -15t-7 -15q-178 -160 -178 -400t178 -400q7 -6 7 -15t-6 -15l-17 -15q-5 -5 -15 -5q-11 0 -18 7q-39 36 -70 73t-64.5 91.5t-52 126t-18.5 152.5z"/>
<glyph glyph-name="parenright" horiz-adv-x="377" unicode=")" d="M302 377q0 -81 -18.5 -152.5t-52 -126t-64.5 -91.5t-70 -73q-7 -7 -18 -7q-10 0 -15 5l-17 15q-6 6 -6 15t7 15q178 160 178 400t-178 400q-7 6 -7 15t6 15l17 15q5 5 15 5q11 0 18 -7q39 -36 70 -73t64.5 -91.5t52 -126t18.5 -152.5z"/>
<glyph glyph-name="asterisk" horiz-adv-x="450" unicode="*" d="M110 455l52 77l-88 32q-19 8 -19 23q0 4 2 10l6 19q6 18 23 18q7 0 10 -1l90 -26l3 94q2 26 26 26h20q24 0 26 -26l3 -94l90 26q8 2 10 2q17 0 23 -19l6 -19q2 -6 2 -10q0 -15 -19 -23l-88 -32l52 -77q6 -9 6 -17q0 -11 -12 -20l-16 -12q-9 -6 -17 -6q-11 0 -20 12 l-56 75l-56 -75q-9 -12 -20 -12q-8 0 -17 6l-16 12q-12 9 -12 20q0 8 6 17z"/>
<glyph glyph-name="plus" d="M437 217h-143v-146q0 -10 -7 -16.5t-18 -6.5h-27q-10 0 -17 6.5t-7 16.5v146h-143q-9 0 -16 7t-7 17v24q0 10 7 16.5t16 6.5h143v145q0 10 7 17t17 7h27q10 0 17.5 -7t7.5 -17v-145h143q9 0 16 -6.5t7 -16.5v-24q0 -10 -7 -17t-16 -7z" unicode="+"/>
<glyph glyph-name="comma" horiz-adv-x="251" unicode="," d="M75 -95l-21 10q-13 7 -13 21q0 8 3 14l72 169q7 18 26 18q5 0 11 -3l28 -13q15 -6 15 -23q0 -6 -3 -12l-82 -170q-6 -14 -23 -14q-7 0 -13 3z"/>
<glyph glyph-name="hyphen" horiz-adv-x="385" unicode="-" d="M302 216h-218q-10 0 -17 7t-7 16v26q0 10 7 16.5t17 6.5h218q10 0 16.5 -6.5t6.5 -16.5v-26q0 -9 -6.5 -16t-16.5 -7z"/>
<glyph glyph-name="period" horiz-adv-x="225" unicode="." d="M50 62q0 26 18 44.5t44 18.5t44.5 -18.5t18.5 -44.5t-18.5 -44t-44.5 -18t-44 18t-18 44z"/>
<glyph glyph-name="slash" horiz-adv-x="532" unicode="/" d="M44 47l385 670q6 11 19 11q5 0 11 -3l22 -13q10 -6 10 -17q0 -6 -3 -12l-386 -673q-6 -10 -17 -10q-9 0 -14 4l-21 13q-9 6 -9 18q0 6 3 12z"/>
<glyph glyph-name="zero" horiz-adv-x="585" unicode="0" d="M458 354q0 134 -43.5 213t-121.5 79q-77 0 -121.5 -79.5t-44.5 -212.5q0 -130 44.5 -209.5t121.5 -79.5q78 0 121.5 78.5t43.5 210.5zM51 354q0 168 66 266t176 98q112 0 176.5 -97.5t64.5 -266.5q0 -167 -64.5 -264.5t-176.5 -97.5q-109 0 -175.5 98t-66.5 264z"/>
<glyph glyph-name="one" horiz-adv-x="525" unicode="1" d="M310 73h140q24 0 24 -23v-26q0 -24 -24 -24h-357q-24 0 -24 24v26q0 23 24 23h139v511q-60 -88 -121 -121q-6 -3 -14 -3q-13 0 -19 9l-18 28q-3 6 -3 13q0 12 8 17q98 60 164 165q10 17 29 17h28q10 0 17 -6.5t7 -17.5v-612z"/>
<glyph glyph-name="two" horiz-adv-x="562" unicode="2" d="M64 85l291 281q65 65 65 134q0 68 -40 108t-105 40q-67 0 -105 -41t-38 -109q0 -10 -7 -17.5t-18 -7.5h-29q-10 0 -16.5 7t-6.5 17q0 98 61 159.5t160 61.5q96 0 157.5 -59.5t61.5 -155.5q0 -97 -86 -183l-261 -247h335q24 0 24 -23v-26q0 -24 -24 -24h-410 q-10 0 -16.5 7t-6.5 17v31q0 14 14 30z"/>
<glyph glyph-name="three" horiz-adv-x="585" unicode="3" d="M109 215q1 -68 50 -108.5t118 -40.5q74 0 121.5 37t47.5 103q0 62 -44.5 97.5t-104.5 35.5h-49q-9 0 -16 7t-7 17v25q0 10 7 16.5t16 6.5h47q49 0 84.5 33.5t35.5 84.5t-39.5 84t-99.5 33q-57 0 -94.5 -30.5t-40.5 -79.5q-2 -24 -26 -24h-29q-10 0 -17 7t-7 16 q2 82 64 132.5t150 50.5q92 0 154 -51t62 -138q0 -50 -27 -88.5t-69 -60.5q47 -12 88 -59.5t41 -112.5q0 -98 -70 -157t-179 -59q-104 0 -175 61.5t-71 161.5q0 10 6.5 17t16.5 7h32q11 0 17.5 -6.5t6.5 -17.5z"/>
<glyph glyph-name="four" horiz-adv-x="575" unicode="4" d="M106 277h239v321zM423 206v-182q0 -10 -6.5 -17t-16.5 -7h-32q-9 0 -16.5 7t-7.5 17v182h-305q-10 0 -17 7.5t-7 17.5v23q0 14 14 33l298 404q13 18 33 18h38q10 0 17.5 -7t7.5 -17v-408h106q10 0 16.5 -6.5t6.5 -15.5v-26q0 -10 -6.5 -16.5t-16.5 -6.5h-106z"/>
<glyph glyph-name="five" horiz-adv-x="585" unicode="5" d="M109 202q11 -60 59.5 -98.5t117.5 -38.5q83 0 135.5 51.5t52.5 133.5t-49 133.5t-134 51.5q-47 0 -91 -24t-68 -60q-14 -20 -29 -20h-28q-12 0 -17.5 7t-3.5 17l67 333q4 21 25 21h345q10 0 17 -6.5t7 -16.5v-27q0 -10 -6.5 -16t-17.5 -6h-311l-43 -204q26 27 69.5 49.5 t98.5 22.5q104 0 175 -71.5t71 -183.5q0 -113 -76 -185.5t-191 -72.5q-91 0 -172.5 63.5t-81.5 147.5q0 9 6 15.5t16 6.5h30q23 0 27 -23z"/>
<glyph glyph-name="six" horiz-adv-x="585" unicode="6" d="M302 66q69 0 115.5 45t46.5 118q0 74 -45 119t-117 45q-69 0 -116 -46t-47 -118q2 -75 47.5 -119t115.5 -44zM515 574q2 -8 2 -11q0 -14 -15 -20l-29 -10q-6 -2 -9 -2q-18 0 -23 15q-37 101 -129 102h-2q-48 0 -84 -27t-55.5 -71t-29.5 -89t-11 -90q24 35 72 64t106 29 q101 0 167 -66t66 -169q0 -102 -67 -169.5t-172 -67.5q-68 0 -126 34t-87 93q-34 71 -37 188v14q0 49 6.5 98t24.5 104.5t46 97.5t76 69.5t109 27.5q147 0 201 -144z"/>
<glyph glyph-name="seven" horiz-adv-x="550" unicode="7" d="M502 623q-35 -31 -67 -77t-66.5 -117.5t-55.5 -177t-21 -227.5q0 -10 -7 -17t-16 -7h-35q-10 0 -17.5 7t-7.5 17q0 206 63 363.5t147 249.5h-358q-22 0 -22 21v28q0 10 6 16.5t16 6.5h433q10 0 16.5 -7t6.5 -17v-32q0 -15 -15 -30z"/>
<glyph glyph-name="eight" horiz-adv-x="585" unicode="8" d="M293 649q-59 0 -98 -33t-39 -86q0 -51 39.5 -83.5t97.5 -32.5q59 0 98.5 32.5t39.5 83.5q0 53 -39.5 86t-98.5 33zM293 351q-69 0 -118 -39.5t-49 -104.5t46.5 -104t120.5 -39q73 0 120 39.5t47 103.5q0 66 -48 105t-119 39zM293 -8q-109 0 -176 59.5t-67 155.5 q0 111 108 178q-78 60 -78 145q0 87 61.5 137.5t151.5 50.5t152 -50.5t62 -137.5q0 -84 -79 -145q50 -27 79 -73.5t29 -104.5q0 -96 -68 -155.5t-175 -59.5z"/>
<glyph glyph-name="nine" horiz-adv-x="585" unicode="9" d="M280 645q-69 0 -115.5 -44.5t-46.5 -117.5q0 -72 45 -117.5t116 -45.5t119.5 45t48.5 115q0 75 -47 120t-120 45zM67 135q-2 6 -2 10q0 15 15 21l27 11q4 2 11 2q17 0 22 -15q35 -102 129 -102q49 0 85 24t56 65.5t30.5 86t12.5 94.5q-72 -84 -179 -84q-98 0 -165 66 t-67 169q0 100 66.5 167.5t171.5 67.5q69 0 127.5 -33t87.5 -93q33 -69 36 -187v-15q0 -49 -6 -97.5t-24 -104.5t-45.5 -98t-76 -70t-110.5 -28q-77 0 -129.5 39t-72.5 104z"/>
<glyph glyph-name="colon" horiz-adv-x="236" unicode=":" d="M118 125q26 0 44.5 -18.5t18.5 -44.5t-18.5 -44t-44.5 -18t-44.5 18t-18.5 44t18.5 44.5t44.5 18.5zM118 441q26 0 44.5 -18.5t18.5 -44.5t-18.5 -44t-44.5 -18t-44.5 18t-18.5 44t18.5 44.5t44.5 18.5z"/>
<glyph glyph-name="semicolon" horiz-adv-x="233" unicode=";" d="M120 441q26 0 44.5 -18.5t18.5 -44.5t-18.5 -44t-44.5 -18t-44.5 18t-18.5 44t18.5 44.5t44.5 18.5zM61 -95l-22 10q-13 7 -13 21q0 8 3 14l72 169q7 18 26 18q5 0 11 -3l28 -13q15 -6 15 -23q0 -6 -3 -12l-82 -170q-6 -14 -22 -14q-7 0 -13 3z"/>
<glyph glyph-name="less" horiz-adv-x="586" unicode="&lt;" d="M50 301v20q0 14 16 25l415 271q6 5 16 5q13 0 20 -10l14 -20q4 -7 4 -14q0 -14 -11 -20l-388 -247l388 -247q11 -6 11 -20q0 -7 -4 -14l-14 -20q-7 -10 -20 -10q-10 0 -16 5l-415 271q-16 11 -16 25z"/>
<glyph glyph-name="equal" d="M76 197h361q9 0 16 -6.5t7 -15.5v-25q0 -10 -6.5 -16.5t-16.5 -6.5h-361q-9 0 -16 6.5t-7 15.5v25q0 10 6.5 16.5t16.5 6.5zM76 375h361q9 0 16 -6.5t7 -15.5v-25q0 -10 -6.5 -16.5t-16.5 -6.5h-361q-9 0 -16 6.5t-7 15.5v25q0 10 6.5 16.5t16.5 6.5z" unicode="="/>
<glyph glyph-name="greater" horiz-adv-x="586" unicode="&gt;" d="M536 321v-20q0 -14 -16 -25l-415 -271q-6 -5 -16 -5q-13 0 -20 10l-14 20q-4 7 -4 14q0 14 11 20l388 247l-388 247q-11 6 -11 20q0 7 4 14l14 20q7 10 20 10q10 0 16 -5l415 -271q16 -11 16 -25z"/>
<glyph glyph-name="question" horiz-adv-x="521" unicode="?" d="M246 125q26 0 44.5 -18.5t18.5 -44.5t-18.5 -44t-44.5 -18t-44.5 18t-18.5 44t18.5 44.5t44.5 18.5zM207 224q0 53 32.5 96t93.5 88q70 51 70 118q0 63 -39.5 100.5t-104.5 37.5q-72 0 -107 -41.5t-35 -106.5q0 -10 -7 -17t-18 -7h-27q-22 0 -24 24v12q0 89 60 148 t158 59q96 0 158.5 -56t62.5 -151q0 -52 -28.5 -96.5t-69.5 -74.5q-55 -41 -76.5 -67.5t-21.5 -65.5q0 -10 -7 -17t-17 -7h-30q-9 0 -16 7t-7 17z"/>
<glyph glyph-name="at" horiz-adv-x="756" unicode="@" d="M548 334v-175q0 -15 10.5 -24t26.5 -9t25.5 9.5t9.5 24.5v273q0 107 -66 169.5t-178 62.5q-108 0 -173.5 -62.5t-65.5 -169.5v-295q0 -190 216 -190h172q23 0 23 -23v-20q0 -10 -6.5 -16.5t-16.5 -6.5h-170q-135 0 -210 64.5t-75 192.5v296q0 128 84.5 210t221.5 82 q140 0 225 -82t85 -210v-269q0 -50 -28 -78t-75 -28q-29 0 -54 13.5t-37 33.5q-38 -46 -100 -46h-37q-69 0 -109.5 34t-40.5 94q0 58 42.5 89t107.5 31h58q51 0 68 25q0 46 -27 75.5t-77 29.5q-74 0 -96 -65q-6 -21 -31 -21h-20q-10 0 -16 6t-6 14q0 5 1 7q15 52 60.5 86.5 t108.5 34.5q78 0 124 -45.5t46 -121.5zM355 127h36q40 0 63.5 21t26.5 47v71q-25 -17 -68 -17l-61 -1q-34 -1 -55 -16t-21 -41q0 -64 79 -64z"/>
<glyph glyph-name="A" horiz-adv-x="688" unicode="A" d="M37 26l263 683q7 18 24 18h39q17 0 24 -18l264 -683q2 -6 2 -8q0 -18 -19 -18h-38q-19 0 -26 19l-73 183h-306l-73 -183q-7 -19 -26 -19h-38q-19 0 -19 18q0 2 2 8zM344 621l-128 -344h255z"/>
<glyph glyph-name="B" horiz-adv-x="695" unicode="B" d="M180 652v-237h203q40 12 65.5 44t25.5 74q0 53 -35.5 86t-90.5 33h-168zM180 74h239q59 0 97 36t38 95q0 61 -39.5 98t-100.5 37h-234v-266zM418 0h-294q-9 0 -16.5 7t-7.5 17v678q0 10 7 17.5t17 7.5h224q92 0 149 -54t57 -141q0 -39 -19.5 -74.5t-48.5 -55.5 q70 -22 109.5 -75t39.5 -122q0 -93 -60 -149t-157 -56z"/>
<glyph glyph-name="C" horiz-adv-x="710" unicode="C" d="M565 197q10 20 30 20h36q18 0 18 -17q0 -6 -2 -10q-89 -198 -281 -198q-135 0 -218 105t-83 266q0 166 85 269t224 103q97 0 169.5 -59t92.5 -149q0 -1 0.5 -3.5t0.5 -3.5q0 -16 -14 -20l-30 -9q-3 -1 -8 -1q-18 0 -23 17q-50 155 -190 155q-105 0 -166.5 -82t-61.5 -217 q0 -131 60.5 -213.5t162.5 -82.5q136 0 198 130z"/>
<glyph glyph-name="D" horiz-adv-x="724" unicode="D" d="M178 74h134q122 0 195.5 80.5t73.5 207.5q0 131 -72.5 211t-197.5 80h-133v-579zM309 0h-186q-10 0 -16.5 7t-6.5 17v678q0 11 6.5 18t16.5 7h184q159 0 255.5 -99.5t96.5 -265.5q0 -160 -98.5 -261t-251.5 -101z"/>
<glyph glyph-name="E" horiz-adv-x="619" unicode="E" d="M523 652h-343v-237h270q10 0 17.5 -7.5t7.5 -17.5v-26q0 -10 -7.5 -17.5t-17.5 -7.5h-270v-264h363q11 0 18.5 -7t7.5 -16v-28q0 -10 -7.5 -17t-18.5 -7h-418q-10 0 -17.5 7t-7.5 17v678q0 10 7 17.5t18 7.5h398q10 0 17 -7.5t7 -17.5v-26q0 -11 -7 -17.5t-17 -6.5z"/>
<glyph glyph-name="F" horiz-adv-x="570" unicode="F" d="M180 339v-315q0 -10 -7.5 -17t-17.5 -7h-30q-10 0 -17.5 7t-7.5 17v678q0 10 7 17.5t18 7.5h409q11 0 18.5 -7t7.5 -18v-26q0 -24 -26 -24h-354v-237h246q10 0 17.5 -7.5t7.5 -17.5v-26q0 -10 -7.5 -17.5t-17.5 -7.5h-246z"/>
<glyph glyph-name="G" horiz-adv-x="719" unicode="G" d="M367 735q97 0 165 -55t95 -145q1 -3 1 -8q0 -14 -14 -19l-28 -10q-8 -2 -10 -2q-14 0 -22 19q-26 68 -69.5 107.5t-119.5 39.5q-103 0 -162.5 -86t-59.5 -215q0 -132 59 -214t164 -82q101 0 153 66t53 170h-162q-11 0 -18 6t-7 16v26q0 10 7 17t17 7h217q10 0 16.5 -6.5 t6.5 -16.5v-34q0 -147 -78.5 -235.5t-207.5 -88.5q-136 0 -217 104t-81 265q0 160 85 267t217 107z"/>
<glyph glyph-name="H" horiz-adv-x="689" unicode="H" d="M100 24v678q0 10 7 17.5t17 7.5h31q10 0 17.5 -7.5t7.5 -17.5v-303h329v303q0 10 7.5 17.5t16.5 7.5h31q10 0 17.5 -7.5t7.5 -17.5v-678q0 -10 -7.5 -17t-17.5 -7h-31q-9 0 -16.5 7t-7.5 17v300h-329v-300q0 -10 -7.5 -17t-17.5 -7h-31q-10 0 -17 7t-7 17z"/>
<glyph glyph-name="I" horiz-adv-x="338" unicode="I" d="M130 23v680q0 10 7 17t17 7h30q10 0 17 -6.5t7 -17.5v-680q0 -10 -7 -16.5t-17 -6.5h-29q-10 0 -17.5 6.5t-7.5 16.5z"/>
<glyph glyph-name="J" horiz-adv-x="528" unicode="J" d="M433 702v-512q0 -93 -57 -145.5t-149 -52.5q-94 0 -148 51t-54 143v27q0 25 26 25h30q24 0 24 -25v-27q0 -57 31.5 -88t90.5 -31q58 0 93 33t35 89v513q0 25 24 25h29q25 0 25 -25z"/>
<glyph glyph-name="K" horiz-adv-x="647" unicode="K" d="M516 22l-261 316l-75 -78v-236q0 -10 -7.5 -17t-17.5 -7h-31q-10 0 -17 7t-7 17v678q0 10 7 17.5t18 7.5h31q10 0 17 -7t7 -18v-337l315 344q18 18 41 18h39q16 0 16 -17q0 -8 -5 -13l-278 -300l304 -368q4 -5 4 -12q0 -17 -16 -17h-45q-22 0 -39 22z"/>
<glyph glyph-name="L" horiz-adv-x="551" unicode="L" d="M517 0h-393q-10 0 -17 7t-7 17v678q0 11 7 18t17 7h31q10 0 17 -7.5t7 -17.5v-627h338q10 0 17 -7t7 -16v-28q0 -10 -7 -17t-17 -7z"/>
<glyph glyph-name="M" horiz-adv-x="881" unicode="M" d="M204 705l237 -474l237 474q11 22 30 22h50q10 0 16.5 -7t6.5 -18v-678q0 -10 -6.5 -17t-16.5 -7h-29q-10 0 -17 7t-7 17l1 579l-215 -434q-8 -19 -28 -19h-46q-19 0 -27 19l-215 434l1 -579q0 -10 -7 -17t-17 -7h-29q-10 0 -16.5 7t-6.5 17v678q0 11 6.5 18t16.5 7h51 q20 0 30 -22z"/>
<glyph glyph-name="N" horiz-adv-x="715" unicode="N" d="M522 20l-344 580v-576q0 -10 -7.5 -17t-17.5 -7h-29q-10 0 -17 7t-7 17v678q0 10 7 17.5t17 7.5h47q17 0 28 -19l338 -568v562q0 10 7.5 17.5t17.5 7.5h28q11 0 18 -7t7 -18v-678q0 -10 -7.5 -17t-17.5 -7h-37q-19 0 -31 20z"/>
<glyph glyph-name="O" horiz-adv-x="722" unicode="O" d="M359 661q-98 0 -156.5 -84.5t-58.5 -213.5q0 -131 57.5 -213.5t157.5 -82.5t159.5 83t59.5 213q0 131 -60 214.5t-159 83.5zM359 -8q-133 0 -213.5 103.5t-80.5 267.5q0 163 81 267.5t213 104.5t215 -105.5t83 -266.5t-83.5 -266t-214.5 -105z"/>
<glyph glyph-name="P" horiz-adv-x="659" unicode="P" d="M384 652h-204v-289h204q73 0 113.5 38t40.5 106q0 67 -41 106t-113 39zM124 727h261q108 0 171 -59.5t63 -159.5t-63.5 -160t-171.5 -60h-204v-264q0 -10 -7 -17t-17 -7h-32q-10 0 -17 7t-7 17v678q0 11 7 18t17 7z"/>
<glyph glyph-name="Q" horiz-adv-x="714" unicode="Q" d="M473 107l-47 48q-7 7 -7 15q0 9 7 16l19 20q6 7 16 7t17 -7l42 -40q51 90 51 196q0 130 -60 214.5t-156 84.5q-94 0 -153 -84.5t-59 -214.5q0 -129 59.5 -212t152.5 -83q66 0 118 40zM573 7l-46 45q-75 -60 -172 -60q-130 0 -210 105t-80 265q0 162 80 267.5t210 105.5 q131 0 212.5 -106t81.5 -267q0 -123 -72 -254l52 -49q7 -7 7 -16q0 -10 -7 -17l-20 -20q-6 -6 -17 -6q-12 0 -19 7z"/>
<glyph glyph-name="R" horiz-adv-x="685" unicode="R" d="M377 652h-197v-273h189q70 0 111 36.5t41 98.5t-39 100t-105 38zM429 311l192 -284q3 -5 3 -10q0 -17 -18 -17h-43q-21 0 -34 20l-187 283h-162v-279q0 -10 -7.5 -17t-17.5 -7h-31q-10 0 -17 7t-7 17v678q0 10 7.5 17.5t17.5 7.5h253q100 0 162.5 -59t62.5 -153 q0 -76 -50 -132.5t-124 -71.5z"/>
<glyph glyph-name="S" horiz-adv-x="669" unicode="S" d="M426 395q178 -41 178 -192q0 -95 -73 -152.5t-190 -57.5q-118 0 -196 63t-80 179q0 10 6.5 17t16.5 7h33q11 0 18 -7t7 -17q2 -80 54.5 -123.5t141.5 -43.5q82 0 132.5 37.5t50.5 97.5q0 94 -122 121q-91 22 -129 33q-72 22 -121 65.5t-49 114.5q0 93 65 145t169 52 q101 0 172 -52.5t71 -142.5q0 -21 -24 -21h-29q-23 0 -26 23q-7 60 -52 91t-114 31q-68 0 -111 -33.5t-43 -86.5q0 -86 121 -116z"/>
<glyph glyph-name="T" horiz-adv-x="584" unicode="T" d="M544 652h-215v-628q0 -10 -6.5 -17t-16.5 -7h-30q-10 0 -17.5 7t-7.5 17v628h-212q-10 0 -17 7t-7 17v26q0 10 7 17.5t17 7.5h505q10 0 17.5 -7t7.5 -17v-27q0 -11 -7.5 -17.5t-17.5 -6.5z"/>
<glyph glyph-name="U" horiz-adv-x="713" unicode="U" d="M357 -8q-118 0 -187.5 66t-69.5 181v463q0 10 7 17.5t17 7.5h31q11 0 18 -7.5t7 -17.5v-465q0 -81 47.5 -126.5t129.5 -45.5t129 45.5t47 126.5v465q0 11 7 18t17 7h31q10 0 17.5 -7.5t7.5 -17.5v-463q0 -114 -70 -180.5t-186 -66.5z"/>
<glyph glyph-name="V" horiz-adv-x="665" unicode="V" d="M130 708l204 -599l201 599q7 19 26 19h40q18 0 18 -18q0 -5 -1 -8l-238 -683q-5 -18 -24 -18h-45q-17 0 -24 18l-240 683q-2 6 -2 8q0 18 19 18h40q19 0 26 -19z"/>
<glyph glyph-name="W" horiz-adv-x="881" unicode="W" d="M558 19l-117 586l-118 -586q-4 -19 -24 -19h-50q-18 0 -23 19l-170 683q0 1 -0.5 3t-0.5 3q0 19 20 19h36q21 0 26 -19l136 -585l119 585q3 19 22 19h54q20 0 23 -19l119 -577l134 577q5 19 26 19h36q20 0 20 -19q0 -1 -0.5 -3t-0.5 -3l-170 -683q-5 -19 -24 -19h-49 q-20 0 -24 19z"/>
<glyph glyph-name="X" horiz-adv-x="681" unicode="X" d="M529 18l-188 288l-189 -288q-11 -18 -31 -18h-43q-17 0 -17 17q0 7 3 11l228 343l-216 328q-3 5 -3 11q0 17 17 17h43q20 0 31 -18l177 -273l178 273q11 18 31 18h43q17 0 17 -17q0 -6 -3 -11l-217 -328l227 -343q3 -4 3 -11q0 -17 -17 -17h-43q-20 0 -31 18z"/>
<glyph glyph-name="Y" horiz-adv-x="612" unicode="Y" d="M106 709l200 -363l200 363q10 18 31 18h38q17 0 17 -17q0 -5 -3 -11l-244 -434v-241q0 -10 -7 -17t-16 -7h-30q-10 0 -17.5 7t-7.5 17v241l-244 434q-3 6 -3 11q0 17 17 17h38q21 0 31 -18z"/>
<glyph glyph-name="Z" horiz-adv-x="611" unicode="Z" d="M68 87l379 565h-352q-25 0 -25 24v26q0 10 7 17.5t18 7.5h420q11 0 18 -7.5t7 -17.5v-31q0 -16 -14 -36l-377 -559h382q10 0 17.5 -6.5t7.5 -16.5v-29q0 -10 -7.5 -17t-17.5 -7h-453q-10 0 -16.5 7t-6.5 17v30q0 14 13 33z"/>
<glyph glyph-name="bracketleft" horiz-adv-x="393" unicode="[" d="M90 -30v786q0 10 7 17t17 7h224q25 0 25 -24v-23q0 -10 -7 -16.5t-18 -6.5h-172v-694h172q11 0 18 -6.5t7 -16.5v-23q0 -24 -25 -24h-224q-10 0 -17 7t-7 17z"/>
<glyph glyph-name="backslash" horiz-adv-x="532" unicode="\" d="M103 717l385 -670q3 -6 3 -12q0 -12 -9 -18l-21 -13q-5 -4 -14 -4q-11 0 -17 10l-386 673q-3 6 -3 12q0 11 10 17l22 13q6 3 11 3q13 0 19 -11z"/>
<glyph glyph-name="bracketright" horiz-adv-x="393" unicode="]" d="M303 756v-786q0 -10 -7 -17t-17 -7h-224q-25 0 -25 24v23q0 10 7 16.5t18 6.5h172v694h-172q-11 0 -18 6.5t-7 16.5v23q0 24 25 24h224q10 0 17 -7t7 -17z"/>
<glyph glyph-name="asciicircum" horiz-adv-x="552" unicode="^" d="M275 649l-157 -165q-8 -8 -17 -8q-8 0 -15 7l-19 19q-6 6 -6 16t7 17l192 193q6 7 16 7q9 0 16 -7l192 -193q7 -7 7 -17t-6 -16l-19 -19q-7 -7 -15 -7q-9 0 -17 8z"/>
<glyph glyph-name="underscore" d="M437 -71h-362q-9 0 -16 7t-7 17v24q0 10 7 16.5t16 6.5h362q9 0 16 -6.5t7 -16.5v-24q0 -10 -7 -17t-16 -7z" unicode="_"/>
<glyph glyph-name="grave" horiz-adv-x="400" unicode="`" d="M201 668l48 -103q2 -4 2 -7q0 -13 -13 -13h-28q-18 0 -31 17l-68 100q-3 5 -3 10q0 13 14 13h50q22 0 29 -17z"/>
<glyph glyph-name="a" horiz-adv-x="520" unicode="a" d="M207 63q6 0 15 -0.5t13 -0.5t13 0.5t14 0.5q42 2 70.5 24.5t35.5 59.5v99q-27 -23 -82 -28q-15 -1 -43.5 -1.5t-37.5 -0.5q-92 -3 -92 -74q0 -35 25.5 -56t68.5 -23zM47 358q18 67 71 107.5t128 40.5q83 0 138.5 -51t55.5 -134v-215q0 -16 9.5 -25.5t25.5 -9.5 q11 0 17.5 -6t6.5 -16v-27q0 -10 -6.5 -16t-17.5 -6h-15q-26 0 -49 14.5t-33 39.5q-42 -54 -118 -59q-5 0 -14 -0.5t-13 -0.5t-13 0.5t-15 0.5q-77 4 -121 43.5t-44 103.5q0 65 46.5 101.5t118.5 38.5h41t39 1q66 3 83 30v9q0 53 -33 86.5t-90 33.5q-49 0 -79.5 -24.5 t-40.5 -61.5q-7 -25 -33 -25h-24q-10 0 -16 6.5t-6 14.5q0 4 1 6z"/>
<glyph glyph-name="b" horiz-adv-x="565" unicode="b" d="M154 355v-197q13 -35 51 -66.5t84 -31.5q70 0 110 52.5t40 136.5q0 82 -41 136.5t-109 54.5q-41 0 -78.5 -25.5t-56.5 -59.5zM153 62l-1 -40q0 -9 -6.5 -15.5t-16.5 -6.5h-27q-9 0 -15.5 7t-6.5 16v680q0 10 6.5 17t16.5 7h27q10 0 17 -6.5t7 -17.5v-258q61 61 137 61 q102 0 162.5 -71.5t60.5 -182.5q0 -114 -61 -187t-163 -73q-41 0 -78 20t-59 50z"/>
<glyph glyph-name="c" horiz-adv-x="530" unicode="c" d="M403 344q-35 94 -128 96h-2q-69 0 -110 -54.5t-41 -136.5q0 -81 41.5 -134.5t110.5 -53.5h3q46 1 82 27t50 69q6 19 27 19h30q19 0 19 -17q0 -1 -0.5 -3t-0.5 -3q-15 -68 -73.5 -114.5t-134.5 -46.5q-103 0 -164.5 72.5t-61.5 184.5q0 110 62 183.5t163 73.5 q75 0 126 -37.5t73 -100.5q1 -3 1 -8q0 -13 -14 -19l-28 -10q-3 -1 -8 -1q-16 0 -22 14z"/>
<glyph glyph-name="d" horiz-adv-x="565" unicode="d" d="M411 158v197q-19 34 -56.5 59.5t-78.5 25.5q-68 0 -109 -54.5t-41 -136.5q0 -84 40 -136.5t110 -52.5q46 0 84 31.5t51 66.5zM413 22l-1 40q-22 -30 -60.5 -50t-79.5 -20q-102 0 -161.5 72.5t-59.5 186.5q0 111 60.5 183t162.5 72q76 0 137 -61v258q0 11 6.5 17.5 t17.5 6.5h27q10 0 16.5 -7t6.5 -17v-680q0 -9 -6.5 -16t-15.5 -7h-27q-10 0 -16.5 6.5t-6.5 15.5z"/>
<glyph glyph-name="e" horiz-adv-x="536" unicode="e" d="M125 301h285q2 61 -36.5 101.5t-100.5 40.5t-101.5 -42.5t-46.5 -99.5zM404 137q8 18 28 18h29q19 0 19 -17q0 -3 -2 -9q-21 -62 -76 -99.5t-125 -37.5q-104 0 -165.5 70.5t-61.5 187.5q0 108 61 182t164 74q91 0 148.5 -61.5t57.5 -147.5v-35q0 -24 -24 -24h-335 q-1 -79 40 -129t116 -50q90 0 126 78z"/>
<glyph glyph-name="f" horiz-adv-x="339" unicode="f" d="M286 657h-39q-23 0 -36 -12.5t-13 -34.5v-112h97q10 0 17 -6.5t7 -16.5v-23q0 -10 -7 -16.5t-17 -6.5h-97v-406q0 -10 -6 -16.5t-16 -6.5h-28q-10 0 -16 6.5t-6 16.5v406h-73q-10 0 -16.5 6.5t-6.5 16.5v23q0 10 6.5 16.5t16.5 6.5h73v112q0 55 32.5 86t87.5 31h40 q11 0 18 -6.5t7 -16.5v-24q0 -10 -7 -16.5t-18 -6.5z"/>
<glyph glyph-name="g" horiz-adv-x="562" unicode="g" d="M410 159v196q-19 34 -56.5 59.5t-78.5 25.5q-68 0 -109 -55t-41 -137t39.5 -135t109.5 -53q48 0 85 30t51 69zM410 444l2 32q1 9 7.5 15.5t15.5 6.5h24q10 0 16.5 -6.5t6.5 -16.5v-473q0 -91 -65.5 -147t-160.5 -56q-81 0 -133 41t-52 101q0 9 6 15t16 6h25q23 0 28 -22 q16 -73 110 -73q66 0 109.5 35t43.5 97v61q-20 -29 -59 -48.5t-76 -19.5q-103 0 -163.5 71t-60.5 186q0 112 61 184.5t163 72.5q35 0 71.5 -17t64.5 -45z"/>
<glyph glyph-name="h" horiz-adv-x="575" unicode="h" d="M155 704v-263q26 27 66 46t85 19q86 0 137.5 -52.5t51.5 -141.5v-289q0 -9 -6.5 -16t-16.5 -7h-28q-9 0 -16 7t-7 16v290q0 60 -34 93.5t-94 33.5q-47 0 -86 -30t-53 -69v-318q0 -9 -7 -16t-17 -7h-28q-9 0 -15.5 7t-6.5 16v681q0 9 6.5 16t15.5 7h30q10 0 16.5 -7 t6.5 -16z"/>
<glyph glyph-name="i" horiz-adv-x="285" unicode="i" d="M80 658q0 27 18 45t44 18t44.5 -18t18.5 -45t-18 -44.5t-45 -17.5q-26 0 -44 17.5t-18 44.5zM105 23v452q0 9 6.5 16t16.5 7h28q10 0 16.5 -7t6.5 -16v-452q0 -9 -6.5 -16t-16.5 -7h-28q-10 0 -16.5 7t-6.5 16z"/>
<glyph glyph-name="j" horiz-adv-x="284" unicode="j" d="M84 658q0 27 18 45t44 18t44.5 -18t18.5 -45t-18 -44.5t-45 -17.5q-26 0 -44 17.5t-18 44.5zM33 -125h28q22 0 35 12.5t13 34.5v553q0 9 6 16t16 7h30q9 0 15.5 -7t6.5 -16v-553q0 -52 -33 -83.5t-86 -31.5h-31q-23 0 -23 21v26q0 9 6.5 15t16.5 6z"/>
<glyph glyph-name="k" horiz-adv-x="518" unicode="k" d="M475 470l-203 -189l211 -255q4 -4 4 -11q0 -15 -16 -15h-36q-20 0 -35 17l-180 216l-67 -63v-147q0 -9 -6.5 -16t-16.5 -7h-29q-8 0 -14.5 7t-6.5 16v680q0 10 6.5 17t14.5 7h29q10 0 16.5 -7t6.5 -17v-441l239 222q16 14 32 14h42q15 0 15 -15q0 -7 -6 -13z"/>
<glyph glyph-name="l" horiz-adv-x="272" unicode="l" d="M229 0h-29q-53 0 -86.5 30t-33.5 84v590q0 10 6.5 16.5t16.5 6.5h28q9 0 15.5 -6.5t6.5 -16.5v-591q0 -21 12 -32t33 -11h31q10 0 16.5 -6t6.5 -15v-27q0 -22 -23 -22z"/>
<glyph glyph-name="m" horiz-adv-x="785" unicode="m" d="M152 477l3 -26q45 55 121 55q40 0 75.5 -19t54.5 -48q25 30 61.5 48.5t72.5 18.5q73 0 119 -45t46 -117v-321q0 -10 -6.5 -16.5t-16.5 -6.5h-29q-8 0 -15 7t-7 16v320q0 44 -26 70t-71 26q-35 0 -66.5 -26.5t-37.5 -66.5v-323q0 -9 -6.5 -16t-16.5 -7h-25q-10 0 -16.5 7 t-6.5 16v320q0 41 -27.5 68.5t-70.5 27.5q-41 0 -70.5 -29t-36.5 -71v-316q0 -9 -6.5 -16t-16.5 -7h-29q-9 0 -15.5 7t-6.5 16v452q0 9 7 16t16 7h26q19 0 23 -21z"/>
<glyph glyph-name="n" horiz-adv-x="575" unicode="n" d="M152 476l2 -34q58 64 150 64q86 0 138.5 -53t52.5 -142v-288q0 -9 -6.5 -16t-16.5 -7h-28q-9 0 -16 7t-7 16v288q0 61 -33 95t-94 34q-47 0 -86.5 -30.5t-53.5 -69.5v-317q0 -9 -7 -16t-17 -7h-28q-9 0 -15.5 7t-6.5 16v452q0 9 6.5 16t15.5 7h27q21 0 23 -22z"/>
<glyph glyph-name="o" horiz-adv-x="553" unicode="o" d="M276 437q-67 0 -110 -53t-43 -134q0 -83 43 -136t110 -53t110.5 52.5t43.5 136.5q0 81 -43.5 134t-110.5 53zM276 -8q-97 0 -161.5 73t-64.5 185q0 110 66 183t160 73t160.5 -73t66.5 -183q0 -112 -64.5 -185t-162.5 -73z"/>
<glyph glyph-name="p" horiz-adv-x="565" unicode="p" d="M154 355v-198q13 -35 51 -66.5t84 -31.5q70 0 110 53t40 137q0 82 -41 136.5t-109 54.5q-41 0 -78.5 -25.5t-56.5 -59.5zM154 58v-228q0 -10 -6 -16.5t-16 -6.5h-30q-9 0 -15.5 7t-6.5 16v645q0 9 7 16t17 7h24q22 0 24 -22l2 -32q62 62 137 62q102 0 162.5 -71.5 t60.5 -182.5q0 -114 -61 -187t-163 -73q-39 0 -77.5 19.5t-58.5 46.5z"/>
<glyph glyph-name="q" horiz-adv-x="565" unicode="q" d="M411 157v198q-19 34 -56.5 59.5t-78.5 25.5q-68 0 -109 -54.5t-41 -136.5q0 -84 40 -137t110 -53q46 0 84 31.5t51 66.5zM411 -170v228q-20 -27 -58.5 -46.5t-77.5 -19.5q-102 0 -163 73t-61 187q0 111 60.5 182.5t162.5 71.5q75 0 137 -62l2 32q2 22 24 22h24 q10 0 17 -7t7 -16v-645q0 -9 -6.5 -16t-15.5 -7h-30q-10 0 -16 6.5t-6 16.5z"/>
<glyph glyph-name="r" horiz-adv-x="355" unicode="r" d="M80 23v452q0 9 6.5 16t16.5 7h26q22 0 24 -23l2 -46q20 27 61 51t82 24h18q24 0 24 -23v-30q0 -9 -7 -15.5t-18 -6.5h-19q-47 0 -84.5 -23t-56.5 -65v-318q0 -23 -23 -23h-30q-10 0 -16 6.5t-6 16.5z"/>
<glyph glyph-name="s" horiz-adv-x="498" unicode="s" d="M126 146q3 -37 36.5 -62.5t86.5 -26.5h3q59 0 91.5 24t32.5 61q0 53 -65 64q-73 13 -128 29q-47 14 -78.5 46t-31.5 83q0 63 50 102.5t128 39.5q69 0 124.5 -39.5t55.5 -95.5q0 -18 -18 -18h-31q-22 0 -27 20q-7 27 -34 48.5t-71 21.5q-49 0 -78 -21.5t-29 -56.5 q0 -24 17 -41t44 -23q30 -8 122 -27q52 -10 87 -43t35 -89q0 -64 -54 -107t-146 -43q-83 0 -140 44.5t-57 112.5q0 20 19 20h32q22 0 24 -23z"/>
<glyph glyph-name="t" horiz-adv-x="348" unicode="t" d="M120 429h-76q-10 0 -17 6.5t-7 15.5v24q0 23 24 23h76v159q0 23 22 23h28q22 0 22 -23v-159h93q10 0 16.5 -6.5t6.5 -16.5v-24q0 -9 -6.5 -15.5t-16.5 -6.5h-93v-316q0 -21 13 -33.5t33 -12.5h46q10 0 16.5 -6t6.5 -15v-24q0 -10 -6.5 -16t-16.5 -6h-47q-54 0 -85.5 30.5 t-31.5 82.5v316z"/>
<glyph glyph-name="u" horiz-adv-x="572" unicode="u" d="M423 22l-2 43q-60 -73 -151 -73q-88 0 -139 52t-51 141v290q0 10 6 16.5t16 6.5h29q10 0 16.5 -6.5t6.5 -16.5v-288q0 -61 32 -94.5t93 -33.5q45 0 84.5 30.5t54.5 68.5v317q0 10 6.5 16.5t16.5 6.5h29q22 0 22 -23v-452q0 -9 -7 -16t-15 -7h-25q-20 0 -22 22z"/>
<glyph glyph-name="v" d="M274 0h-36q-18 0 -26 19l-190 453q-2 6 -2 9q0 17 18 17h35q20 0 27 -17l156 -390l156 390q7 17 27 17h35q18 0 18 -17q0 -3 -2 -9l-190 -453q-8 -19 -26 -19z" unicode="v"/>
<glyph glyph-name="w" horiz-adv-x="718" unicode="w" d="M337 498h44q20 0 25 -20l95 -366l103 366q6 20 28 20h31q9 0 14.5 -5.5t5.5 -13.5q0 -4 -1 -6l-141 -454q-6 -19 -26 -19h-32q-21 0 -27 19l-99 380l-95 -380q-6 -19 -27 -19h-32q-20 0 -26 19l-141 454q-1 2 -1 6q0 8 5.5 13.5t14.5 5.5h31q22 0 28 -20l103 -366l95 366 q5 20 25 20z"/>
<glyph glyph-name="x" horiz-adv-x="486" unicode="x" d="M288 251l164 -225q3 -4 3 -10q0 -16 -16 -16h-38q-19 0 -30 16l-127 177l-129 -177q-11 -16 -30 -16h-38q-16 0 -16 16q0 6 3 10l166 225l-162 221q-3 5 -3 10q0 16 16 16h38q19 0 30 -16l125 -174l124 174q11 16 30 16h38q16 0 16 -16q0 -5 -3 -10z"/>
<glyph glyph-name="y" horiz-adv-x="525" unicode="y" d="M222 30l-195 442q-2 6 -2 8q0 7 5 12.5t13 5.5h35q21 0 29 -18l154 -369l157 369q8 18 29 18h35q17 0 17 -17q0 -3 -2 -9l-263 -597q-33 -73 -113 -73q-26 0 -48 6q-15 3 -15 20q0 5 1 7l6 24q5 16 22 16h5q22 -4 30 -4q35 0 47 28z"/>
<glyph glyph-name="z" horiz-adv-x="478" unicode="z" d="M419 0h-361q-10 0 -16.5 7t-6.5 16v24q0 18 13 33l293 349h-278q-10 0 -17 6.5t-7 15.5v24q0 23 24 23h348q10 0 16.5 -7t6.5 -16v-28q0 -13 -14 -31l-294 -347h293q24 0 24 -23v-24q0 -9 -7 -15.5t-17 -6.5z"/>
<glyph glyph-name="braceleft" horiz-adv-x="435" unicode="{" d="M156 93v174q0 29 -16.5 44.5t-45.5 15.5h-14q-11 0 -18 6.5t-7 17.5v28q0 10 7 17t18 7h14q29 0 45.5 15.5t16.5 43.5v171q0 63 43 104t108 41h83q11 0 18 -6.5t7 -16.5v-24q0 -10 -7 -17t-18 -7h-82q-34 0 -55 -21t-21 -54v-161q0 -45 -27.5 -73t-50.5 -33 q23 -5 50.5 -33t27.5 -73v-165q0 -33 21 -54t55 -21h82q11 0 18 -7t7 -17v-24q0 -10 -7 -16.5t-18 -6.5h-83q-65 0 -108 41t-43 104z"/>
<glyph glyph-name="bar" horiz-adv-x="283" unicode="|" d="M105 -177v880q0 10 6.5 17t16.5 7h27q10 0 16.5 -7t6.5 -17v-880q0 -10 -6.5 -17t-16.5 -7h-27q-10 0 -16.5 7t-6.5 17z"/>
<glyph glyph-name="braceright" horiz-adv-x="435" unicode="}" d="M279 267v-174q0 -63 -43 -104t-108 -41h-83q-11 0 -18 6.5t-7 16.5v24q0 10 7 17t18 7h82q34 0 55 21t21 54v165q0 45 27.5 73t50.5 33q-23 5 -50.5 33t-27.5 73v161q0 33 -21 54t-55 21h-82q-11 0 -18 7t-7 17v24q0 10 7 16.5t18 6.5h83q65 0 108 -41t43 -104v-171 q0 -28 16.5 -43.5t45.5 -15.5h14q11 0 18 -7t7 -17v-28q0 -11 -7 -17.5t-18 -6.5h-14q-29 0 -45.5 -15.5t-16.5 -44.5z"/>
<glyph glyph-name="asciitilde" d="M370 294q3 24 27 24h25q10 0 16.5 -7t6.5 -17q0 -47 -33 -75.5t-83 -28.5q-47 0 -91 33q-35 24 -54 24q-37 0 -42 -37q-3 -24 -27 -24h-25q-10 0 -16.5 7t-6.5 17q0 46 33 75t83 29q47 0 91 -33q35 -25 54 -25q37 0 42 38z" unicode="~"/>
<glyph glyph-name="uni00A0" horiz-adv-x="230" unicode=" "/>
<glyph glyph-name="exclamdown" horiz-adv-x="266" unicode="¡" d="M133 727q26 0 44.5 -18.5t18.5 -44.5t-18.5 -44t-44.5 -18t-44.5 18t-18.5 44t18.5 44.5t44.5 18.5zM93 24l5 478q0 10 7 17.5t17 7.5h23q10 0 17 -7.5t7 -17.5l6 -478q0 -10 -6.5 -17t-16.5 -7h-35q-10 0 -17 7t-7 17z"/>
<glyph glyph-name="cent" horiz-adv-x="536" unicode="¢" d="M237 501v159q0 11 7 18t17 7h27q10 0 17 -7t7 -18v-159q58 -9 103 -45.5t61 -87.5q1 -3 1 -8q0 -13 -14 -19l-26 -10q-3 -1 -8 -1q-16 0 -22 14q-13 32 -38.5 56t-56.5 28v-358q37 7 65 32t37 55q6 19 27 19h31q19 0 19 -17q0 -1 -0.5 -3t-0.5 -3q-14 -58 -62.5 -100.5 t-115.5 -56.5v-164q0 -11 -7 -18t-17 -7h-27q-10 0 -17 7t-7 18v164q-87 18 -137 87t-50 166q0 95 50.5 164.5t136.5 87.5zM124 249q0 -66 30 -115t83 -64v358q-50 -10 -81.5 -61.5t-31.5 -117.5z"/>
<glyph glyph-name="sterling" horiz-adv-x="640" unicode="£" d="M183 318h-58q-10 0 -17 7.5t-7 17.5v25q0 10 7 17.5t17 7.5h58v151q0 89 56 140t146 51q91 0 145 -51t54 -141v-47q0 -26 -24 -26h-31q-10 0 -17 7.5t-7 18.5v47q0 54 -31 86.5t-88 32.5q-58 0 -91 -32t-33 -86v-151h131q10 0 18 -7.5t8 -17.5v-25q0 -10 -8 -17.5 t-18 -7.5h-131v-243h304q10 0 17 -6.5t7 -16.5v-29q0 -10 -7 -16.5t-17 -6.5h-441q-10 0 -17.5 6.5t-7.5 16.5v28q0 10 7.5 17t17.5 7h58v243z"/>
<glyph glyph-name="currency" horiz-adv-x="649" unicode="¤" d="M224 230q41 -41 100 -41t100 41q42 42 42 100q0 60 -42 100q-41 41 -100 41t-100 -41q-42 -40 -42 -100q0 -58 42 -100zM448 507l44 45q7 7 17 7t17 -7l20 -20q7 -7 7 -16t-8 -17l-44 -45q39 -55 39 -123q0 -67 -39 -124l44 -44q7 -6 7 -17q0 -10 -7 -17l-19 -19 q-7 -7 -17 -7t-17 7l-44 44q-56 -38 -122 -38q-68 0 -124 39l-46 -45q-8 -8 -17 -8t-16 7l-20 20q-7 7 -7 17t7 17l46 45q-39 56 -39 123q0 68 39 122l-46 46q-7 7 -7 17t7 17l19 19q8 8 17 8q11 0 17 -8l46 -46q55 40 124 40q67 0 122 -39z"/>
<glyph glyph-name="yen" horiz-adv-x="656" unicode="¥" d="M343 0h-30q-10 0 -17.5 7t-7.5 17v287h-201q-10 0 -17.5 7.5t-7.5 17.5v25q0 10 7.5 17.5t17.5 7.5h152l-175 313q-3 6 -3 12q0 16 18 16h43q18 0 26 -15l180 -346l180 346q8 15 26 15h43q18 0 18 -16q0 -6 -3 -12l-175 -313h152q10 0 17.5 -7.5t7.5 -17.5v-25 q0 -10 -7.5 -17.5t-17.5 -7.5h-201v-287q0 -10 -7.5 -17t-17.5 -7z"/>
<glyph glyph-name="brokenbar" horiz-adv-x="285" unicode="¦" d="M105 -171v344q0 10 7 16.5t17 6.5h28q10 0 16.5 -6.5t6.5 -16.5v-344q0 -9 -6.5 -15.5t-16.5 -6.5h-28q-10 0 -17 6.5t-7 15.5zM105 361v342q0 10 7 17t17 7h28q10 0 16.5 -7t6.5 -17v-342q0 -10 -6.5 -17t-16.5 -7h-28q-10 0 -17 7t-7 17z"/>
<glyph glyph-name="section" horiz-adv-x="613" unicode="§" d="M203 460v1q-18 -19 -29 -43t-11 -40q0 -50 32 -80.5t88 -53.5q87 -35 127 -58q18 19 29 43t11 40q0 50 -32 80.5t-88 53.5q-86 35 -127 57zM461 153h1q65 -65 65 -133q0 -89 -63.5 -143t-152.5 -54q-99 0 -162.5 55t-63.5 150q0 10 7.5 17t17.5 7h30q10 0 17 -7t7 -17 q1 -65 39.5 -100.5t107.5 -35.5q66 0 101.5 35t35.5 94q0 22 -9 40.5t-18.5 30t-35 26t-39 21t-50 21.5t-50.5 21q-37 16 -56.5 26.5t-48 32.5t-42 53t-13.5 72q0 66 65 129q-65 65 -65 133q0 89 63.5 143t152.5 54q99 0 162.5 -55t63.5 -150q0 -10 -7.5 -17t-17.5 -7h-30 q-10 0 -17 7t-7 17q-1 65 -39.5 100.5t-107.5 35.5q-66 0 -101.5 -35t-35.5 -94q0 -22 9 -40.5t18.5 -30t35 -26t39 -21t50 -21.5t50.5 -21q37 -16 56.5 -26.5t48 -32.5t42 -53t13.5 -72q0 -67 -66 -129z"/>
<glyph glyph-name="dieresis" horiz-adv-x="500" unicode="¨" d="M348 671q23 0 39.5 -16t16.5 -39q0 -22 -16.5 -38.5t-39.5 -16.5t-39.5 16t-16.5 39t16.5 39t39.5 16zM150 671q23 0 39.5 -16t16.5 -39q0 -22 -16.5 -38.5t-39.5 -16.5t-39.5 16t-16.5 39t16.5 39t39.5 16z"/>
<glyph glyph-name="copyright" horiz-adv-x="800" unicode="©" d="M400 681q-129 0 -220 -92.5t-91 -224.5q0 -134 91 -226t220 -92t220 92t91 226q0 132 -91 224.5t-220 92.5zM400 -8q-154 0 -262.5 108.5t-108.5 263.5q0 154 108.5 262.5t262.5 108.5t262.5 -108.5t108.5 -262.5q0 -155 -108.5 -263.5t-262.5 -108.5zM517 290 q5 14 23 14h29q14 0 14 -14q0 -60 -60 -101t-124 -41q-83 0 -138.5 64t-55.5 157q0 94 55 157.5t141 63.5q57 0 102.5 -32.5t70.5 -89.5q7 -15 -9 -21l-27 -13q-14 -4 -22 9q-21 41 -47.5 63t-68.5 22q-62 0 -95.5 -44t-33.5 -115q0 -68 35.5 -113t92.5 -45q89 0 118 79z "/>
<glyph glyph-name="ordfeminine" horiz-adv-x="465" unicode="ª" d="M124 458q0 -21 16.5 -34.5t43.5 -15.5q4 0 12.5 -0.5t13.5 -0.5t13.5 0.5t11.5 0.5q37 3 56 23t22 46v53q-22 -17 -69 -21q-20 -1 -59 -1q-28 0 -44.5 -13t-16.5 -37zM186 564l57 1q54 0 70 23v2q0 41 -25 65t-68 24q-36 0 -59 -16.5t-29 -41.5q-4 -19 -27 -19h-20 q-8 0 -13.5 6.5t-5.5 13.5q0 47 50 80t107 33q69 0 111 -41t42 -107v-152q0 -11 7.5 -17t17.5 -6q19 0 19 -19v-24q0 -20 -21 -20h-11q-20 0 -39.5 11.5t-29.5 30.5q-32 -37 -86 -44q-3 0 -11 -0.5t-13 -0.5t-13 0.5t-12 0.5q-50 3 -87 32t-37 79q0 51 33.5 78.5t92.5 27.5z "/>
<glyph glyph-name="guillemotleft" horiz-adv-x="575" unicode="«" d="M522 441l-165 -157l165 -159q8 -8 8 -17q0 -8 -7 -15l-19 -19q-6 -6 -16 -6t-17 7l-193 192q-7 7 -7 16q0 10 7 16l193 192q7 7 17 7t16 -6l19 -19q7 -7 7 -15q0 -9 -8 -17zM297 441l-165 -157l165 -159q8 -8 8 -17q0 -8 -7 -15l-19 -19q-6 -6 -16 -6t-17 7l-193 192 q-7 7 -7 16q0 10 7 16l193 192q7 7 17 7t16 -6l19 -19q7 -7 7 -15q0 -9 -8 -17z"/>
<glyph glyph-name="logicalnot" d="M387 217h-312q-10 0 -16.5 7t-6.5 17v24q0 10 6.5 16.5t16.5 6.5h362q10 0 16.5 -6.5t6.5 -16.5v-204q0 -10 -6.5 -16.5t-16.5 -6.5h-27q-10 0 -16.5 6.5t-6.5 16.5v156z" unicode="¬"/>
<glyph glyph-name="uni00AD" horiz-adv-x="385" unicode="­" d="M302 216h-218q-10 0 -17 7t-7 16v26q0 10 7 16.5t17 6.5h218q10 0 16.5 -6.5t6.5 -16.5v-26q0 -9 -6.5 -16t-16.5 -7z"/>
<glyph glyph-name="registered" horiz-adv-x="800" unicode="®" d="M318 372h108q38 0 61 20t23 55q0 37 -23 58t-61 21h-108v-154zM497 174l-89 140h-90v-138q0 -18 -18 -18h-27q-17 0 -17 18v392q0 16 16 16h155q63 0 105 -38t42 -99q0 -44 -27 -78.5t-72 -47.5l92 -141q5 -8 2 -15t-12 -7h-33q-18 0 -27 16zM400 681q-129 0 -220 -92.5 t-91 -224.5q0 -134 91 -226t220 -92t220 92t91 226q0 132 -91 224.5t-220 92.5zM400 -8q-154 0 -262.5 108.5t-108.5 263.5q0 154 108.5 262.5t262.5 108.5t262.5 -108.5t108.5 -262.5q0 -155 -108.5 -263.5t-262.5 -108.5z"/>
<glyph glyph-name="macron" horiz-adv-x="500" unicode="¯" d="M363 578h-227q-21 0 -21 21v23q0 21 21 21h228q20 0 20 -21v-23q0 -9 -6 -15t-15 -6z"/>
<glyph glyph-name="degree" horiz-adv-x="394" unicode="°" d="M121 604q0 -31 22.5 -53t53.5 -22t53 22t22 53t-22 53t-53 22t-53.5 -22t-22.5 -53zM65 604q0 55 38.5 93t93.5 38t93.5 -38t38.5 -93t-38.5 -93t-93.5 -38t-93.5 38t-38.5 93z"/>
<glyph glyph-name="plusminus" d="M437 318h-143v-146q0 -10 -7 -16.5t-18 -6.5h-27q-10 0 -17 6.5t-7 16.5v146h-143q-9 0 -16 7t-7 17v24q0 10 7 16.5t16 6.5h143v142q0 10 7 17t17 7h27q10 0 17.5 -7t7.5 -17v-142h143q9 0 16 -6.5t7 -16.5v-24q0 -10 -7 -17t-16 -7zM75 71h362q8 0 15 -7t7 -16v-25 q0 -9 -7 -16t-15 -7h-362q-9 0 -16 7t-7 16v25q0 9 7 16t16 7z" unicode="±"/>
<glyph glyph-name="twosuperior" horiz-adv-x="435" unicode="²" d="M159 407h193q18 0 18 -18v-21q0 -18 -18 -18h-262q-7 0 -12.5 5t-5.5 13v24q0 16 15 27l152 112q31 23 44.5 40.5t13.5 45.5q0 27 -20.5 45.5t-57.5 18.5q-36 0 -57.5 -18t-23.5 -45q-2 -19 -22 -19h-25q-7 0 -12.5 5.5t-5.5 12.5q0 50 42 84t104 34q60 0 99.5 -33 t39.5 -85q0 -69 -82 -127z"/>
<glyph glyph-name="threesuperior" horiz-adv-x="435" unicode="³" d="M382 464q0 -55 -46.5 -86t-117.5 -31q-64 0 -113 31t-49 77q0 7 4.5 12t11.5 5h28q20 0 24 -18q6 -21 30.5 -37t64.5 -16q44 0 71.5 17t27.5 46q0 28 -23.5 43t-57.5 15h-19q-18 0 -18 17v24q0 6 5.5 11t12.5 5h19q30 0 48.5 14t18.5 37q0 24 -25.5 39t-63.5 15 q-35 0 -58.5 -15.5t-25.5 -37.5q-2 -19 -21 -19h-26q-19 0 -17 19q5 47 46 75.5t102 28.5q64 0 107 -27.5t43 -77.5q0 -25 -16 -46t-44 -30q34 -7 55.5 -33t21.5 -57z"/>
<glyph glyph-name="acute" horiz-adv-x="400" unicode="´" d="M163 565l60 103q10 17 29 17h50q14 0 14 -14q0 -6 -3 -9l-81 -100q-13 -17 -31 -17h-27q-13 0 -13 13q0 3 2 7z"/>
<glyph glyph-name="paragraph" horiz-adv-x="630" unicode="¶" d="M580 -201h-38q-50 0 -80 27t-30 77v753h-114v-834q0 -10 -7 -16.5t-17 -6.5h-29q-10 0 -16.5 6.5t-6.5 16.5v462q-101 8 -161.5 69t-60.5 153q0 100 63 160.5t173 60.5h229q10 0 16.5 -7t6.5 -17v-800q0 -16 9.5 -25.5t25.5 -9.5h37q10 0 16.5 -6t6.5 -16v-25 q0 -10 -6.5 -16t-16.5 -6z"/>
<glyph glyph-name="periodcentered" horiz-adv-x="226" unicode="·" d="M113 332q25 0 44 -19t19 -44q0 -26 -18.5 -44t-44.5 -18t-44.5 18t-18.5 44q0 25 19 44t44 19z"/>
<glyph glyph-name="cedilla" horiz-adv-x="500" unicode="¸" d="M247 -59v64q0 11 7 18t17 7h20q11 0 17.5 -7t6.5 -18v-65q0 -52 -32 -79.5t-84 -27.5h-16q-24 0 -24 22v23q0 22 24 22h20q20 0 32 11t12 30z"/>
<glyph glyph-name="onesuperior" horiz-adv-x="435" unicode="¹" d="M110 407h96v229q-31 -44 -85 -77q-15 -10 -25 3l-15 21q-3 5 -3 10q0 9 9 15q64 42 114 103q14 16 26 16h26q17 0 17 -16v-304h91q18 0 18 -18v-21q0 -18 -18 -18h-251q-18 0 -18 18v21q0 18 18 18z"/>
<glyph glyph-name="ordmasculine" horiz-adv-x="465" unicode="º" d="M232 408q51 0 81 36t30 99q0 58 -31 95t-80 37q-48 0 -80 -37.5t-32 -94.5q0 -62 31 -98.5t81 -36.5zM232 735q73 0 125.5 -53t52.5 -140q0 -90 -51.5 -143t-126.5 -53q-76 0 -126 52.5t-50 143.5q0 88 51.5 140.5t124.5 52.5z"/>
<glyph glyph-name="guillemotright" horiz-adv-x="575" unicode="»" d="M218 284l-165 157q-8 8 -8 17q0 8 7 15l19 19q6 6 16 6t17 -7l193 -192q7 -6 7 -16q0 -9 -7 -16l-193 -192q-7 -7 -17 -7t-16 6l-19 19q-7 7 -7 15q0 9 8 17zM443 284l-165 157q-8 8 -8 17q0 8 7 15l19 19q6 6 16 6t17 -7l193 -192q7 -6 7 -16q0 -9 -7 -16l-193 -192 q-7 -7 -17 -7t-16 6l-19 19q-7 7 -7 15q0 9 8 17z"/>
<glyph glyph-name="onequarter" horiz-adv-x="800" unicode="¼" d="M64 407h96v229q-31 -44 -85 -77q-15 -10 -25 3l-15 21q-3 5 -3 10q0 9 9 15q64 42 114 103q14 16 26 16h26q17 0 17 -16v-304h91q18 0 18 -18v-21q0 -18 -18 -18h-251q-18 0 -18 18v21q0 18 18 18zM141 48l503 670q7 10 20 10q6 0 13 -5l15 -12q8 -6 8 -16q0 -7 -5 -15 l-503 -670q-7 -10 -19 -10q-7 0 -14 5l-15 12q-8 6 -8 17q0 7 5 14zM610 150v160l-140 -160h140zM408 160l186 215q10 13 27 13h31q8 0 13.5 -5.5t5.5 -12.5v-220h56q19 0 19 -18v-20q0 -18 -19 -18h-56v-76q0 -18 -18 -18h-26q-17 0 -17 18v76h-195q-7 0 -12 5t-5 12v25 q0 12 10 24z"/>
<glyph glyph-name="onehalf" horiz-adv-x="800" unicode="½" d="M58 407h96v229q-31 -44 -85 -77q-15 -10 -25 3l-15 21q-3 5 -3 10q0 9 9 15q64 42 114 103q14 16 26 16h26q17 0 17 -16v-304h91q18 0 18 -18v-21q0 -18 -18 -18h-251q-18 0 -18 18v21q0 18 18 18zM546 57h193q18 0 18 -18v-21q0 -18 -18 -18h-262q-7 0 -12.5 5t-5.5 13 v24q0 16 15 27l151 112q30 22 44 41t14 45t-21.5 44.5t-56.5 18.5q-36 0 -57 -18t-23 -45q-2 -19 -22 -19h-25q-7 0 -12.5 5.5t-5.5 12.5q0 50 42 84.5t104 34.5q60 0 100 -33t40 -85q0 -70 -89 -132zM135 48l503 670q7 10 20 10q6 0 13 -5l15 -12q8 -6 8 -16q0 -7 -5 -15 l-503 -670q-7 -10 -19 -10q-7 0 -14 5l-15 12q-8 6 -8 17q0 7 5 14z"/>
<glyph glyph-name="threequarters" horiz-adv-x="800" unicode="¾" d="M149 48l503 670q7 10 20 10q6 0 13 -5l15 -12q8 -6 8 -16q0 -7 -5 -15l-503 -670q-7 -10 -20 -10q-6 0 -13 5l-15 12q-8 6 -8 16q0 7 5 15zM374 464q0 -55 -46.5 -86t-117.5 -31q-64 0 -113 31t-49 77q0 7 4.5 12t11.5 5h28q20 0 24 -18q6 -21 30.5 -37t64.5 -16 q44 0 71.5 17t27.5 46q0 28 -23.5 43t-57.5 15h-19q-18 0 -18 17v24q0 6 5.5 11t12.5 5h19q30 0 48.5 14t18.5 37q0 24 -25.5 39t-63.5 15q-35 0 -58.5 -15.5t-25.5 -37.5q-2 -19 -21 -19h-26q-19 0 -17 19q5 47 46 75.5t102 28.5q64 0 107 -27.5t43 -77.5q0 -25 -16 -46 t-44 -30q34 -7 55.5 -33t21.5 -57zM623 150v160l-140 -160h140zM421 160l186 215q10 13 27 13h32q8 0 13 -5.5t5 -11.5v-221h56q19 0 19 -18v-20q0 -18 -19 -18h-56v-76q0 -18 -18 -18h-26q-17 0 -17 18v76h-195q-7 0 -12 5t-5 12v25q0 12 10 24z"/>
<glyph glyph-name="questiondown" horiz-adv-x="521" unicode="¿" d="M275 727q26 0 44.5 -18.5t18.5 -44.5t-18.5 -44t-44.5 -18t-44.5 18t-18.5 44t18.5 44.5t44.5 18.5zM314 503q0 -53 -32.5 -96t-93.5 -88q-70 -51 -70 -118q0 -63 39.5 -100.5t104.5 -37.5q72 0 107 41.5t35 106.5q0 10 7 17t18 7h27q22 0 24 -24v-12q0 -89 -60 -148 t-158 -59q-96 0 -158.5 56t-62.5 151q0 52 28.5 96.5t69.5 74.5q55 41 76.5 67.5t21.5 65.5q0 10 7 17t17 7h30q9 0 16 -7t7 -17z"/>
<glyph glyph-name="Agrave" horiz-adv-x="688" unicode="À" d="M328 883l42 -98q3 -7 -0.5 -14t-11.5 -7h-28q-18 0 -28 16l-60 97q-3 5 -3 10q0 14 15 14h46q20 0 28 -18zM37 26l263 683q7 18 24 18h39q17 0 24 -18l264 -683q2 -6 2 -8q0 -18 -19 -18h-38q-19 0 -26 19l-73 183h-306l-73 -183q-7 -19 -26 -19h-38q-19 0 -19 18 q0 2 2 8zM344 621l-128 -344h255z"/>
<glyph glyph-name="Aacute" horiz-adv-x="688" unicode="Á" d="M317 785l52 99q9 17 27 17h47q14 0 14 -14q0 -5 -3 -10l-71 -99q-11 -14 -27 -14h-27q-8 0 -12 7t0 14zM37 26l263 683q7 18 24 18h39q17 0 24 -18l264 -683q2 -6 2 -8q0 -18 -19 -18h-38q-19 0 -26 19l-73 183h-306l-73 -183q-7 -19 -26 -19h-38q-19 0 -19 18q0 2 2 8z M344 621l-128 -344h255z"/>
<glyph glyph-name="Acircumflex" horiz-adv-x="688" unicode="Â" d="M325 893h36q17 0 30 -15l77 -93q4 -4 4 -11q0 -15 -16 -15h-29q-18 0 -31 15l-52 61l-52 -61q-13 -15 -31 -15h-29q-16 0 -16 15q0 7 4 11l76 92q14 16 29 16zM37 26l263 683q7 18 24 18h39q17 0 24 -18l264 -683q2 -6 2 -8q0 -18 -19 -18h-38q-19 0 -26 19l-73 183h-306 l-73 -183q-7 -19 -26 -19h-38q-19 0 -19 18q0 2 2 8zM344 621l-128 -344h255z"/>
<glyph glyph-name="Atilde" horiz-adv-x="688" unicode="Ã" d="M401 834q26 0 31 26q3 17 21 17h18q20 0 18 -20q-3 -39 -26.5 -62t-62.5 -23q-27 0 -63 22.5t-49 22.5q-28 0 -31 -26q-2 -17 -21 -17h-18q-8 0 -13.5 5.5t-4.5 14.5q3 39 26 62t62 23q24 0 60.5 -22.5t52.5 -22.5zM37 26l263 683q7 18 24 18h39q17 0 24 -18l264 -683 q2 -6 2 -8q0 -18 -19 -18h-38q-19 0 -26 19l-73 183h-306l-73 -183q-7 -19 -26 -19h-38q-19 0 -19 18q0 2 2 8zM344 621l-128 -344h255z"/>
<glyph glyph-name="Adieresis" horiz-adv-x="688" unicode="Ä" d="M443 884q23 0 39.5 -16t16.5 -39q0 -22 -16.5 -38.5t-39.5 -16.5t-39.5 16t-16.5 39t16.5 39t39.5 16zM246 884q23 0 39.5 -16t16.5 -39q0 -22 -16.5 -38.5t-39.5 -16.5t-39.5 16t-16.5 39t16.5 39t39.5 16zM37 26l263 683q7 18 24 18h39q17 0 24 -18l264 -683q2 -6 2 -8 q0 -18 -19 -18h-38q-19 0 -26 19l-73 183h-306l-73 -183q-7 -19 -26 -19h-38q-19 0 -19 18q0 2 2 8zM344 621l-128 -344h255z"/>
<glyph glyph-name="Aring" horiz-adv-x="688" unicode="Å" d="M344 799q17 0 29 12t12 30q0 17 -12 29.5t-29 12.5t-29 -12.5t-12 -29.5q0 -18 12 -30t29 -12zM344 929q38 0 63 -25.5t25 -62.5t-25 -62.5t-63 -25.5t-63 25.5t-25 62.5t25 62.5t63 25.5zM37 26l263 683q7 18 24 18h39q17 0 24 -18l264 -683q2 -6 2 -8q0 -18 -19 -18 h-38q-19 0 -26 19l-73 183h-306l-73 -183q-7 -19 -26 -19h-38q-19 0 -19 18q0 2 2 8zM344 621l-128 -344h255z"/>
<glyph glyph-name="AE" horiz-adv-x="1012" unicode="Æ" d="M285 283h230v371zM844 339h-249v-264h341q12 0 19 -7t7 -16v-28q0 -10 -7 -17t-19 -7h-396q-10 0 -17.5 7t-7.5 17v185h-273l-116 -185q-15 -24 -42 -24h-38q-7 0 -11.5 5t-4.5 12q0 5 3 9l425 679q14 22 42 22h416q11 0 18.5 -7t7.5 -17v-27q0 -11 -7.5 -17.5 t-18.5 -6.5h-321v-237h249q11 0 18.5 -7t7.5 -17v-28q0 -11 -7.5 -17.5t-18.5 -6.5z"/>
<glyph glyph-name="Ccedilla" horiz-adv-x="710" unicode="Ç" d="M337 -59v52q-123 12 -197.5 115t-74.5 255q0 166 85 269t224 103q97 0 169.5 -59t92.5 -149q0 -1 0.5 -3.5t0.5 -3.5q0 -16 -14 -20l-30 -9q-3 -1 -8 -1q-18 0 -23 17q-50 155 -190 155q-105 0 -166.5 -82t-61.5 -217q0 -131 60.5 -213.5t162.5 -82.5q136 0 198 130 q10 20 30 20h36q18 0 18 -17q0 -6 -2 -10q-80 -178 -242 -196v-54q0 -52 -32 -79.5t-84 -27.5h-16q-24 0 -24 22v23q0 22 24 22h20q20 0 32 11t12 30z"/>
<glyph glyph-name="Egrave" horiz-adv-x="619" unicode="È" d="M323 883l42 -98q3 -7 -0.5 -14t-11.5 -7h-28q-18 0 -28 16l-60 97q-3 5 -3 10q0 14 15 14h46q21 0 28 -18zM523 652h-343v-237h270q10 0 17.5 -7.5t7.5 -17.5v-26q0 -10 -7.5 -17.5t-17.5 -7.5h-270v-264h363q11 0 18.5 -7t7.5 -16v-28q0 -10 -7.5 -17t-18.5 -7h-418 q-10 0 -17.5 7t-7.5 17v678q0 10 7 17.5t18 7.5h398q10 0 17 -7.5t7 -17.5v-26q0 -11 -7 -17.5t-17 -6.5z"/>
<glyph glyph-name="Eacute" horiz-adv-x="619" unicode="É" d="M287 785l52 99q9 17 27 17h47q14 0 14 -14q0 -5 -3 -10l-71 -99q-11 -14 -27 -14h-27q-8 0 -12 7t0 14zM523 652h-343v-237h270q10 0 17.5 -7.5t7.5 -17.5v-26q0 -10 -7.5 -17.5t-17.5 -7.5h-270v-264h363q11 0 18.5 -7t7.5 -16v-28q0 -10 -7.5 -17t-18.5 -7h-418 q-10 0 -17.5 7t-7.5 17v678q0 10 7 17.5t18 7.5h398q10 0 17 -7.5t7 -17.5v-26q0 -11 -7 -17.5t-17 -6.5z"/>
<glyph glyph-name="Ecircumflex" horiz-adv-x="619" unicode="Ê" d="M315 893h36q17 0 30 -15l77 -93q4 -4 4 -11q0 -15 -16 -15h-29q-18 0 -31 15l-52 61l-52 -61q-13 -15 -31 -15h-29q-16 0 -16 15q0 7 4 11l76 92q14 16 29 16zM523 652h-343v-237h270q10 0 17.5 -7.5t7.5 -17.5v-26q0 -10 -7.5 -17.5t-17.5 -7.5h-270v-264h363 q11 0 18.5 -7t7.5 -16v-28q0 -10 -7.5 -17t-18.5 -7h-418q-10 0 -17.5 7t-7.5 17v678q0 10 7 17.5t18 7.5h398q10 0 17 -7.5t7 -17.5v-26q0 -11 -7 -17.5t-17 -6.5z"/>
<glyph glyph-name="Edieresis" horiz-adv-x="619" unicode="Ë" d="M423 884q23 0 39.5 -16t16.5 -39q0 -22 -16.5 -38.5t-39.5 -16.5t-39.5 16t-16.5 39t16.5 39t39.5 16zM226 884q23 0 39.5 -16t16.5 -39q0 -22 -16.5 -38.5t-39.5 -16.5t-39.5 16t-16.5 39t16.5 39t39.5 16zM523 652h-343v-237h270q10 0 17.5 -7.5t7.5 -17.5v-26 q0 -10 -7.5 -17.5t-17.5 -7.5h-270v-264h363q11 0 18.5 -7t7.5 -16v-28q0 -10 -7.5 -17t-18.5 -7h-418q-10 0 -17.5 7t-7.5 17v678q0 10 7 17.5t18 7.5h398q10 0 17 -7.5t7 -17.5v-26q0 -11 -7 -17.5t-17 -6.5z"/>
<glyph glyph-name="Igrave" horiz-adv-x="338" unicode="Ì" d="M158 883l42 -98q3 -7 -0.5 -14t-11.5 -7h-28q-18 0 -28 16l-60 97q-3 5 -3 10q0 14 15 14h46q20 0 28 -18zM130 23v680q0 10 7 17t17 7h30q10 0 17 -6.5t7 -17.5v-680q0 -10 -7 -16.5t-17 -6.5h-29q-10 0 -17.5 6.5t-7.5 16.5z"/>
<glyph glyph-name="Iacute" horiz-adv-x="338" unicode="Í" d="M142 785l52 99q8 17 27 17h47q14 0 14 -14q0 -5 -3 -10l-71 -99q-11 -14 -27 -14h-27q-8 0 -12 7t0 14zM130 23v680q0 10 7 17t17 7h30q10 0 17 -6.5t7 -17.5v-680q0 -10 -7 -16.5t-17 -6.5h-29q-10 0 -17.5 6.5t-7.5 16.5z"/>
<glyph glyph-name="Icircumflex" horiz-adv-x="338" unicode="Î" d="M150 893h36q17 0 30 -15l77 -93q4 -4 4 -11q0 -15 -16 -15h-29q-18 0 -31 15l-52 61l-52 -61q-13 -15 -31 -15h-29q-16 0 -16 15q0 7 4 11l76 92q14 16 29 16zM130 23v680q0 10 7 17t17 7h30q10 0 17 -6.5t7 -17.5v-680q0 -10 -7 -16.5t-17 -6.5h-29q-10 0 -17.5 6.5 t-7.5 16.5z"/>
<glyph glyph-name="Idieresis" horiz-adv-x="338" unicode="Ï" d="M268 884q23 0 39.5 -16t16.5 -39q0 -22 -16.5 -38.5t-39.5 -16.5t-39.5 16t-16.5 39t16.5 39t39.5 16zM71 884q23 0 39.5 -16t16.5 -39q0 -22 -16.5 -38.5t-39.5 -16.5t-39.5 16t-16.5 39t16.5 39t39.5 16zM130 23v680q0 10 7 17t17 7h30q10 0 17 -6.5t7 -17.5v-680 q0 -10 -7 -16.5t-17 -6.5h-29q-10 0 -17.5 6.5t-7.5 16.5z"/>
<glyph glyph-name="Eth" horiz-adv-x="743" unicode="Ð" d="M197 74h134q122 0 195.5 80.5t73.5 207.5q0 131 -72.5 211t-197.5 80h-133v-232h159q11 0 18.5 -7t7.5 -18v-25q0 -11 -7.5 -18t-18.5 -7h-159v-272zM328 0h-186q-10 0 -16.5 7t-6.5 17v322h-58q-26 0 -26 24v26q0 11 7 18t19 7h58v281q0 11 6.5 18t16.5 7h184 q159 0 255.5 -99.5t96.5 -265.5q0 -160 -98.5 -261t-251.5 -101z"/>
<glyph glyph-name="Ntilde" horiz-adv-x="715" unicode="Ñ" d="M419 834q26 0 31 26q3 17 21 17h18q20 0 18 -20q-3 -39 -26.5 -62t-62.5 -23q-27 0 -63 22.5t-49 22.5q-28 0 -31 -26q-2 -17 -21 -17h-18q-8 0 -13.5 5.5t-4.5 14.5q3 39 26 62t62 23q24 0 60.5 -22.5t52.5 -22.5zM522 20l-344 580v-576q0 -10 -7.5 -17t-17.5 -7h-29 q-10 0 -17 7t-7 17v678q0 10 7 17.5t17 7.5h47q17 0 28 -19l338 -568v562q0 10 7.5 17.5t17.5 7.5h28q11 0 18 -7t7 -18v-678q0 -10 -7.5 -17t-17.5 -7h-37q-19 0 -31 20z"/>
<glyph glyph-name="Ograve" horiz-adv-x="722" unicode="Ò" d="M353 883l42 -98q3 -7 -0.5 -14t-11.5 -7h-28q-18 0 -28 16l-60 97q-3 5 -3 10q0 14 15 14h46q21 0 28 -18zM359 661q-98 0 -156.5 -84.5t-58.5 -213.5q0 -131 57.5 -213.5t157.5 -82.5t159.5 83t59.5 213q0 131 -60 214.5t-159 83.5zM359 -8q-133 0 -213.5 103.5 t-80.5 267.5q0 163 81 267.5t213 104.5t215 -105.5t83 -266.5t-83.5 -266t-214.5 -105z"/>
<glyph glyph-name="Oacute" horiz-adv-x="722" unicode="Ó" d="M332 785l52 99q8 17 27 17h47q14 0 14 -14q0 -5 -3 -10l-71 -99q-11 -14 -27 -14h-27q-8 0 -12 7t0 14zM359 661q-98 0 -156.5 -84.5t-58.5 -213.5q0 -131 57.5 -213.5t157.5 -82.5t159.5 83t59.5 213q0 131 -60 214.5t-159 83.5zM359 -8q-133 0 -213.5 103.5 t-80.5 267.5q0 163 81 267.5t213 104.5t215 -105.5t83 -266.5t-83.5 -266t-214.5 -105z"/>
<glyph glyph-name="Ocircumflex" horiz-adv-x="722" unicode="Ô" d="M340 893h36q17 0 30 -15l77 -93q4 -4 4 -11q0 -15 -16 -15h-29q-18 0 -31 15l-52 61l-52 -61q-13 -15 -31 -15h-29q-16 0 -16 15q0 7 4 11l76 92q14 16 29 16zM359 661q-98 0 -156.5 -84.5t-58.5 -213.5q0 -131 57.5 -213.5t157.5 -82.5t159.5 83t59.5 213 q0 131 -60 214.5t-159 83.5zM359 -8q-133 0 -213.5 103.5t-80.5 267.5q0 163 81 267.5t213 104.5t215 -105.5t83 -266.5t-83.5 -266t-214.5 -105z"/>
<glyph glyph-name="Otilde" horiz-adv-x="722" unicode="Õ" d="M419 834q26 0 31 26q3 17 21 17h18q20 0 18 -20q-3 -39 -26.5 -62t-62.5 -23q-27 0 -63 22.5t-49 22.5q-28 0 -31 -26q-2 -17 -21 -17h-18q-8 0 -13.5 5.5t-4.5 14.5q3 39 26 62t62 23q24 0 60.5 -22.5t52.5 -22.5zM359 661q-98 0 -156.5 -84.5t-58.5 -213.5 q0 -131 57.5 -213.5t157.5 -82.5t159.5 83t59.5 213q0 131 -60 214.5t-159 83.5zM359 -8q-133 0 -213.5 103.5t-80.5 267.5q0 163 81 267.5t213 104.5t215 -105.5t83 -266.5t-83.5 -266t-214.5 -105z"/>
<glyph glyph-name="Odieresis" horiz-adv-x="722" unicode="Ö" d="M458 884q23 0 39.5 -16t16.5 -39q0 -22 -16.5 -38.5t-39.5 -16.5t-39.5 16t-16.5 39t16.5 39t39.5 16zM261 884q23 0 39.5 -16t16.5 -39q0 -22 -16.5 -38.5t-39.5 -16.5t-39.5 16t-16.5 39t16.5 39t39.5 16zM359 661q-98 0 -156.5 -84.5t-58.5 -213.5q0 -131 57.5 -213.5 t157.5 -82.5t159.5 83t59.5 213q0 131 -60 214.5t-159 83.5zM359 -8q-133 0 -213.5 103.5t-80.5 267.5q0 163 81 267.5t213 104.5t215 -105.5t83 -266.5t-83.5 -266t-214.5 -105z"/>
<glyph glyph-name="multiply" d="M51 96l155 155l-155 155q-8 8 -8 18q0 8 6 14l19 19q7 7 17 7t18 -8l154 -154l153 154q7 8 18 8q10 0 17 -7l19 -19q6 -6 6 -14q0 -10 -8 -18l-155 -155l155 -155q8 -8 8 -18q0 -8 -6 -14l-19 -19q-7 -7 -17 -7q-11 0 -18 8l-153 154l-154 -154q-8 -8 -18 -8t-17 7 l-19 19q-6 6 -6 14q0 10 8 18z" unicode="×"/>
<glyph glyph-name="Oslash" horiz-adv-x="746" unicode="Ø" d="M378 661q-98 0 -156.5 -84.5t-58.5 -213.5q0 -98 31 -167l325 403q-59 62 -141 62zM597 363q0 100 -38 178l-328 -406q57 -68 147 -68q100 0 159.5 83t59.5 213zM76 51l65 79q-57 96 -57 233q0 163 81 267.5t213 104.5q110 0 189 -77l50 63q6 7 17 7q8 0 12 -4l21 -17 q8 -6 8 -15q0 -6 -5 -13l-60 -74q66 -101 66 -242q0 -161 -83.5 -266t-214.5 -105q-118 0 -196 83l-55 -68q-6 -8 -16 -8q-6 0 -13 5l-20 17q-7 6 -7 16q0 9 5 14z"/>
<glyph glyph-name="Ugrave" horiz-adv-x="713" unicode="Ù" d="M353 883l42 -98q3 -7 -0.5 -14t-11.5 -7h-28q-18 0 -28 16l-60 97q-3 5 -3 10q0 14 15 14h46q21 0 28 -18zM357 -8q-118 0 -187.5 66t-69.5 181v463q0 10 7 17.5t17 7.5h31q11 0 18 -7.5t7 -17.5v-465q0 -81 47.5 -126.5t129.5 -45.5t129 45.5t47 126.5v465q0 11 7 18 t17 7h31q10 0 17.5 -7.5t7.5 -17.5v-463q0 -114 -70 -180.5t-186 -66.5z"/>
<glyph glyph-name="Uacute" horiz-adv-x="713" unicode="Ú" d="M327 785l52 99q9 17 27 17h47q14 0 14 -14q0 -5 -3 -10l-71 -99q-11 -14 -27 -14h-27q-8 0 -12 7t0 14zM357 -8q-118 0 -187.5 66t-69.5 181v463q0 10 7 17.5t17 7.5h31q11 0 18 -7.5t7 -17.5v-465q0 -81 47.5 -126.5t129.5 -45.5t129 45.5t47 126.5v465q0 11 7 18t17 7 h31q10 0 17.5 -7.5t7.5 -17.5v-463q0 -114 -70 -180.5t-186 -66.5z"/>
<glyph glyph-name="Ucircumflex" horiz-adv-x="713" unicode="Û" d="M340 893h36q17 0 30 -15l77 -93q4 -4 4 -11q0 -15 -16 -15h-29q-18 0 -31 15l-52 61l-52 -61q-13 -15 -31 -15h-29q-16 0 -16 15q0 7 4 11l76 92q14 16 29 16zM357 -8q-118 0 -187.5 66t-69.5 181v463q0 10 7 17.5t17 7.5h31q11 0 18 -7.5t7 -17.5v-465 q0 -81 47.5 -126.5t129.5 -45.5t129 45.5t47 126.5v465q0 11 7 18t17 7h31q10 0 17.5 -7.5t7.5 -17.5v-463q0 -114 -70 -180.5t-186 -66.5z"/>
<glyph glyph-name="Udieresis" horiz-adv-x="713" unicode="Ü" d="M458 884q23 0 39.5 -16t16.5 -39q0 -22 -16.5 -38.5t-39.5 -16.5t-39.5 16t-16.5 39t16.5 39t39.5 16zM261 884q23 0 39.5 -16t16.5 -39q0 -22 -16.5 -38.5t-39.5 -16.5t-39.5 16t-16.5 39t16.5 39t39.5 16zM357 -8q-118 0 -187.5 66t-69.5 181v463q0 10 7 17.5t17 7.5 h31q11 0 18 -7.5t7 -17.5v-465q0 -81 47.5 -126.5t129.5 -45.5t129 45.5t47 126.5v465q0 11 7 18t17 7h31q10 0 17.5 -7.5t7.5 -17.5v-463q0 -114 -70 -180.5t-186 -66.5z"/>
<glyph glyph-name="Yacute" horiz-adv-x="612" unicode="Ý" d="M277 785l52 99q9 17 27 17h47q14 0 14 -14q0 -5 -3 -10l-71 -99q-11 -14 -27 -14h-27q-8 0 -12 7t0 14zM106 709l200 -363l200 363q10 18 31 18h38q17 0 17 -17q0 -5 -3 -11l-244 -434v-241q0 -10 -7 -17t-16 -7h-30q-10 0 -17.5 7t-7.5 17v241l-244 434q-3 6 -3 11 q0 17 17 17h38q21 0 31 -18z"/>
<glyph glyph-name="Thorn" horiz-adv-x="659" unicode="Þ" d="M384 526h-204v-289h204q74 0 114 37.5t40 106.5q0 68 -40.5 106.5t-113.5 38.5zM180 600h205q108 0 171 -59.5t63 -159.5t-63 -159.5t-171 -59.5h-205v-138q0 -10 -7 -17t-17 -7h-32q-10 0 -17 7t-7 17v678q0 10 7 17.5t18 7.5h31q10 0 17 -7t7 -18v-102z"/>
<glyph glyph-name="germandbls" horiz-adv-x="595" unicode="ß" d="M80 23v524q0 89 59 138.5t151 49.5q93 0 152 -51t59 -136q0 -55 -31.5 -95t-64.5 -54q50 -18 90 -65.5t40 -117.5q0 -100 -70 -158t-176 -58h-32q-10 0 -17 6.5t-7 16.5v26q0 10 7 16t17 6h32q76 0 122.5 36.5t46.5 108.5q0 68 -47 106t-113 38h-40q-10 0 -17 6t-7 16v26 q0 10 7 16.5t17 6.5h33q61 0 98 31.5t37 84.5q0 57 -37.5 88t-98.5 31t-98.5 -32t-37.5 -89v-522q0 -10 -6.5 -16.5t-16.5 -6.5h-29q-9 0 -15.5 6.5t-6.5 16.5z"/>
<glyph glyph-name="agrave" horiz-adv-x="535" unicode="à" d="M246 668l48 -103q3 -7 0 -13.5t-11 -6.5h-28q-18 0 -31 17l-68 100q-3 5 -3 10q0 13 14 13h50q22 0 29 -17zM222 63q6 0 15 -0.5t13 -0.5t13 0.5t14 0.5q42 2 70.5 24.5t35.5 59.5v99q-27 -23 -82 -28q-15 -1 -43.5 -1.5t-37.5 -0.5q-92 -3 -92 -74q0 -35 25.5 -56 t68.5 -23zM62 358q18 67 71 107.5t128 40.5q83 0 138.5 -51t55.5 -134v-215q0 -16 9.5 -25.5t25.5 -9.5q11 0 17.5 -6t6.5 -16v-27q0 -10 -6.5 -16t-17.5 -6h-15q-26 0 -49 14.5t-33 39.5q-42 -54 -118 -59q-5 0 -14 -0.5t-13 -0.5t-13 0.5t-15 0.5q-77 4 -121 43.5 t-44 103.5q0 65 46.5 101.5t118.5 38.5h41.5t38.5 1q66 3 83 30v9q0 53 -33 86.5t-90 33.5q-49 0 -79.5 -24.5t-40.5 -61.5q-7 -25 -33 -25h-24q-9 0 -15.5 6.5t-6.5 14.5q0 4 1 6z"/>
<glyph glyph-name="aacute" horiz-adv-x="535" unicode="á" d="M223 565l60 103q10 17 29 17h50q14 0 14 -14q0 -6 -3 -9l-81 -100q-13 -17 -31 -17h-27q-8 0 -11 7t0 13zM222 63q6 0 15 -0.5t13 -0.5t13 0.5t14 0.5q42 2 70.5 24.5t35.5 59.5v99q-27 -23 -82 -28q-15 -1 -43.5 -1.5t-37.5 -0.5q-92 -3 -92 -74q0 -35 25.5 -56 t68.5 -23zM62 358q18 67 71 107.5t128 40.5q83 0 138.5 -51t55.5 -134v-215q0 -16 9.5 -25.5t25.5 -9.5q11 0 17.5 -6t6.5 -16v-27q0 -10 -6.5 -16t-17.5 -6h-15q-26 0 -49 14.5t-33 39.5q-42 -54 -118 -59q-5 0 -14 -0.5t-13 -0.5t-13 0.5t-15 0.5q-77 4 -121 43.5 t-44 103.5q0 65 46.5 101.5t118.5 38.5h41.5t38.5 1q66 3 83 30v9q0 53 -33 86.5t-90 33.5q-49 0 -79.5 -24.5t-40.5 -61.5q-7 -25 -33 -25h-24q-9 0 -15.5 6.5t-6.5 14.5q0 4 1 6z"/>
<glyph glyph-name="acircumflex" horiz-adv-x="535" unicode="â" d="M244 682h32q16 0 28 -14l80 -100q3 -4 3 -9q0 -14 -14 -14h-29q-15 0 -26 13l-58 69l-58 -69q-11 -13 -26 -13h-29q-14 0 -14 14q0 5 3 9l80 100q12 14 28 14zM222 63q6 0 15 -0.5t13 -0.5t13 0.5t14 0.5q42 2 70.5 24.5t35.5 59.5v99q-27 -23 -82 -28q-15 -1 -43.5 -1.5 t-37.5 -0.5q-92 -3 -92 -74q0 -35 25.5 -56t68.5 -23zM62 358q18 67 71 107.5t128 40.5q83 0 138.5 -51t55.5 -134v-215q0 -16 9.5 -25.5t25.5 -9.5q11 0 17.5 -6t6.5 -16v-27q0 -10 -6.5 -16t-17.5 -6h-15q-26 0 -49 14.5t-33 39.5q-42 -54 -118 -59q-5 0 -14 -0.5 t-13 -0.5t-13 0.5t-15 0.5q-77 4 -121 43.5t-44 103.5q0 65 46.5 101.5t118.5 38.5h41.5t38.5 1q66 3 83 30v9q0 53 -33 86.5t-90 33.5q-49 0 -79.5 -24.5t-40.5 -61.5q-7 -25 -33 -25h-24q-9 0 -15.5 6.5t-6.5 14.5q0 4 1 6z"/>
<glyph glyph-name="atilde" horiz-adv-x="535" unicode="ã" d="M317 614q26 0 32 27q3 17 22 17h17q20 0 18 -20q-3 -39 -26.5 -62t-62.5 -23q-28 0 -62.5 23t-48.5 23q-26 0 -32 -27q-3 -17 -22 -17h-17q-20 0 -18 20q3 39 26 62t62 23q25 0 59.5 -23t52.5 -23zM222 63q6 0 15 -0.5t13 -0.5t13 0.5t14 0.5q42 2 70.5 24.5t35.5 59.5 v99q-27 -23 -82 -28q-15 -1 -43.5 -1.5t-37.5 -0.5q-92 -3 -92 -74q0 -35 25.5 -56t68.5 -23zM62 358q18 67 71 107.5t128 40.5q83 0 138.5 -51t55.5 -134v-215q0 -16 9.5 -25.5t25.5 -9.5q11 0 17.5 -6t6.5 -16v-27q0 -10 -6.5 -16t-17.5 -6h-15q-26 0 -49 14.5t-33 39.5 q-42 -54 -118 -59q-5 0 -14 -0.5t-13 -0.5t-13 0.5t-15 0.5q-77 4 -121 43.5t-44 103.5q0 65 46.5 101.5t118.5 38.5h41.5t38.5 1q66 3 83 30v9q0 53 -33 86.5t-90 33.5q-49 0 -79.5 -24.5t-40.5 -61.5q-7 -25 -33 -25h-24q-9 0 -15.5 6.5t-6.5 14.5q0 4 1 6z"/>
<glyph glyph-name="adieresis" horiz-adv-x="535" unicode="ä" d="M363 671q23 0 39.5 -16t16.5 -39q0 -22 -16.5 -38.5t-39.5 -16.5t-39.5 16t-16.5 39t16.5 39t39.5 16zM165 671q23 0 39.5 -16t16.5 -39q0 -22 -16.5 -38.5t-39.5 -16.5t-39.5 16t-16.5 39t16.5 39t39.5 16zM222 63q6 0 15 -0.5t13 -0.5t13 0.5t14 0.5q42 2 70.5 24.5 t35.5 59.5v99q-27 -23 -82 -28q-15 -1 -43.5 -1.5t-37.5 -0.5q-92 -3 -92 -74q0 -35 25.5 -56t68.5 -23zM62 358q18 67 71 107.5t128 40.5q83 0 138.5 -51t55.5 -134v-215q0 -16 9.5 -25.5t25.5 -9.5q11 0 17.5 -6t6.5 -16v-27q0 -10 -6.5 -16t-17.5 -6h-15q-26 0 -49 14.5 t-33 39.5q-42 -54 -118 -59q-5 0 -14 -0.5t-13 -0.5t-13 0.5t-15 0.5q-77 4 -121 43.5t-44 103.5q0 65 46.5 101.5t118.5 38.5h41.5t38.5 1q66 3 83 30v9q0 53 -33 86.5t-90 33.5q-49 0 -79.5 -24.5t-40.5 -61.5q-7 -25 -33 -25h-24q-9 0 -15.5 6.5t-6.5 14.5q0 4 1 6z"/>
<glyph glyph-name="aring" horiz-adv-x="535" unicode="å" d="M266 584q17 0 29 12t12 30q0 17 -12 29.5t-29 12.5t-29 -12.5t-12 -29.5q0 -18 12 -30t29 -12zM266 714q38 0 63 -25t25 -63t-25 -63t-63 -25t-63 25t-25 63t25 63t63 25zM222 63q6 0 15 -0.5t13 -0.5t13 0.5t14 0.5q42 2 70.5 24.5t35.5 59.5v99q-27 -23 -82 -28 q-15 -1 -43.5 -1.5t-37.5 -0.5q-92 -3 -92 -74q0 -35 25.5 -56t68.5 -23zM62 358q18 67 71 107.5t128 40.5q83 0 138.5 -51t55.5 -134v-215q0 -16 9.5 -25.5t25.5 -9.5q11 0 17.5 -6t6.5 -16v-27q0 -10 -6.5 -16t-17.5 -6h-15q-26 0 -49 14.5t-33 39.5q-42 -54 -118 -59 q-5 0 -14 -0.5t-13 -0.5t-13 0.5t-15 0.5q-77 4 -121 43.5t-44 103.5q0 65 46.5 101.5t118.5 38.5h41.5t38.5 1q66 3 83 30v9q0 53 -33 86.5t-90 33.5q-49 0 -79.5 -24.5t-40.5 -61.5q-7 -25 -33 -25h-24q-9 0 -15.5 6.5t-6.5 14.5q0 4 1 6z"/>
<glyph glyph-name="ae" horiz-adv-x="868" unicode="æ" d="M459 304h283q2 61 -36 99.5t-101 38.5q-60 0 -99.5 -41t-46.5 -97zM278 63q42 3 72 27t34 57v99q-26 -22 -82 -27q-3 0 -81 -3q-92 -3 -92 -74q0 -33 26 -55t68 -24q6 0 15 -0.5t13 -0.5t13 0.5t14 0.5zM606 506q91 0 149 -62t58 -148v-31q0 -24 -24 -24h-335 q-1 -80 40.5 -132.5t115.5 -52.5q89 0 126 80q8 18 28 18h29q19 0 19 -17q0 -3 -2 -9q-21 -62 -75.5 -99t-124.5 -37q-118 0 -182 90q-20 -42 -66 -63.5t-86 -23.5q-5 0 -13.5 -0.5t-12.5 -0.5t-12.5 0.5t-14.5 0.5q-77 4 -122.5 43.5t-45.5 103.5q0 65 46.5 100.5 t119.5 37.5l80 3q66 3 83 30v9q0 54 -32 87t-92 33q-100 0 -121 -80q-7 -25 -33 -25h-23q-9 0 -15.5 6.5t-6.5 14.5q0 4 1 6q18 66 70.5 104t127.5 38q56 0 100.5 -24t69.5 -66q63 90 176 90z"/>
<glyph glyph-name="ccedilla" horiz-adv-x="530" unicode="ç" d="M237 -59v55q-87 13 -137 82.5t-50 170.5q0 110 62 183.5t163 73.5q75 0 126 -37.5t73 -100.5q1 -3 1 -8q0 -13 -14 -19l-28 -10q-3 -1 -8 -1q-16 0 -22 14q-35 94 -128 96h-2q-69 0 -110 -54.5t-41 -136.5q0 -81 41.5 -134.5t110.5 -53.5h3q46 1 82 27t50 69q6 19 27 19 h30q19 0 19 -17q0 -1 -0.5 -3t-0.5 -3q-14 -61 -63.5 -105.5t-115.5 -53.5v-54q0 -52 -32 -79.5t-84 -27.5h-16q-24 0 -24 22v23q0 22 24 22h20q20 0 32 11t12 30z"/>
<glyph glyph-name="egrave" horiz-adv-x="536" unicode="è" d="M261 668l48 -103q3 -7 0 -13.5t-11 -6.5h-28q-18 0 -31 17l-68 100q-3 5 -3 10q0 13 14 13h50q22 0 29 -17zM125 301h285q2 61 -36.5 101.5t-100.5 40.5t-101.5 -42.5t-46.5 -99.5zM404 137q8 18 28 18h29q19 0 19 -17q0 -3 -2 -9q-21 -62 -76 -99.5t-125 -37.5 q-104 0 -165.5 70.5t-61.5 187.5q0 108 61 182t164 74q91 0 148.5 -61.5t57.5 -147.5v-35q0 -24 -24 -24h-335q-1 -79 40 -129t116 -50q90 0 126 78z"/>
<glyph glyph-name="eacute" horiz-adv-x="536" unicode="é" d="M243 565l60 103q10 17 29 17h50q14 0 14 -14q0 -6 -3 -9l-81 -100q-13 -17 -31 -17h-27q-8 0 -11 7t0 13zM125 301h285q2 61 -36.5 101.5t-100.5 40.5t-101.5 -42.5t-46.5 -99.5zM404 137q8 18 28 18h29q19 0 19 -17q0 -3 -2 -9q-21 -62 -76 -99.5t-125 -37.5 q-104 0 -165.5 70.5t-61.5 187.5q0 108 61 182t164 74q91 0 148.5 -61.5t57.5 -147.5v-35q0 -24 -24 -24h-335q-1 -79 40 -129t116 -50q90 0 126 78z"/>
<glyph glyph-name="ecircumflex" horiz-adv-x="536" unicode="ê" d="M259 682h32q16 0 28 -14l80 -100q3 -4 3 -9q0 -14 -14 -14h-29q-15 0 -26 13l-58 69l-58 -69q-11 -13 -26 -13h-29q-14 0 -14 14q0 5 3 9l80 100q12 14 28 14zM125 301h285q2 61 -36.5 101.5t-100.5 40.5t-101.5 -42.5t-46.5 -99.5zM404 137q8 18 28 18h29q19 0 19 -17 q0 -3 -2 -9q-21 -62 -76 -99.5t-125 -37.5q-104 0 -165.5 70.5t-61.5 187.5q0 108 61 182t164 74q91 0 148.5 -61.5t57.5 -147.5v-35q0 -24 -24 -24h-335q-1 -79 40 -129t116 -50q90 0 126 78z"/>
<glyph glyph-name="edieresis" horiz-adv-x="536" unicode="ë" d="M373 671q23 0 39.5 -16t16.5 -39q0 -22 -16.5 -38.5t-39.5 -16.5t-39.5 16t-16.5 39t16.5 39t39.5 16zM175 671q23 0 39.5 -16t16.5 -39q0 -22 -16.5 -38.5t-39.5 -16.5t-39.5 16t-16.5 39t16.5 39t39.5 16zM125 301h285q2 61 -36.5 101.5t-100.5 40.5t-101.5 -42.5 t-46.5 -99.5zM404 137q8 18 28 18h29q19 0 19 -17q0 -3 -2 -9q-21 -62 -76 -99.5t-125 -37.5q-104 0 -165.5 70.5t-61.5 187.5q0 108 61 182t164 74q91 0 148.5 -61.5t57.5 -147.5v-35q0 -24 -24 -24h-335q-1 -79 40 -129t116 -50q90 0 126 78z"/>
<glyph glyph-name="igrave" horiz-adv-x="285" unicode="ì" d="M121 668l48 -103q3 -7 0 -13.5t-11 -6.5h-28q-18 0 -31 17l-68 100q-3 4 -3 10q0 13 14 13h50q22 0 29 -17zM106 23v452q0 9 6.5 16t16.5 7h28q10 0 16.5 -7t6.5 -16v-452q0 -9 -6.5 -16t-16.5 -7h-28q-10 0 -16.5 7t-6.5 16z"/>
<glyph glyph-name="iacute" horiz-adv-x="285" unicode="í" d="M118 565l60 103q10 17 29 17h50q14 0 14 -14q0 -6 -3 -9l-81 -100q-13 -17 -31 -17h-27q-8 0 -11 7t0 13zM106 23v452q0 9 6.5 16t16.5 7h28q10 0 16.5 -7t6.5 -16v-452q0 -9 -6.5 -16t-16.5 -7h-28q-10 0 -16.5 7t-6.5 16z"/>
<glyph glyph-name="icircumflex" horiz-adv-x="285" unicode="î" d="M126 682h32q16 0 28 -14l80 -100q3 -4 3 -9q0 -14 -14 -14h-29q-15 0 -26 13l-58 69l-58 -69q-11 -13 -26 -13h-29q-14 0 -14 14q0 5 3 9l80 100q12 14 28 14zM106 23v452q0 9 6.5 16t16.5 7h28q10 0 16.5 -7t6.5 -16v-452q0 -9 -6.5 -16t-16.5 -7h-28q-10 0 -16.5 7 t-6.5 16z"/>
<glyph glyph-name="idieresis" horiz-adv-x="285" unicode="ï" d="M242 671q23 0 39.5 -16t16.5 -39q0 -22 -16.5 -38.5t-39.5 -16.5t-39.5 16t-16.5 39t16.5 39t39.5 16zM44 671q23 0 39.5 -16t16.5 -39q0 -22 -16.5 -38.5t-39.5 -16.5t-39.5 16t-16.5 39t16.5 39t39.5 16zM106 23v452q0 9 6.5 16t16.5 7h28q10 0 16.5 -7t6.5 -16v-452 q0 -9 -6.5 -16t-16.5 -7h-28q-10 0 -16.5 7t-6.5 16z"/>
<glyph glyph-name="eth" horiz-adv-x="598" unicode="ð" d="M292 59q72 0 119.5 46.5t47.5 123.5q0 74 -48.5 123.5t-120.5 49.5t-119 -50t-47 -124q0 -73 47 -121t121 -48zM240 587l80 46v1q-45 35 -50 38q-10 7 -10 18q0 6 5 13l16 20q6 8 21 8q8 0 14 -3q31 -16 73 -53l1 -1l83 48q5 4 16 4q13 0 18 -9l15 -26q3 -6 3 -11 q0 -14 -13 -20l-70 -40q101 -137 101 -305q0 -36 -1 -50q-11 -129 -79.5 -201t-171.5 -72q-106 0 -173.5 68.5t-67.5 167.5q0 103 67 172t171 69q60 0 109.5 -26.5t72.5 -57.5q-4 52 -31.5 108t-62.5 89l-101 -58q-8 -4 -12 -4q-11 0 -19 11l-14 24q-3 6 -3 11q0 14 13 21z "/>
<glyph glyph-name="ntilde" horiz-adv-x="575" unicode="ñ" d="M347 614q26 0 32 27q3 17 22 17h17q20 0 18 -20q-3 -39 -26.5 -62t-62.5 -23q-28 0 -62.5 23t-48.5 23q-26 0 -32 -27q-3 -17 -22 -17h-17q-20 0 -18 20q3 39 26 62t62 23q25 0 59.5 -23t52.5 -23zM152 476l2 -34q58 64 150 64q86 0 138.5 -53t52.5 -142v-288 q0 -9 -6.5 -16t-16.5 -7h-28q-9 0 -16 7t-7 16v288q0 61 -33 95t-94 34q-47 0 -86.5 -30.5t-53.5 -69.5v-317q0 -9 -7 -16t-17 -7h-28q-9 0 -15.5 7t-6.5 16v452q0 9 6.5 16t15.5 7h27q21 0 23 -22z"/>
<glyph glyph-name="ograve" horiz-adv-x="553" unicode="ò" d="M261 668l48 -103q3 -7 0 -13.5t-11 -6.5h-28q-18 0 -31 17l-68 100q-3 5 -3 10q0 13 14 13h50q22 0 29 -17zM276 437q-67 0 -110 -53t-43 -134q0 -83 43 -136t110 -53t110.5 52.5t43.5 136.5q0 81 -43.5 134t-110.5 53zM276 -8q-97 0 -161.5 73t-64.5 185q0 110 66 183 t160 73t160.5 -73t66.5 -183q0 -112 -64.5 -185t-162.5 -73z"/>
<glyph glyph-name="oacute" horiz-adv-x="553" unicode="ó" d="M248 565l60 103q10 17 29 17h50q14 0 14 -14q0 -6 -3 -9l-81 -100q-13 -17 -31 -17h-27q-8 0 -11 7t0 13zM276 437q-67 0 -110 -53t-43 -134q0 -83 43 -136t110 -53t110.5 52.5t43.5 136.5q0 81 -43.5 134t-110.5 53zM276 -8q-97 0 -161.5 73t-64.5 185q0 110 66 183 t160 73t160.5 -73t66.5 -183q0 -112 -64.5 -185t-162.5 -73z"/>
<glyph glyph-name="ocircumflex" horiz-adv-x="553" unicode="ô" d="M259 682h32q16 0 28 -14l80 -100q3 -4 3 -9q0 -14 -14 -14h-29q-15 0 -26 13l-58 69l-58 -69q-11 -13 -26 -13h-29q-14 0 -14 14q0 5 3 9l80 100q12 14 28 14zM276 437q-67 0 -110 -53t-43 -134q0 -83 43 -136t110 -53t110.5 52.5t43.5 136.5q0 81 -43.5 134t-110.5 53z M276 -8q-97 0 -161.5 73t-64.5 185q0 110 66 183t160 73t160.5 -73t66.5 -183q0 -112 -64.5 -185t-162.5 -73z"/>
<glyph glyph-name="otilde" horiz-adv-x="553" unicode="õ" d="M332 614q26 0 32 27q3 17 22 17h17q20 0 18 -20q-3 -39 -26.5 -62t-62.5 -23q-28 0 -62.5 23t-48.5 23q-26 0 -32 -27q-3 -17 -22 -17h-17q-20 0 -18 20q3 39 26 62t62 23q25 0 59.5 -23t52.5 -23zM276 437q-67 0 -110 -53t-43 -134q0 -83 43 -136t110 -53t110.5 52.5 t43.5 136.5q0 81 -43.5 134t-110.5 53zM276 -8q-97 0 -161.5 73t-64.5 185q0 110 66 183t160 73t160.5 -73t66.5 -183q0 -112 -64.5 -185t-162.5 -73z"/>
<glyph glyph-name="odieresis" horiz-adv-x="553" unicode="ö" d="M376 671q23 0 39.5 -16t16.5 -39q0 -22 -16.5 -38.5t-39.5 -16.5t-39.5 16t-16.5 39t16.5 39t39.5 16zM178 671q23 0 39.5 -16t16.5 -39q0 -22 -16.5 -38.5t-39.5 -16.5t-39.5 16t-16.5 39t16.5 39t39.5 16zM276 437q-67 0 -110 -53t-43 -134q0 -83 43 -136t110 -53 t110.5 52.5t43.5 136.5q0 81 -43.5 134t-110.5 53zM276 -8q-97 0 -161.5 73t-64.5 185q0 110 66 183t160 73t160.5 -73t66.5 -183q0 -112 -64.5 -185t-162.5 -73z"/>
<glyph glyph-name="divide" d="M75 288h362q10 0 16.5 -6.5t6.5 -16.5v-25q0 -10 -6.5 -16.5t-16.5 -6.5h-362q-9 0 -16 6.5t-7 16.5v25q0 10 7 16.5t16 6.5zM196 443q0 27 18 45t45 18q25 0 44 -18t19 -45q0 -26 -19 -43.5t-44 -17.5q-26 0 -44.5 17.5t-18.5 43.5zM196 63q0 27 18 44.5t45 17.5 q25 0 44 -18t19 -44q0 -27 -19 -45t-44 -18q-27 0 -45 18t-18 45z" unicode="÷"/>
<glyph glyph-name="oslash" horiz-adv-x="590" unicode="ø" d="M60 17l54 67q-49 68 -49 165q0 110 66 183.5t160 73.5q68 0 129 -46l58 71q6 7 17 7q8 0 12 -4l20 -16q8 -6 8 -15q0 -6 -5 -13l-63 -78q51 -69 51 -163q0 -112 -64.5 -184.5t-162.5 -72.5q-71 0 -130 44l-49 -60q-6 -7 -17 -7q-8 0 -12 4l-20 16q-8 6 -8 15q0 6 5 13z M291 437q-67 0 -110 -53t-43 -134q0 -62 24 -107l214 264q-40 30 -85 30zM445 250q0 59 -25 104l-215 -263q40 -30 86 -30q67 0 110.5 52.5t43.5 136.5z"/>
<glyph glyph-name="ugrave" horiz-adv-x="572" unicode="ù" d="M276 668l48 -103q3 -7 0 -13.5t-11 -6.5h-28q-18 0 -31 17l-68 100q-3 5 -3 10q0 13 14 13h50q22 0 29 -17zM423 22l-2 43q-60 -73 -151 -73q-88 0 -139 52t-51 141v290q0 10 6 16.5t16 6.5h29q10 0 16.5 -6.5t6.5 -16.5v-288q0 -61 32 -94.5t93 -33.5q45 0 84.5 30.5 t54.5 68.5v317q0 10 6.5 16.5t16.5 6.5h29q22 0 22 -23v-452q0 -9 -7 -16t-15 -7h-25q-20 0 -22 22z"/>
<glyph glyph-name="uacute" horiz-adv-x="572" unicode="ú" d="M258 565l60 103q10 17 29 17h50q14 0 14 -14q0 -6 -3 -9l-81 -100q-13 -17 -31 -17h-27q-8 0 -11 7t0 13zM423 22l-2 43q-60 -73 -151 -73q-88 0 -139 52t-51 141v290q0 10 6 16.5t16 6.5h29q10 0 16.5 -6.5t6.5 -16.5v-288q0 -61 32 -94.5t93 -33.5q45 0 84.5 30.5 t54.5 68.5v317q0 10 6.5 16.5t16.5 6.5h29q22 0 22 -23v-452q0 -9 -7 -16t-15 -7h-25q-20 0 -22 22z"/>
<glyph glyph-name="ucircumflex" horiz-adv-x="572" unicode="û" d="M269 682h32q16 0 28 -14l80 -100q3 -4 3 -9q0 -14 -14 -14h-29q-15 0 -26 13l-58 69l-58 -69q-11 -13 -26 -13h-29q-14 0 -14 14q0 5 3 9l80 100q12 14 28 14zM423 22l-2 43q-60 -73 -151 -73q-88 0 -139 52t-51 141v290q0 10 6 16.5t16 6.5h29q10 0 16.5 -6.5t6.5 -16.5 v-288q0 -61 32 -94.5t93 -33.5q45 0 84.5 30.5t54.5 68.5v317q0 10 6.5 16.5t16.5 6.5h29q22 0 22 -23v-452q0 -9 -7 -16t-15 -7h-25q-20 0 -22 22z"/>
<glyph glyph-name="udieresis" horiz-adv-x="572" unicode="ü" d="M388 671q23 0 39.5 -16t16.5 -39q0 -22 -16.5 -38.5t-39.5 -16.5t-39.5 16t-16.5 39t16.5 39t39.5 16zM190 671q23 0 39.5 -16t16.5 -39q0 -22 -16.5 -38.5t-39.5 -16.5t-39.5 16t-16.5 39t16.5 39t39.5 16zM423 22l-2 43q-60 -73 -151 -73q-88 0 -139 52t-51 141v290 q0 10 6 16.5t16 6.5h29q10 0 16.5 -6.5t6.5 -16.5v-288q0 -61 32 -94.5t93 -33.5q45 0 84.5 30.5t54.5 68.5v317q0 10 6.5 16.5t16.5 6.5h29q22 0 22 -23v-452q0 -9 -7 -16t-15 -7h-25q-20 0 -22 22z"/>
<glyph glyph-name="yacute" horiz-adv-x="525" unicode="ý" d="M238 565l60 103q10 17 29 17h50q14 0 14 -14q0 -6 -3 -9l-81 -100q-13 -17 -31 -17h-27q-8 0 -11 7t0 13zM222 30l-195 442q-2 6 -2 8q0 7 5 12.5t13 5.5h35q21 0 29 -18l154 -369l157 369q8 18 29 18h35q17 0 17 -17q0 -3 -2 -9l-263 -597q-33 -73 -113 -73q-26 0 -48 6 q-15 3 -15 20q0 5 1 7l6 24q5 16 22 16h5q22 -4 30 -4q35 0 47 28z"/>
<glyph glyph-name="thorn" horiz-adv-x="565" unicode="þ" d="M154 355v-198q13 -35 51 -65t84 -30q70 0 110 51.5t40 135.5q0 82 -41 135t-109 53q-42 0 -79 -24.5t-56 -57.5zM154 704v-258q27 27 65.5 43.5t70.5 16.5q102 0 163 -71.5t61 -182.5q0 -114 -61 -187t-163 -73q-37 0 -77 19.5t-59 46.5v-228q0 -9 -7 -16t-17 -7h-28 q-9 0 -15.5 7t-6.5 16v874q0 9 6.5 16t15.5 7h28q10 0 17 -7t7 -16z"/>
</font>
</defs>
</svg>
